<?xml version="1.0" encoding="utf-8"?>
<!-- Generator: Adobe Illustrator 21.1.0, SVG Export Plug-In . SVG Version: 6.00 Build 0)  -->
<svg version="1.1" id="Layer_1" xmlns="http://www.w3.org/2000/svg" xmlns:xlink="http://www.w3.org/1999/xlink" x="0px" y="0px"
	 viewBox="0 0 1591 810" style="enable-background:new 0 0 1591 810;" xml:space="preserve">
<style type="text/css">
	.st0{fill:#FCC192;}
	.st1{fill:#FFFFFF;}
</style>
<g>
	<path class="st0" d="M1240.6,316.8c36.1,0,65.5,29.4,65.5,65.5c0,12.1,9.8,21.8,21.8,21.8c12.1,0,21.8-9.8,21.8-21.8
		c0-36.1,29.4-65.5,65.5-65.5c12.1,0,21.8-9.8,21.8-21.8c0-12.1-9.8-21.8-21.8-21.8c-36.1,0-65.5-29.4-65.5-65.5
		c0-12.1-9.8-21.8-21.8-21.8c-12.1,0-21.8,9.8-21.8,21.8c0,36.1-29.4,65.5-65.5,65.5c-12.1,0-21.8,9.8-21.8,21.8
		C1218.8,307.1,1228.5,316.8,1240.6,316.8z M1327.9,273.1c6.2,8.3,13.6,15.7,21.9,21.9c-8.3,6.2-15.7,13.6-21.9,21.9
		c-6.2-8.3-13.6-15.7-21.9-21.9C1314.3,288.8,1321.7,281.4,1327.9,273.1z"/>
	<path class="st0" d="M1547.6,447.8c-36.3,0-66.9-30-66.9-65.5c0-12.1-9.8-21.8-21.8-21.8s-21.8,9.8-21.8,21.8
		c0,36.1-29.4,65.5-65.5,65.5c-12.1,0-21.8,9.8-21.8,21.8c0,12.1,9.8,21.8,21.8,21.8c36.1,0,65.5,29.4,65.5,65.5
		c0,12.1,9.8,21.8,21.8,21.8s21.8-9.8,21.8-21.8c0-35.5,30.7-65.5,66.9-65.5c12.1,0,21.8-9.8,21.8-21.8
		C1569.5,457.6,1559.7,447.8,1547.6,447.8z M1469.9,479.6c-3.9,3.9-7.6,7.9-10.8,12.2c-6.3-8.4-13.7-15.9-22.1-22.2
		c8.4-6.3,15.8-13.8,22.1-22.2c3.3,4.3,6.9,8.4,10.8,12.2c3.7,3.6,7.6,6.9,11.7,10C1477.5,472.7,1473.6,476,1469.9,479.6z"/>
	<path class="st0" d="M1548.2,754.7h-206.2c-23.1-47.4-35.4-100.6-35.4-154.2v-43.7c0-36.1-29.3-65.5-65.4-65.5
		c-36.2,0.1-65.6-29.3-65.6-65.5V119.9c0-34.3-26-63.5-60.2-66.2c-38.5-3-70.8,27.4-70.8,65.3v309c0,36-29.1,65.4-65.1,65.2
		c-36.3-0.2-65.9,29-65.9,65v43.3c0,52.7,10.7,105.2,31.1,153.1h-97.6c-11.8,0-21.8,9.2-22.2,20.9c-0.1,3,0.4,5.8,1.4,8.4H796
		c-3.8,0-7,3.1-7,7c0,3.8,3.2,7,7,7h50.7h8.3h692.8c11.8,0,21.8-9.2,22.2-20.9C1570.4,764.8,1560.5,754.7,1548.2,754.7z
		 M1087.9,118.9c0-12.7,10.8-22.9,23.7-21.7c11.3,1,19.7,10.8,19.7,22.1v284.8h-43.3V118.9z M956.9,556.6c0-12,9.8-21.8,21.9-21.8
		c52.6,0,96.7-37.6,106.8-87.3h48c10.1,49.7,54.2,87.3,106.8,87.3c12,0,21.9,9.8,21.9,21.8v21.8H956.9V556.6z M1231.9,754.7
		c-10.4-21.4-19.2-46.2-25.4-71.8c-2.8-11.7-14.6-18.8-26.3-16c-11.7,2.8-18.8,14.6-16,26.3c5.2,21.4,12,42.3,20,61.6h-82.8
		c-10.4-21.4-19.2-46.2-25.4-71.8c-2.8-11.7-14.6-18.8-26.3-16c-11.7,2.8-18.8,14.6-16,26.3c5.2,21.4,12,42.3,20,61.6h-61.1
		c-19.9-40.8-31.7-85.9-34.6-132h304.4c2.5,45.5,12.8,90.4,30.3,132H1231.9z"/>
</g>
<g>
	<g>
		<path class="st1" d="M796.2,106H714V60.5C714,41,698,25,678.5,25h-51.1C608,25,592,41,592,60.5V106H291V60.5
			C291,41,275,25,255.5,25h-51.1C185,25,169,41,169,60.5V106H83.9C49.4,106,21,134.3,21,168.8v566.3c0,34.4,28.3,62.8,62.9,62.8
			h712.3c34.4,0,62.9-28.3,62.9-62.8V168.8C859,134.3,830.7,106,796.2,106z M629,64h47v61.6V175h-47v-49.4V64z M207,64h47v61.6V175
			h-47v-49.4L207,64L207,64z M84.3,143H170v33.5c0,19.5,16,35.5,35.5,35.5h51.1c19.5,0,35.5-16,35.5-35.5V143h300v33.5
			c0,19.5,16,35.5,35.5,35.5h51.1c19.5,0,35.5-16,35.5-35.5V143h82.7c14,0,25.3,11.3,25.3,25.3V270H59V168.4
			C59,154.1,70.2,143,84.3,143z M795.7,761H84.3c-14,0-25.3-11.3-25.3-25.3V308h762v427.7C821,749.8,809.8,761,795.7,761z"/>
	</g>
	<g>
	</g>
	<g>
	</g>
	<g>
	</g>
	<g>
	</g>
	<g>
	</g>
	<g>
	</g>
	<g>
	</g>
	<g>
	</g>
	<g>
	</g>
	<g>
	</g>
	<g>
	</g>
	<g>
	</g>
	<g>
	</g>
	<g>
	</g>
	<g>
	</g>
</g>
<path class="st1" d="M212.3,419.8h-68.5c-10.3,0-18.7-8.4-18.7-18.7v-11.3c0-10.3,8.4-18.7,18.7-18.7h68.5
	c10.3,0,18.7,8.4,18.7,18.7v11.3C231,411.4,222.6,419.8,212.3,419.8z"/>
<path class="st0" d="M386.3,419.8h-68.5c-10.3,0-18.7-8.4-18.7-18.7v-11.3c0-10.3,8.4-18.7,18.7-18.7h68.5
	c10.3,0,18.7,8.4,18.7,18.7v11.3C405,411.4,396.6,419.8,386.3,419.8z"/>
<path class="st1" d="M561.3,419.8h-68.5c-10.3,0-18.7-8.4-18.7-18.7v-11.3c0-10.3,8.4-18.7,18.7-18.7h68.5
	c10.3,0,18.7,8.4,18.7,18.7v11.3C580,411.4,571.6,419.8,561.3,419.8z"/>
<path class="st1" d="M737.3,419.8h-68.5c-10.3,0-18.7-8.4-18.7-18.7v-11.3c0-10.3,8.4-18.7,18.7-18.7h68.5
	c10.3,0,18.7,8.4,18.7,18.7v11.3C756,411.4,747.6,419.8,737.3,419.8z"/>
<path class="st1" d="M211.3,555.4h-68.5c-10.3,0-18.7-8.4-18.7-18.7v-11.3c0-10.3,8.4-18.7,18.7-18.7h68.5
	c10.3,0,18.7,8.4,18.7,18.7v11.3C230,547,221.6,555.4,211.3,555.4z"/>
<path class="st0" d="M385.3,555.4h-68.5c-10.3,0-18.7-8.4-18.7-18.7v-11.3c0-10.3,8.4-18.7,18.7-18.7h68.5
	c10.3,0,18.7,8.4,18.7,18.7v11.3C404,547,395.6,555.4,385.3,555.4z"/>
<path class="st1" d="M560.3,555.4h-68.5c-10.3,0-18.7-8.4-18.7-18.7v-11.3c0-10.3,8.4-18.7,18.7-18.7h68.5
	c10.3,0,18.7,8.4,18.7,18.7v11.3C579,547,570.6,555.4,560.3,555.4z"/>
<path class="st1" d="M736.3,555.4h-68.5c-10.3,0-18.7-8.4-18.7-18.7v-11.3c0-10.3,8.4-18.7,18.7-18.7h68.5
	c10.3,0,18.7,8.4,18.7,18.7v11.3C755,547,746.6,555.4,736.3,555.4z"/>
<path class="st1" d="M212.3,691h-68.5c-10.3,0-18.7-8.4-18.7-18.7v-11.3c0-10.3,8.4-18.7,18.7-18.7h68.5c10.3,0,18.7,8.4,18.7,18.7
	v11.3C231,682.6,222.6,691,212.3,691z"/>
<path class="st0" d="M386.3,691h-68.5c-10.3,0-18.7-8.4-18.7-18.7v-11.3c0-10.3,8.4-18.7,18.7-18.7h68.5c10.3,0,18.7,8.4,18.7,18.7
	v11.3C405,682.6,396.6,691,386.3,691z"/>
<path class="st1" d="M561.3,691h-68.5c-10.3,0-18.7-8.4-18.7-18.7v-11.3c0-10.3,8.4-18.7,18.7-18.7h68.5c10.3,0,18.7,8.4,18.7,18.7
	v11.3C580,682.6,571.6,691,561.3,691z"/>
<path class="st1" d="M737.3,691h-68.5c-10.3,0-18.7-8.4-18.7-18.7v-11.3c0-10.3,8.4-18.7,18.7-18.7h68.5c10.3,0,18.7,8.4,18.7,18.7
	v11.3C756,682.6,747.6,691,737.3,691z"/>
</svg>
