<?xml version="1.0" encoding="utf-8"?>
<!-- Generator: Adobe Illustrator 21.1.0, SVG Export Plug-In . SVG Version: 6.00 Build 0)  -->
<svg version="1.1" id="Layer_1" xmlns="http://www.w3.org/2000/svg" xmlns:xlink="http://www.w3.org/1999/xlink" x="0px" y="0px"
	 viewBox="0 0 1509.1 730.9" style="enable-background:new 0 0 1509.1 730.9;" xml:space="preserve">
<style type="text/css">
	.st0{fill:#FFFFFF;}
	.st1{enable-background:new    ;}
	.st2{fill:#FDD2AF;}
</style>
<g>
	<path class="st0" d="M79.9,194.8c-0.5,5-0.9,8.7-0.9,11.5c0,38.3,37.2,68.4,84.2,68.4c38.5,0,80.3-21.4,100.6-51.5H300
		c-30.1,48.7-86,79.6-142.9,79.6c-63.9,0-111.4-40.9-111.4-96.1c0-74.2,75.2-140.2,159.9-140.2c65.3,0,111.4,38.8,111.4,94
		c0,9.9-0.9,17.7-4.2,34.2L79.9,194.8L79.9,194.8z M199.3,94.5c-48.9,0-95.5,30.1-112.3,72.5h196.9
		C281.5,122.6,249.1,94.5,199.3,94.5z"/>
	<path class="st0" d="M586.5,297.4l8.5-39.6c-38.1,33.8-64.9,45-108.6,45c-69.1,0-115.1-37.9-115.1-94.4
		c0-76.3,75.2-141.9,162.7-141.9c41.4,0,72,11.5,91.6,45.4l8.5-40h34.8l-47.5,225.5H586.5z M530.5,94.5
		c-65.3,0-123.1,49.9-123.1,106c0,44.1,34.8,74.2,86,74.2c62.5,0,119-52,119-108.9C612.3,124.7,577.5,94.5,530.5,94.5z"/>
	<path class="st0" d="M757.8,302.8c-42.3,0-68.6-24.7-68.6-53.6c0-4.1,0-8.2,1.4-18.2h34.3c0,35.9,14.6,43.7,39,43.7
		c28.7,0,53.1-21.4,53.1-46.1c0-17.3-6.6-23.1-41.4-36.3c-28.2-10.8-35.7-14.5-42.8-21.9c-7-7-12.2-19.4-12.2-29.7
		c0-40,42.8-74.2,88.4-74.2c34.3,0,59.7,20.6,59.7,48.7c0,3.3,0,7.8-0.5,12.4h-35.2c0-22.7-9.4-32.9-30.5-32.9
		c-23.5,0-45.6,18.6-45.6,37.9c0,10.8,6.6,19,17.9,24.3c6.1,2.9,14.1,6.2,44.6,18.2c24,9.5,33.9,23.5,33.9,44.6
		C853.2,266.1,807.6,302.8,757.8,302.8z"/>
	<path class="st0" d="M947.7,376.6h-36.7l59.7-86.6L917.2,71.9h38.1l43.3,179.8l125-179.8h37.2L947.7,376.6z"/>
</g>
<g class="st1">
	<path class="st0" d="M201.3,637l6.7-29.5c-29.3,23.7-59.1,34.7-94.2,34.7C48.5,642.2,5,604.2,5,546.9c0-76.8,75.7-144.8,161-144.8
		c32.2,0,60.6,10.7,74.8,28.2l20.3-95.6h63l-65,302.2H201.3z M164.4,452.1c-51.1,0-94.7,38.5-94.7,83.4c0,33.5,26.5,56.8,65.4,56.8
		c48.3,0,92.3-40.1,92.3-83.8C227.4,474.6,202.3,452.1,164.4,452.1z"/>
	<path class="st0" d="M529.4,637l6.2-29.5c-29.3,24.1-57.8,34.7-94.7,34.7c-66.3,0-109.8-36.8-109.8-92.4
		c0-78.9,74.3-144.8,163.3-144.8c36.9,0,62,11.4,77.2,35.6l6.2-30.2h57.8l-48.3,226.5L529.4,637L529.4,637z M489.7,455.1
		c-50.2,0-93.7,38.8-93.7,83.8c0,32.8,25.1,53.5,63.9,53.5c52,0,93.2-35.6,93.2-83.4C553.1,475.8,528.5,455.1,489.7,455.1z"/>
	<path class="st0" d="M774.4,637h-50.2l-56.8-226.5h70.1l28.4,150l91.9-150h71L774.4,637z"/>
	<path class="st0" d="M988.1,547.8c0,26.2,25.5,44.5,61.5,44.5c26.5,0,45.9-6.9,63.9-22.5h68.6c-28.4,45-82.4,72.3-141.5,72.3
		c-70.1,0-118.9-39.7-118.9-96.5c0-74,79-140.6,166.6-140.6c65.8,0,112.2,38,112.2,92c0,19.7-3.3,38-9.5,50.7H988.1z M1078.6,455.1
		c-36.5,0-69.6,18-81.9,44.5h145.4C1140.2,470.1,1118.8,455.1,1078.6,455.1z"/>
</g>
<path class="st2" d="M1365.2,642.7l1,0.2c3.3,0.6,6.5-1.6,7.1-4.9L1476,77.5c0.6-3.3-1.6-6.5-4.9-7.1l-1-0.2
	c-3.3-0.6-6.5,1.6-7.1,4.9l-102.7,560.5C1359.8,639,1362,642.1,1365.2,642.7z"/>
</svg>
