<?xml version="1.0" encoding="utf-8"?>
<!-- Generator: Adobe Illustrator 21.1.0, SVG Export Plug-In . SVG Version: 6.00 Build 0)  -->
<svg version="1.1" id="Layer_1" xmlns="http://www.w3.org/2000/svg" xmlns:xlink="http://www.w3.org/1999/xlink" x="0px" y="0px"
	 viewBox="0 0 655.1 527.5" style="enable-background:new 0 0 655.1 527.5;" xml:space="preserve">
<style type="text/css">
	.st01{fill:#EC517D;}
	.st11{display:none;}
	.st21{display:inline;}
	.st31{display:none;fill:#FFFFFF;}
	.st41{display:inline;fill:#FFFFFF;}
	.st51{display:none;fill:#EC517D;}
	.st61{fill:#FFFFFF;}
</style>
<path class="st01" d="M573.8,32.5l-394.2-0.4c-43.2,0-84.3,29.3-91.3,65.3L22.7,436.6c-6.7,34.6,20.1,63.3,60.4,65.9l404.1,0.2
	c42.9-0.6,83.2-30.1,89.8-66l63-338.8C646.8,61.9,616.9,32.5,573.8,32.5z"/>

<path class="st31" d="M550.7,477.7l-403.4-0.1c-44.3,0-74.6-29.8-67.5-66.1l66.6-339.1c7.1-36,48.8-65.4,92.8-65.3l400.9,0.4
	c43.9,0,74.3,29.5,67.5,65.4l-64.1,338.8C636.7,448,594.9,477.7,550.7,477.7z"/>
<path class="st11" d="M290.2,502.4"/>
<path class="st31" d="M412.2,174c10.3,0,32.1,0,52.2,0c0-10.6,0-47.2,0-81c-26.9,0-57.5,0-71,0c-100.5,0-98.2,77.9-98.2,89.5
	c0,11.7,0,63.7,0,63.7h-46.6V324h46.6v178.7h95.8V324h64.3c0,0,6-37.3,8.9-78.1c-8.4,0-72.9,0-72.9,0s0-45.3,0-53.2
	C391.4,184.7,401.9,174,412.2,174z"/>

<g class="st11">
	<path class="st41" d="M393.6,313.8h60.8l8-76.1h-68.9v-38.1c0-5.7,0.3-10.1,0.8-13.3c0.5-3.1,1.7-6.2,3.6-9.2c1.9-3,4.9-5.1,9.1-6.3
		c4.2-1.2,9.8-1.7,16.8-1.7h38V93h-60.8c-35.2,0-60.5,8.4-75.8,25.1c-15.4,16.7-23,41.3-23,73.8v45.8h-45.6v76.1h45.6v188.9l91.4,0
		V313.8z"/>
</g>

<path class="st51" d="M379.9,249v-55.2c0-16.9,17.5-20.9,25.7-20.9c8.1,0,48.9,0,48.9,0V98.5l-56-0.3c-76.4,0-93.8,55.5-93.8,91.2
	V249h-55.4v76.7h55.4c0,66.5,0,137.7,0,176.9l75.3,0c0-39.4,0-111,0-176.9h64l11.7-76.7H379.9z"/>
<g>
	<g>
		<g>
			<rect x="175.9" y="208.1" class="st61" width="71.5" height="221.7"/>
			<path class="st61" d="M482.1,228.3c-15-16.9-34.9-25.4-59.6-25.4c-9.1,0-17.4,1.2-24.8,3.5c-7.4,2.3-13.7,5.6-18.9,9.7
				c-5.1,4.2-9.2,8.1-12.2,11.6c-2.9,3.4-5.7,7.4-8.5,11.8v-31.5h-71.3l0.2,10.7c0.1,7.2,0.2,29.2,0.2,66.2c0,37-0.1,85.2-0.4,144.8
				h71.3V306.1c0-7.6,0.8-13.6,2.4-18.1c3-7.6,7.6-14,13.8-19.1c6.1-5.1,13.8-7.7,22.9-7.7c12.4,0,21.6,4.4,27.4,13.3
				c5.9,8.9,8.8,21.1,8.8,36.8v118.6h71.3V302.7C504.7,270,497.1,245.2,482.1,228.3z"/>
			<path class="st61" d="M212.1,101.3c-12,0-21.7,3.6-29.2,10.9c-7.4,7.2-11.2,16.4-11.2,27.4c0,10.9,3.6,20,10.8,27.3
				c7.2,7.3,16.8,11,28.6,11h0.4c12.1,0,21.9-3.7,29.4-11c7.4-7.3,11.1-16.4,10.9-27.3c-0.1-11-3.8-20.2-11.1-27.4
				C233.7,105,224,101.3,212.1,101.3z"/>
		</g>
	
</g>

</svg>
