<?xml version="1.0" encoding="utf-8"?>
<!-- Generator: Adobe Illustrator 21.1.0, SVG Export Plug-In . SVG Version: 6.00 Build 0)  -->
<svg version="1.1" id="Layer_1" xmlns="http://www.w3.org/2000/svg" xmlns:xlink="http://www.w3.org/1999/xlink" x="0px" y="0px"
	 viewBox="0 0 869.4 512.3" style="enable-background:new 0 0 869.4 512.3;" xml:space="preserve">
<style type="text/css">
	.hc0{fill:#CC9999;}
</style>
<g>
	<path class="hc0" d="M850,219.8L795.8,46.4c-2.3-7.2-9.2-12.1-17-12.1H471.9c-7.7,0-14.6,4.8-16.9,11.8l-58.7,174.2
		c-1.7,5.2-0.8,10.8,2.6,15.2c3.3,4.4,8.7,7,14.4,7h13.3v158.9c0,37.5,31.9,68,71.2,68h88.9c9.8,0,17.8-7.6,17.8-17v-74h37.4v74
		c0,9.4,8,17,17.8,17h88.9c39.2,0,71.2-30.5,71.2-68c0-9.4-8-17-17.8-17s-17.8,7.6-17.8,17c0,18.7-16,34-35.6,34h-71.2v-74
		c0-9.4-8-17-17.8-17h-72.9c-9.8,0-17.8,7.6-17.8,17v74h-71.2c-19.6,0-35.6-15.3-35.6-34V242.5h57.8c5,0,9.7-2,13.1-5.5l90.1-93.6
		l89.2,92.5c3.4,3.5,8.1,5.5,13,5.5l58.8,0.2v74.9c0,9.4,8,17,17.8,17s17.8-7.6,17.8-17v-74.8l13.3,0h0c5.6,0,10.9-2.5,14.3-6.8
		C850.6,230.5,851.6,224.9,850,219.8z M637,107.7c-3.4-3.5-8.1-5.5-13.1-5.5h-1.8c-5,0-9.7,2-13.1,5.5l-97,100.8h-74.5l47.2-140.2
		h280.6l43.6,139.3l-75.9-0.2L637,107.7z M622.2,201.7c9.8,0,17.8,7.6,17.8,17c0,9.4-8,17-17.8,17c-9.8,0-17.8-7.6-17.8-17
		C604.4,209.3,612.4,201.7,622.2,201.7z M533.2,353v17c0,4.7-4,8.5-8.9,8.5h-17.8c-4.9,0-8.9-3.8-8.9-8.5v-17c0-4.7,4-8.5,8.9-8.5
		h17.8C529.3,344.5,533.2,348.3,533.2,353z M533.2,302c0,4.7-4,8.5-8.9,8.5h-17.8c-4.9,0-8.9-3.8-8.9-8.5v-17c0-4.7,4-8.5,8.9-8.5
		h17.8c4.9,0,8.9,3.8,8.9,8.5V302z M595.5,276.5c4.9,0,8.9,3.8,8.9,8.5v17c0,4.7-4,8.5-8.9,8.5h-17.8c-4.9,0-8.9-3.8-8.9-8.5v-17
		c0-4.7,4-8.5,8.9-8.5H595.5z M747.6,353v17c0,4.7-4,8.5-8.9,8.5h-17.8c-4.9,0-8.9-3.8-8.9-8.5v-17c0-4.7,4-8.5,8.9-8.5h17.8
		C743.6,344.5,747.6,348.3,747.6,353z M667.5,276.5c4.9,0,8.9,3.8,8.9,8.5v17c0,4.7-4,8.5-8.9,8.5h-17.8c-4.9,0-8.9-3.8-8.9-8.5v-17
		c0-4.7,4-8.5,8.9-8.5H667.5z M747.6,302c0,4.7-4,8.5-8.9,8.5h-17.8c-4.9,0-8.9-3.8-8.9-8.5v-17c0-4.7,4-8.5,8.9-8.5h17.8
		c4.9,0,8.9,3.8,8.9,8.5V302z"/>
</g>
<g>
	<path class="hc0" d="M180.8,173.8c17.7-10.5,40.7-4.6,51.2,13.1c3.5,5.9,11.1,7.9,17.1,4.4c5.9-3.5,7.9-11.1,4.4-17.1
		c-10.5-17.7-4.6-40.7,13.1-51.2c5.9-3.5,7.9-11.1,4.4-17.1c-3.5-5.9-11.1-7.9-17.1-4.4c-17.7,10.5-40.7,4.6-51.2-13.1
		c-3.5-5.9-11.1-7.9-17.1-4.4c-5.9,3.5-7.9,11.1-4.4,17.1c10.5,17.7,4.6,40.7-13.1,51.2c-5.9,3.5-7.9,11.1-4.4,17.1
		S174.8,177.3,180.8,173.8z M210.9,126.9c5.5,2.3,11.2,3.7,17.1,4.4c-2.3,5.5-3.7,11.2-4.4,17.1c-5.5-2.3-11.2-3.7-17.1-4.4
		C208.8,138.6,210.2,132.8,210.9,126.9z"/>
	<path class="hc0" d="M369.6,148.7c-17.8,10.6-41.6,4.8-51.9-12.6c-3.5-5.9-11.1-7.9-17.1-4.4c-5.9,3.5-7.9,11.1-4.4,17.1
		c10.5,17.7,4.6,40.7-13.1,51.2c-5.9,3.5-7.9,11.1-4.4,17.1c3.5,5.9,11.1,7.9,17.1,4.4c17.7-10.5,40.7-4.6,51.2,13.1
		c3.5,5.9,11.1,7.9,17.1,4.4c5.9-3.5,7.9-11.1,4.4-17.1c-10.3-17.4-4-41.1,13.8-51.6c5.9-3.5,7.9-11.1,4.4-17.1
		C383.1,147.1,375.5,145.2,369.6,148.7z M340.7,186.9c-0.8,3-1.4,6.1-1.8,9.2c-5.5-2.3-11.4-3.8-17.3-4.5c2.3-5.5,3.8-11.4,4.4-17.3
		c2.9,1.2,5.8,2.1,8.9,2.8c2.9,0.7,5.7,1.2,8.6,1.5C342.4,181.3,341.4,184.1,340.7,186.9z"/>
	<path class="hc0" d="M358.4,359.8c-0.2-0.1-0.4-0.2-0.6-0.4l0,0c-25.1-16.5-46.7-39.1-62.3-65.4l-12.7-21.4
		c-10.5-17.7-33.5-23.6-51.2-13.1c-17.7,10.5-40.7,4.6-51.2-13.1L91,95.8C80.5,78,57.5,72.2,39.8,82.7
		c-17.7,10.5-23.6,33.5-13.1,51.2l89.4,150.7c10.5,17.7,4.6,40.7-13.1,51.2C85.3,346.3,79.5,369.2,90,387l12.7,21.4
		c14.9,25.1,34.6,47.2,57.5,64.7c0.3,0.1,0.6,0.2,0.9,0.4c9,5.5,18.2,10.6,27.7,15.1l192.4-114.2
		C373.1,370.7,365.4,365.2,358.4,359.8z M48.2,121.2c-3.5-5.9-1.5-13.6,4.4-17.1c5.9-3.5,13.6-1.5,17.1,4.4l83,140l-21.4,12.7
		L48.2,121.2z M111.4,374.3c-3.5-5.9-1.5-13.6,4.4-17.1c25.9-15.3,36.6-46.6,27.1-74l23.6-14c19.5,21.5,52,27.1,77.9,11.7
		c5.9-3.5,13.6-1.5,17.1,4.4l6.4,10.7l-150,89L111.4,374.3z M304.2,391.2c-11.4-7.5-22.9-17.1-33.5-28c-4.8-4.9-12.7-5-17.6-0.2
		c-4.9,4.8-5,12.7-0.2,17.6c8.8,9,18.3,17.3,27.8,24.5l-40.8,24.2c-11.4-7.5-22.9-17.1-33.5-28c-4.8-4.9-12.7-5-17.6-0.2
		c-4.9,4.8-5,12.7-0.2,17.6c8.8,9,18.3,17.3,27.8,24.5l-30.1,17.8c-21.7-14.3-40.7-33.1-55.6-54.9l149.9-88.9
		c14.5,21.7,32.7,40.8,53.5,56.1L304.2,391.2z"/>
</g>
</svg>
