<?xml version="1.0" encoding="utf-8"?>
<!-- Generator: Adobe Illustrator 21.1.0, SVG Export Plug-In . SVG Version: 6.00 Build 0)  -->
<svg version="1.1" id="Layer_1" xmlns="http://www.w3.org/2000/svg" xmlns:xlink="http://www.w3.org/1999/xlink" x="0px" y="0px"
	 viewBox="0 0 538.5 257.7" style="enable-background:new 0 0 538.5 257.7;" xml:space="preserve">
<style type="text/css">
	.st0{fill:#FCC192;}
	.st1{fill:none;}
	.st2{fill:#FFFFFF;}
</style>
<g>
	<g>
		<g>
			<path class="st0" d="M503.4,69.9c-11.1-12-26.8-18.6-44.3-18.6H417V28.5c0-5.5-4.5-10.1-10.1-10.1H206.2
				c-5.5,0-10.1,4.5-10.1,10.1v35H157c-5.5,0-10.1,4.5-10.1,10.1c0,5.5,4.5,10.1,10.1,10.1h48.9c0.1,0,0.2,0,0.3,0c0,0,0,0,0.1,0
				c5.5,0,10.1-4.5,10.1-10.1v-35H397v22.8v134.8h-94.7c-0.4,0-0.8,0-1.3,0.1c-5-12.4-17.2-21.2-31.3-21.2
				c-14.2,0-26.4,8.9-31.3,21.4c-0.8-0.2-1.4-0.3-2.2-0.3h-19.9V161c0-5.5-4.5-10.1-10.1-10.1c-0.2,0-0.3,0-0.5,0s-0.3,0-0.4,0H157
				c-5.5,0-10.1,4.5-10.1,10.1s4.5,10.1,10.1,10.1h39.1v35c0,5.5,4.5,10.1,10.1,10.1h29.9c0.3,0,0.4,0,0.7,0
				c3.4,15.1,16.8,26.3,32.9,26.3s29.5-11.2,32.9-26.3H407h16.1c3.4,15,16.8,26.3,32.9,26.3s29.5-11.2,32.9-26.3h22.4
				c5.5,0,10.1-4.5,10.1-10.1v-83.5C521.4,100.9,515.1,82.6,503.4,69.9z M269.7,222.4c-7.5,0-13.7-6.1-13.7-13.7
				c0-7.5,6.1-13.7,13.7-13.7c7.5,0,13.7,6.1,13.7,13.7C283.3,216.3,277.2,222.4,269.7,222.4z M456,222.4c-7.5,0-13.7-6.1-13.7-13.7
				c0-7.5,6.1-13.7,13.7-13.7c7.5,0,13.7,6.1,13.7,13.7C469.6,216.3,463.4,222.4,456,222.4z M501.3,196.1h-14.1
				c-5-12.3-17.2-21.1-31.2-21.1s-26.2,8.7-31.2,21.1h-7.7V71.4h42.1c26.4,0,42.1,19.2,42.1,51.3V196.1z"/>
			<path class="st0" d="M284.6,136.2c-3.9,3.9-3.9,10.3,0,14.2c1.9,1.9,4.5,2.9,7.1,2.9s5.1-1,7.1-2.9l25.9-25.9l0.1-0.1
				c0.2-0.3,0.4-0.4,0.6-0.7c0.1-0.2,0.2-0.3,0.3-0.4c0.1-0.2,0.2-0.3,0.3-0.4c0.1-0.2,0.2-0.3,0.3-0.5s0.2-0.3,0.3-0.4
				c0.1-0.2,0.2-0.3,0.3-0.5s0.2-0.3,0.2-0.4c0.1-0.2,0.1-0.3,0.2-0.5c0.1-0.2,0.1-0.3,0.2-0.4c0.1-0.2,0.1-0.3,0.1-0.5
				s0.1-0.3,0.1-0.5s0.1-0.3,0.1-0.6c0-0.2,0.1-0.3,0.1-0.4c0.1-0.7,0.1-1.3,0-2c0-0.2,0-0.3-0.1-0.4c0-0.2-0.1-0.3-0.1-0.6
				c0-0.2-0.1-0.3-0.1-0.5s-0.1-0.3-0.1-0.5c-0.1-0.2-0.1-0.3-0.2-0.4c-0.1-0.2-0.1-0.3-0.2-0.5c-0.1-0.2-0.2-0.3-0.2-0.4
				c-0.1-0.2-0.2-0.3-0.3-0.5s-0.2-0.3-0.3-0.4c-0.1-0.2-0.2-0.3-0.3-0.5s-0.2-0.3-0.3-0.4c-0.1-0.2-0.2-0.3-0.3-0.4
				c-0.2-0.3-0.4-0.4-0.6-0.7l-0.1-0.1l-24.6-24.6c-3.9-3.9-10.3-3.9-14.2,0s-3.9,10.3,0,14.2l7.5,7.5H122
				c-5.5,0-10.1,4.5-10.1,10.1c0,5.5,4.5,10.1,10.1,10.1h171.2L284.6,136.2z"/>
		</g>
	</g>
</g>
<g>
	<path class="st1" d="M170.5,130.1c0,3.1-2.6,5.7-5.7,5.7c-3.1,0-5.7-2.6-5.7-5.7v-27.6l-40.3,19.6v105.6l86.2-41.8V80.3L170.5,97
		V130.1z"/>
	<polygon class="st1" points="69.1,51.8 28.8,71.3 113.1,112.2 153.4,92.7 	"/>
	<polygon class="st1" points="197.4,71.3 113.1,30.4 82,45.5 166.3,86.4 	"/>
	<polygon class="st1" points="21.5,186 107.4,227.7 107.4,122.1 21.5,80.5 	"/>
	<path class="st2" d="M215.7,68.8c-0.8-1.6-2.2-2.7-3.8-3L115.6,19c-1.6-0.8-3.4-0.8-5,0L13.4,66.2c-1.9,0.9-3.1,2.8-3.2,4.9
		c0,0,0,0.1,0,0.2v118.3c0,2.2,1.2,4.2,3.2,5.1l97.2,47.1c0,0,0,0,0.1,0s0.3,0.1,0.4,0.2c0,0,0.1,0,0.2,0c0.1,0,0.3,0.1,0.4,0.1h0.1
		c0.1,0,0.3,0,0.5,0.1h0.1c0.2,0,0.4,0,0.6,0s0.4,0,0.6,0h0.1c0.1,0,0.3,0,0.5-0.1h0.1c0.1,0,0.3-0.1,0.4-0.1c0,0,0.1,0,0.2,0
		c0.1,0,0.3-0.1,0.4-0.2c0,0,0,0,0.1,0l97.5-47.3c1.9-0.9,3.2-2.9,3.2-5.1v-118c0,0,0,0,0,0v-1.4C216.1,69.5,215.9,69.2,215.7,68.8z
		 M113.1,30.4l84.3,40.9l-31.1,15.1L82,45.5L113.1,30.4z M107.4,227.7L21.5,186V80.5l85.9,41.6V227.7z M113.1,112.2L28.8,71.3
		l40.3-19.5l84.3,40.9L113.1,112.2z M205,185.9l-86.2,41.8V122.1l40.3-19.6v27.6c0,3.1,2.6,5.7,5.7,5.7c3.1,0,5.7-2.6,5.7-5.7V97
		L205,80.3V185.9z"/>
</g>
</svg>
