<?xml version="1.0" encoding="utf-8"?>
<!-- Generator: Adobe Illustrator 21.1.0, SVG Export Plug-In . SVG Version: 6.00 Build 0)  -->
<svg version="1.1" id="Layer_1" xmlns="http://www.w3.org/2000/svg" xmlns:xlink="http://www.w3.org/1999/xlink" x="0px" y="0px"
	 viewBox="0 0 726.3 360.1" style="enable-background:new 0 0 726.3 360.1;" xml:space="preserve">
<style type="text/css">
	.st0{fill:#FFFFFF;}
	.st1{fill:#FDD2AF;}
</style>
<g>
	<path class="st0" d="M58.7,95.5l-7.3,39H39.7l7.3-39L20.9,17.7h13l21,65.4L101,17.7h12.8L58.7,95.5z"/>
	<path class="st0" d="M134.1,136.6c-22.9,0-38.9-14.7-38.9-36c0-30,26.2-54.5,55-54.5c22,0,37,14.5,37,36
		C187.2,111.9,161.4,136.6,134.1,136.6z M148.1,56.8c-22.1,0-40.8,19.1-40.8,41.7c0,16.3,11.4,27.3,28.3,27.3
		c22,0,39.3-18.8,39.3-42.7C175,67.8,163.6,56.8,148.1,56.8z"/>
	<path class="st0" d="M270.9,134.5h-11.7l2.5-13.4c-8.4,11.1-17.2,15.5-31,15.5c-18.3,0-30.2-10.4-30.2-26.5
		c0-4.4,0.6-10.9,1.4-15.3l8.7-46.6h11.7l-8.7,46.6c-0.5,2.1-0.9,8.2-0.9,10.6c0,12.8,7,20.5,21.2,20.5c15,0,28.4-8.8,33-33.3
		l8.4-44.4H287L270.9,134.5z"/>
	<path class="st0" d="M399.2,134.5l8.5-46.5c0.5-3,1.1-8.7,1.1-11.4c0-11.7-9.2-19.9-22-19.9c-15.6,0-27.8,10.3-31.6,30.3l-8.8,47.4
		h-11.7l21.6-116.8h11.7l-7.7,41.6c7.7-8.5,18-13.3,29.2-13.3c19.9,0,31.4,10.7,31.4,29.1c0,4-0.2,5.1-1.6,13l-8.5,46.5H399.2z"/>
	<path class="st0" d="M507.4,134.5l2.8-15.2c-12.8,13-21.8,17.2-36.5,17.2c-23.2,0-38.7-14.5-38.7-36.2c0-29.2,25.3-54.4,54.7-54.4
		c13.9,0,24.2,4.4,30.8,17.4l2.8-15.3h11.7l-16,86.4H507.4z M488.6,56.8c-22,0-41.4,19.1-41.4,40.6c0,16.9,11.7,28.4,28.9,28.4
		c21,0,40-19.9,40-41.7C516.1,68.3,504.4,56.8,488.6,56.8z"/>
	<path class="st0" d="M579,134.5h-12.3l-20.4-86.4h11.9l16.9,72.7l44.4-72.7h11.9L579,134.5z"/>
	<path class="st0" d="M637.3,95.2c-0.2,1.9-0.3,3.3-0.3,4.4c0,14.7,12.5,26.2,28.3,26.2c13,0,27-8.2,33.8-19.8h12.2
		c-10.1,18.6-28.9,30.5-48,30.5c-21.5,0-37.4-15.6-37.4-36.8c0-28.4,25.3-53.7,53.7-53.7c22,0,37.4,14.9,37.4,36
		c0,3.8-0.3,6.8-1.4,13.1H637.3z M677.4,56.8c-16.4,0-32.1,11.5-37.8,27.8h66.2C705.1,67.5,694.2,56.8,677.4,56.8z"/>
	<path class="st1" d="M81.1,287.2c-2.4-7.7-8.7-12-17.9-12c-16.6,0-30.5,14.4-30.5,31.6c0,13,8.2,21.5,20.7,21.5
		c8.5,0,16.7-4.3,22.1-11.5h23.7c-11.2,19.8-28.8,30.8-49.1,30.8c-22.4,0-39-16-39-37.3c0-28.6,26.2-54.4,55.3-54.4
		c19.3,0,34.8,10.3,38.4,31.3H81.1z"/>
	<path class="st1" d="M163.6,345.5l8.2-44.7c0.9-5.1,1.4-9.5,1.4-12.8c0-8.2-5.1-13-13.7-13c-12,0-19.6,6.3-23.2,26.1l-8.2,44.4h-21
		l21.6-116.8h21l-6.5,35.2c6.6-5.5,14.5-8.2,23.5-8.2c17.4,0,28.6,10,28.6,25.3c0,4.3-0.5,9.3-1.6,15l-9.2,49.5H163.6z"/>
	<path class="st1" d="M243.6,347.6c-21.6,0-38.2-16-38.2-37c0-28.9,26.4-54.7,56.1-54.7c22.4,0,38.6,16,38.6,37.9
		C300,322.1,273.3,347.6,243.6,347.6z M257.8,275.2c-16.1,0-30.8,15.2-30.8,31.8c0,12.3,8.8,21.3,20.9,21.3
		c15.8,0,30.5-15.3,30.5-31.6C278.3,284.4,269.6,275.2,257.8,275.2z"/>
	<path class="st1" d="M328.9,347.6c-15.8,0-26.7-9.6-26.7-23.7c0-1.7,0.2-3.8,0.3-6.2h21.2c0.2,7,3.6,10.6,9.8,10.6
		c6,0,11.2-4.6,11.2-10.1c0-4.1-2.2-5.8-13-9.6c-15.3-5.4-19.9-10.4-19.9-21.5c0-16.7,16-31.1,34.8-31.1c13,0,24,9.3,24,20.2
		c0,1.6-0.2,3.6-0.5,6h-20.5c-0.2-4.6-2.5-7-7-7c-4.9,0-9.2,4.1-9.2,8.7c0,3.3,0,4.1,13,8.2c15,4.9,19.9,10,19.9,20.4
		C366.3,331,348.6,347.6,328.9,347.6z"/>
	<path class="st1" d="M398.1,311.1c0,10.1,8.5,17.2,20.5,17.2c8.8,0,15.3-2.7,21.3-8.7h22.9c-9.5,17.4-27.5,28-47.2,28
		c-23.4,0-39.7-15.3-39.7-37.3c0-28.6,26.4-54.4,55.6-54.4c22,0,37.4,14.7,37.4,35.6c0,7.6-1.1,14.7-3.2,19.6H398.1z M428.3,275.2
		c-12.2,0-23.2,7-27.3,17.2h48.5C448.8,281,441.7,275.2,428.3,275.2z"/>
	<path class="st1" d="M530.3,345.5l7.9-42.8c0.9-5.2,1.4-10,1.4-14.5c0-8.5-4.6-13-13.3-13c-11.1,0-19.8,4.7-24.2,29.1l-7.6,41.2
		h-21l16.3-87.5h19.4l-1.6,8.4c9.6-7.7,16.4-10.4,26.1-10.4c18,0,28.1,9.2,28.1,25.9c0,4.4-0.6,9.8-1.9,16.7l-8.7,46.9H530.3z"/>
</g>
</svg>
