<?xml version="1.0" encoding="utf-8"?>
<!-- Generator: Adobe Illustrator 21.1.0, SVG Export Plug-In . SVG Version: 6.00 Build 0)  -->
<svg version="1.1" id="Capa_1" xmlns="http://www.w3.org/2000/svg" xmlns:xlink="http://www.w3.org/1999/xlink" x="0px" y="0px"
	 viewBox="0 0 95.9 95.9" style="enable-background:new 0 0 95.9 95.9;" xml:space="preserve">
<style type="text/css">
	.st0{fill:#FDD2AF;}
</style>
<g>
	<path class="st0" d="M47.9,0C21.5,0,0.1,21.4,0.1,47.9S21.5,95.8,48,95.8s47.9-21.4,47.9-47.9S74.4,0,47.9,0z M47.9,87.5
		C26.1,87.5,8.4,69.8,8.4,48S26.1,8.4,47.9,8.4s39.5,17.7,39.5,39.5S69.8,87.5,47.9,87.5z"/>
	<path class="st0" d="M63.9,32.4L41.6,54.7L31.1,44.2c-1.7-1.7-4.2-1.7-5.9,0s-1.7,4.2,0,5.9l13.4,13.5c0.8,0.8,2.1,1.3,2.9,1.3
		s2.1-0.4,2.9-1.3l25.2-25.2c1.7-1.7,1.7-4.2,0-5.9C68.1,30.7,65.6,30.7,63.9,32.4z"/>
</g>
</svg>
