<?xml version="1.0" encoding="utf-8"?>
<!-- Generator: Adobe Illustrator 21.1.0, SVG Export Plug-In . SVG Version: 6.00 Build 0)  -->
<svg version="1.1" id="Capa_1" xmlns="http://www.w3.org/2000/svg" xmlns:xlink="http://www.w3.org/1999/xlink" x="0px" y="0px"
	 viewBox="0 0 241.1 241.1" style="enable-background:new 0 0 241.1 241.1;" xml:space="preserve">
<style type="text/css">
	.eml0{fill:#fcd2b2;}
</style>
<g>
	<path class="eml0" id="eml0" d="M198.6,70.4l-78.1,68.8L42.5,70.4c-3.1-2.7-7.8-2.4-10.6,0.7c-2.7,3.1-2.4,7.8,0.7,10.6l83,73.2
		c1.4,1.2,3.2,1.9,5,1.9s3.5-0.6,5-1.9l83-73.2c3.1-2.7,3.4-7.5,0.7-10.6C206.4,68,201.7,67.7,198.6,70.4z"/>
	<path class="eml0" id="eml1" d="M218.6,38.5H22.5C10.1,38.5,0,48.6,0,61v119c0,12.4,10.1,22.5,22.5,22.5h196.1c12.4,0,22.5-10.1,22.5-22.5V61
		C241.1,48.6,231,38.5,218.6,38.5z M226.1,180c0,4.1-3.4,7.5-7.5,7.5H22.5c-4.1,0-7.5-3.4-7.5-7.5V61c0-4.1,3.4-7.5,7.5-7.5h196.1
		c4.1,0,7.5,3.4,7.5,7.5V180z"/>
</g>
</svg> 
