<?xml version="1.0" encoding="utf-8"?>
<!-- Generator: Adobe Illustrator 21.1.0, SVG Export Plug-In . SVG Version: 6.00 Build 0)  -->
<svg version="1.1" id="Layer_1" xmlns="http://www.w3.org/2000/svg" xmlns:xlink="http://www.w3.org/1999/xlink" x="0px" y="0px"
	 viewBox="0 0 512 512" style="enable-background:new 0 0 512 512;" xml:space="preserve">
<style type="text/css">
	.st0{fill:#FDD2AF;}
</style>
<path class="st0" d="M401.7,442.7c6,9.2,3.5,21.6-5.8,27.7C354.4,497.6,306,512,256.1,512c0,0-0.1,0-0.1,0
	c-68.1,0-132.1-26.2-180.3-73.9C27.6,390.4,0.7,326.6,0,258.5C-0.6,190,25.5,125.3,73.5,76.5C121.6,27.6,185.8,0.5,254.3,0
	c0.6,0,1.1,0,1.7,0c53.5,0,104.8,16.5,148.6,47.9c43.3,31,75.5,73.7,93.2,123.4c3.7,10.4-1.7,21.8-12.1,25.6
	c-10.4,3.7-21.8-1.7-25.6-12.1C429.3,98,347.3,40,256,40c-0.5,0-0.9,0-1.4,0c-57.8,0.4-112,23.3-152.5,64.5
	c-40.5,41.2-62.6,95.8-62,153.6C41.1,376.1,138,472,256,472h0.1c42.1,0,82.9-12.1,118-35.1C383.3,430.9,395.7,433.5,401.7,442.7z
	 M512,277c0,50.2-40.8,91-91,91c-32.1,0-60.3-16.7-76.5-41.8C323.8,352.3,291.8,369,256,369c-62.3,0-113-50.7-113-113
	s50.7-113,113-113c28.3,0,54.2,10.4,74,27.7v-3.5c0-11,9-20,20-20s20,9,20,20V277c0,28.1,22.9,51,51,51s51-22.9,51-51
	c0-11,9-20,20-20S512,266,512,277z M329,256c0-40.2-32.7-73-73-73c-40.2,0-73,32.8-73,73c0,40.3,32.8,73,73,73
	C296.3,329,329,296.3,329,256z"/>
</svg>
