<?xml version="1.0" encoding="utf-8"?>
<!-- Generator: Adobe Illustrator 21.1.0, SVG Export Plug-In . SVG Version: 6.00 Build 0)  -->
<svg version="1.1" id="Layer_1" xmlns="http://www.w3.org/2000/svg" xmlns:xlink="http://www.w3.org/1999/xlink" x="0px" y="0px"
	 viewBox="0 0 655.1 527.5" style="enable-background:new 0 0 655.1 527.5;" xml:space="preserve">
<style type="text/css">
	.st10{display:none;}
	.st20{display:inline;}
	.st30{display:none;fill:#FFFFFF;}
	.st40{display:inline;fill:#FFFFFF;}
	.st50{fill:#FFFFFF;}
</style>
<path class="st00" id="facebook" fill="#EC517D" d="M573.8,32.5l-394.2-0.4c-43.2,0-84.3,29.3-91.3,65.3L22.7,436.6c-6.7,34.6,20.1,63.3,60.4,65.9l404.1,0.2
	c42.9-0.6,83.2-30.1,89.8-66l63-338.8C646.8,61.9,616.9,32.5,573.8,32.5z"/>

<path class="st30" d="M550.7,477.7l-403.4-0.1c-44.3,0-74.6-29.8-67.5-66.1l66.6-339.1c7.1-36,48.8-65.4,92.8-65.3l400.9,0.4
	c43.9,0,74.3,29.5,67.5,65.4l-64.1,338.8C636.7,448,594.9,477.7,550.7,477.7z"/>
<path class="st10" d="M290.2,502.4"/>
<path class="st30" d="M412.2,174c10.3,0,32.1,0,52.2,0c0-10.6,0-47.2,0-81c-26.9,0-57.5,0-71,0c-100.5,0-98.2,77.9-98.2,89.5
	c0,11.7,0,63.7,0,63.7h-46.6V324h46.6v178.7h95.8V324h64.3c0,0,6-37.3,8.9-78.1c-8.4,0-72.9,0-72.9,0s0-45.3,0-53.2
	C391.4,184.7,401.9,174,412.2,174z"/>
<path class="st50" d="M379.9,249v-55.2c0-16.9,17.5-20.9,25.7-20.9c8.1,0,48.9,0,48.9,0V98.5l-56-0.3c-76.4,0-93.8,55.5-93.8,91.2
	V249h-55.4v76.7h55.4c0,66.5,0,137.7,0,176.9l75.3,0c0-39.4,0-111,0-176.9h64l11.7-76.7H379.9z"/>
</svg>
