<?xml version="1.0" encoding="utf-8"?>
<!-- Generator: Adobe Illustrator 21.1.0, SVG Export Plug-In . SVG Version: 6.00 Build 0)  -->
<svg version="1.1" id="Layer_1" xmlns="http://www.w3.org/2000/svg" xmlns:xlink="http://www.w3.org/1999/xlink" x="0px" y="0px"
	 viewBox="0 0 1018.3 595.8" style="enable-background:new 0 0 1018.3 595.8;" xml:space="preserve">
<style type="text/css">
	.hhrm0{fill:#f69e9c;}
</style>
<g>
	<path class="hhrm0" d="M847.6,303.3l-54.2-173.4c-2.3-7.2-9.2-12.1-17-12.1H469.5c-7.7,0-14.6,4.8-16.9,11.8l-58.7,174.2
		c-1.7,5.2-0.8,10.8,2.6,15.2c3.3,4.4,8.7,7,14.4,7h13.3v158.9c0,37.5,31.9,68,71.2,68h88.9c9.8,0,17.8-7.6,17.8-17v-74h37.4v74
		c0,9.4,8,17,17.8,17h88.9c39.2,0,71.2-30.5,71.2-68c0-9.4-8-17-17.8-17s-17.8,7.6-17.8,17c0,18.7-16,34-35.6,34H675v-74
		c0-9.4-8-17-17.8-17h-72.9c-9.8,0-17.8,7.6-17.8,17v74h-71.2c-19.6,0-35.6-15.3-35.6-34V326h57.8c5,0,9.7-2,13.1-5.5l90.1-93.6
		l89.2,92.5c3.4,3.5,8.1,5.5,13,5.5l58.8,0.2V400c0,9.4,8,17,17.8,17s17.8-7.6,17.8-17v-74.8h13.3l0,0c5.6,0,10.9-2.5,14.3-6.8
		C848.2,314,849.2,308.4,847.6,303.3z M634.6,191.2c-3.4-3.5-8.1-5.5-13.1-5.5h-1.8c-5,0-9.7,2-13.1,5.5l-97,100.8h-74.5l47.2-140.2
		h280.6l43.6,139.3l-75.9-0.2L634.6,191.2z M619.8,285.2c9.8,0,17.8,7.6,17.8,17s-8,17-17.8,17s-17.8-7.6-17.8-17
		S610,285.2,619.8,285.2z M530.8,436.5v17c0,4.7-4,8.5-8.9,8.5h-17.8c-4.9,0-8.9-3.8-8.9-8.5v-17c0-4.7,4-8.5,8.9-8.5h17.8
		C526.9,428,530.8,431.8,530.8,436.5z M530.8,385.5c0,4.7-4,8.5-8.9,8.5h-17.8c-4.9,0-8.9-3.8-8.9-8.5v-17c0-4.7,4-8.5,8.9-8.5h17.8
		c4.9,0,8.9,3.8,8.9,8.5V385.5z M593.1,360c4.9,0,8.9,3.8,8.9,8.5v17c0,4.7-4,8.5-8.9,8.5h-17.8c-4.9,0-8.9-3.8-8.9-8.5v-17
		c0-4.7,4-8.5,8.9-8.5H593.1z M745.2,436.5v17c0,4.7-4,8.5-8.9,8.5h-17.8c-4.9,0-8.9-3.8-8.9-8.5v-17c0-4.7,4-8.5,8.9-8.5h17.8
		C741.2,428,745.2,431.8,745.2,436.5z M665.1,360c4.9,0,8.9,3.8,8.9,8.5v17c0,4.7-4,8.5-8.9,8.5h-17.8c-4.9,0-8.9-3.8-8.9-8.5v-17
		c0-4.7,4-8.5,8.9-8.5H665.1z M745.2,385.5c0,4.7-4,8.5-8.9,8.5h-17.8c-4.9,0-8.9-3.8-8.9-8.5v-17c0-4.7,4-8.5,8.9-8.5h17.8
		c4.9,0,8.9,3.8,8.9,8.5V385.5z"/>
</g>
<g>
	<path class="hhrm0" d="M178.4,257.3c17.7-10.5,40.7-4.6,51.2,13.1c3.5,5.9,11.1,7.9,17.1,4.4c5.9-3.5,7.9-11.1,4.4-17.1
		c-10.5-17.7-4.6-40.7,13.1-51.2c5.9-3.5,7.9-11.1,4.4-17.1c-3.5-5.9-11.1-7.9-17.1-4.4c-17.7,10.5-40.7,4.6-51.2-13.1
		c-3.5-5.9-11.1-7.9-17.1-4.4c-5.9,3.5-7.9,11.1-4.4,17.1c10.5,17.7,4.6,40.7-13.1,51.2c-5.9,3.5-7.9,11.1-4.4,17.1
		C164.8,258.9,172.4,260.8,178.4,257.3z M208.5,210.4c5.5,2.3,11.2,3.7,17.1,4.4c-2.3,5.5-3.7,11.2-4.4,17.1
		c-5.5-2.3-11.2-3.7-17.1-4.4C206.4,222.1,207.8,216.3,208.5,210.4z"/>
	<path class="hhrm0" d="M367.2,232.2c-17.8,10.6-41.6,4.8-51.9-12.6c-3.5-5.9-11.1-7.9-17.1-4.4c-5.9,3.5-7.9,11.1-4.4,17.1
		c10.5,17.7,4.6,40.7-13.1,51.2c-5.9,3.5-7.9,11.1-4.4,17.1c3.5,5.9,11.1,7.9,17.1,4.4c17.7-10.5,40.7-4.6,51.2,13.1
		c3.5,5.9,11.1,7.9,17.1,4.4c5.9-3.5,7.9-11.1,4.4-17.1c-10.3-17.4-4-41.1,13.8-51.6c5.9-3.5,7.9-11.1,4.4-17.1
		C380.7,230.6,373.1,228.7,367.2,232.2z M338.3,270.4c-0.8,3-1.4,6.1-1.8,9.2c-5.5-2.3-11.4-3.8-17.3-4.5c2.3-5.5,3.8-11.4,4.4-17.3
		c2.9,1.2,5.8,2.1,8.9,2.8c2.9,0.7,5.7,1.2,8.6,1.5C340,264.8,339,267.6,338.3,270.4z"/>
	<path class="hhrm0" d="M356,443.3c-0.2-0.1-0.4-0.2-0.6-0.4l0,0c-25.1-16.5-46.7-39.1-62.3-65.4l-12.7-21.4
		c-10.5-17.7-33.5-23.6-51.2-13.1s-40.7,4.6-51.2-13.1L88.6,179.3c-10.5-17.8-33.5-23.6-51.2-13.1s-23.6,33.5-13.1,51.2l89.4,150.7
		c10.5,17.7,4.6,40.7-13.1,51.2s-23.5,33.4-13,51.2l12.7,21.4c14.9,25.1,34.6,47.2,57.5,64.7c0.3,0.1,0.6,0.2,0.9,0.4
		c9,5.5,18.2,10.6,27.7,15.1l192.4-114.2C370.7,454.2,363,448.7,356,443.3z M45.8,204.7c-3.5-5.9-1.5-13.6,4.4-17.1
		s13.6-1.5,17.1,4.4l83,140l-21.4,12.7L45.8,204.7z M109,457.8c-3.5-5.9-1.5-13.6,4.4-17.1c25.9-15.3,36.6-46.6,27.1-74l23.6-14
		c19.5,21.5,52,27.1,77.9,11.7c5.9-3.5,13.6-1.5,17.1,4.4l6.4,10.7l-150,89L109,457.8z M301.8,474.7c-11.4-7.5-22.9-17.1-33.5-28
		c-4.8-4.9-12.7-5-17.6-0.2s-5,12.7-0.2,17.6c8.8,9,18.3,17.3,27.8,24.5l-40.8,24.2c-11.4-7.5-22.9-17.1-33.5-28
		c-4.8-4.9-12.7-5-17.6-0.2c-4.9,4.8-5,12.7-0.2,17.6c8.8,9,18.3,17.3,27.8,24.5l-30.1,17.8c-21.7-14.3-40.7-33.1-55.6-54.9
		l149.9-88.9c14.5,21.7,32.7,40.8,53.5,56.1L301.8,474.7z"/>
</g>
</svg>
