<svg version="1.1" id="el_bIJZZxd0Q" xmlns="http://www.w3.org/2000/svg" xmlns:xlink="http://www.w3.org/1999/xlink" x="0px" y="0px" viewBox="0 0 1554 697" style="enable-background:new 0 0 1554 697.7;" xml:space="preserve">
	<style>
		@-webkit-keyframes kf_el_ftzYp3soCL_an_WnCHpMINt{0%{opacity: 0;}23.33%{opacity: 1;}100%{opacity: 1;}}@keyframes kf_el_ftzYp3soCL_an_WnCHpMINt{0%{opacity: 0;}23.33%{opacity: 1;}100%{opacity: 1;}}@-webkit-keyframes kf_el_ftzYp3soCL_an_uiDqkZG9b{0%{-webkit-transform: translate(603.2999877929688px, 263.05010986328125px) translate(-603.2999877929688px, -263.05010986328125px) translate(-340px, 0px);transform: translate(603.2999877929688px, 263.05010986328125px) translate(-603.2999877929688px, -263.05010986328125px) translate(-340px, 0px);}33.33%{-webkit-transform: translate(603.2999877929688px, 263.05010986328125px) translate(-603.2999877929688px, -263.05010986328125px) translate(0px, 0px);transform: translate(603.2999877929688px, 263.05010986328125px) translate(-603.2999877929688px, -263.05010986328125px) translate(0px, 0px);}100%{-webkit-transform: translate(603.2999877929688px, 263.05010986328125px) translate(-603.2999877929688px, -263.05010986328125px) translate(0px, 0px);transform: translate(603.2999877929688px, 263.05010986328125px) translate(-603.2999877929688px, -263.05010986328125px) translate(0px, 0px);}}@keyframes kf_el_ftzYp3soCL_an_uiDqkZG9b{0%{-webkit-transform: translate(603.2999877929688px, 263.05010986328125px) translate(-603.2999877929688px, -263.05010986328125px) translate(-340px, 0px);transform: translate(603.2999877929688px, 263.05010986328125px) translate(-603.2999877929688px, -263.05010986328125px) translate(-340px, 0px);}33.33%{-webkit-transform: translate(603.2999877929688px, 263.05010986328125px) translate(-603.2999877929688px, -263.05010986328125px) translate(0px, 0px);transform: translate(603.2999877929688px, 263.05010986328125px) translate(-603.2999877929688px, -263.05010986328125px) translate(0px, 0px);}100%{-webkit-transform: translate(603.2999877929688px, 263.05010986328125px) translate(-603.2999877929688px, -263.05010986328125px) translate(0px, 0px);transform: translate(603.2999877929688px, 263.05010986328125px) translate(-603.2999877929688px, -263.05010986328125px) translate(0px, 0px);}}@-webkit-keyframes kf_el_o_vfFHywmc_an_sKaiwB30B{0%{opacity: 0;}30%{opacity: 0;}33.33%{opacity: 1;}100%{opacity: 1;}}@keyframes kf_el_o_vfFHywmc_an_sKaiwB30B{0%{opacity: 0;}30%{opacity: 0;}33.33%{opacity: 1;}100%{opacity: 1;}}#el_bIJZZxd0Q *{-webkit-animation-duration: 1s;animation-duration: 1s;-webkit-animation-iteration-count: 1;animation-iteration-count: 1;-webkit-animation-timing-function: cubic-bezier(0, 0, 1, 1);animation-timing-function: cubic-bezier(0, 0, 1, 1);}#el_4GvjvI2GqA{fill: #FDD2AF;}#el_xox_JTYRzA{fill: #FDD2AF;}#el_MAacuKfQEb{fill: #FDD2AF;}#el_o_vfFHywmc{fill: #FFFFFF;-webkit-animation-fill-mode: backwards;animation-fill-mode: backwards;opacity: 0;-webkit-animation-name: kf_el_o_vfFHywmc_an_sKaiwB30B;animation-name: kf_el_o_vfFHywmc_an_sKaiwB30B;-webkit-animation-timing-function: cubic-bezier(0, 0, 1, 1);animation-timing-function: cubic-bezier(0, 0, 1, 1);}#el_ftzYp3soCL{fill: #FFFFFF;stroke-linecap: butt;stroke-linejoin: round;-webkit-animation-fill-mode: backwards;animation-fill-mode: backwards;opacity: 0;-webkit-animation-name: kf_el_ftzYp3soCL_an_WnCHpMINt;animation-name: kf_el_ftzYp3soCL_an_WnCHpMINt;-webkit-animation-timing-function: cubic-bezier(0, 0, 1, 1);animation-timing-function: cubic-bezier(0, 0, 1, 1);}#el_nMFimI1mx1{fill: #FFFFFF;}#el_ftzYp3soCL_an_uiDqkZG9b{-webkit-animation-fill-mode: backwards;animation-fill-mode: backwards;-webkit-transform: translate(603.2999877929688px, 263.05010986328125px) translate(-603.2999877929688px, -263.05010986328125px) translate(-340px, 0px);transform: translate(603.2999877929688px, 263.05010986328125px) translate(-603.2999877929688px, -263.05010986328125px) translate(-340px, 0px);-webkit-animation-name: kf_el_ftzYp3soCL_an_uiDqkZG9b;animation-name: kf_el_ftzYp3soCL_an_uiDqkZG9b;-webkit-animation-timing-function: cubic-bezier(0, 0, 1, 1);animation-timing-function: cubic-bezier(0, 0, 1, 1);}#el_nMFimI1mx1_an_Cx9h9vjM0{-webkit-transform: translate(192.20005798339844px, 135.87498474121094px) rotate(10800deg) translate(-192.20005798339844px, -135.87498474121094px);transform: translate(192.20005798339844px, 135.87498474121094px) rotate(10800deg) translate(-192.20005798339844px, -135.87498474121094px);}
	</style>
	<g id="el_cazUtSiFJQ">
		<path d="M1327.2,383.3l-102.5-159.4c-2.1-3.3-5.7-5.2-9.6-5.2h-113.9v-68.3c0-6.3-5.1-11.4-11.4-11.4H657.1&#10;&#9;&#9;c-6.3,0-11.4,5.1-11.4,11.4v50.6H533.9l53.5,26h58.2h17.9h5.4c3.3,0,6-2.7,6-6v-9.7c0,0,0,0,0,0v-46.9h396.4v20.2H691.2v22.8h380.2&#10;&#9;&#9;v250.5H884.8v22.8h186.6v17.3H875.2c-6.6-32.2-35.2-56.5-69.4-56.5s-62.8,24.3-69.4,56.5h-61.3v-17.3h27.7h16c3.3,0,6-2.7,6-6&#10;&#9;&#9;v-14.1c0-3.3-2.7-6-6-6h-16h-99.5l0,22.6c0,1.2-0.3,2.4-0.7,3.6h10.3h32.8v34.1c0,6.3,5.1,11.4,11.4,11.4h79.2&#10;&#9;&#9;c6.5,32.4,35.2,56.9,69.5,56.9c34.3,0,63-24.5,69.5-56.9h214.6c0,0,0,0,0,0h30.4c6.5,32.4,35.2,56.9,69.5,56.9&#10;&#9;&#9;c34.3,0,63-24.5,69.5-56.9h58.3c6.3,0,11.4-5.1,11.4-11.4V389.4C1329,387.2,1328.4,385.1,1327.2,383.3z M806.2,556.7&#10;&#9;&#9;c-24.3,0-44.1-19.8-44.1-44.1c0-24.3,19.8-44.1,44.1-44.1c24.3,0,44.1,19.8,44.1,44.1C850.4,536.9,830.6,556.7,806.2,556.7z&#10;&#9;&#9; M1232,286.9l52.3,79.7h-137.5v-79.7H1232z M1190.2,556.7c-24.3,0-44.1-19.8-44.1-44.1c0-24.3,19.8-44.1,44.1-44.1&#10;&#9;&#9;c24.3,0,44.1,19.8,44.1,44.1C1234.4,536.9,1214.6,556.7,1190.2,556.7z M1299.2,456.7h-33.9v22.8h33.9v18.2h-40&#10;&#9;&#9;c-6.7-32.2-35.2-56.5-69.4-56.5c-34.1,0-62.7,24.3-69.4,56.5h-19.2V241.4h101l14.9,22.8h-81.7c-6.3,0-11.4,5.1-11.4,11.4V378&#10;&#9;&#9;c0,6.3,5.1,11.4,11.4,11.4h163.8V456.7z" id="el_4GvjvI2GqA" />
		<rect x="792.7" y="499.8" width="26.8" height="26.3" id="el_xox_JTYRzA" />
		<rect x="1177.7" y="499.8" width="26.8" height="26.3" id="el_MAacuKfQEb" />
	</g>
	<polygon points="1495.7,419.9 1358.9,448.5 1358.9,480.2 1495.7,509.1 " id="el_o_vfFHywmc" />
	<g id="el_ftzYp3soCL_an_uiDqkZG9b" data-animator-group="true" data-animator-type="0">
		<path d="M938.6,330.2c0-0.3,0-0.5-0.2-0.8c0-0.3-0.2-0.7-0.2-1.2c0-0.3-0.2-0.7-0.2-1s-0.2-0.7-0.2-1&#10;&#9;c-0.2-0.3-0.2-0.7-0.3-0.8c-0.2-0.3-0.2-0.7-0.3-1s-0.3-0.5-0.3-0.8c-0.2-0.3-0.3-0.7-0.5-1c-0.2-0.3-0.3-0.5-0.5-0.8&#10;&#9;s-0.3-0.7-0.5-1c-0.2-0.3-0.3-0.5-0.7-0.8c-0.2-0.3-0.3-0.5-0.5-0.8c-0.3-0.5-0.8-0.8-1.2-1.3l-0.2-0.2l-48.8-48.8&#10;&#9;c-7.8-7.8-20.5-7.8-28.2,0c-7.8,7.8-7.8,20.5,0,28.2l14.8,14.8h-96.4H609.6h-6.3l0,39.9h6.2h168h92.8l-17.2,18.2&#10;&#9;c-7.8,7.8-7.8,20.5,0,28.2c3.8,3.8,8.9,5.8,14.2,5.8c5.2,0,10.1-2,14.2-5.8l51.3-51.3l0.2-0.2c0.3-0.5,0.8-0.8,1.2-1.3&#10;&#9;c0.2-0.3,0.3-0.5,0.5-0.8c0.2-0.3,0.3-0.5,0.7-0.8c0.2-0.3,0.3-0.7,0.5-1s0.3-0.5,0.5-0.8c0.2-0.3,0.3-0.7,0.5-1&#10;&#9;c0.2-0.3,0.3-0.5,0.3-0.8c0.2-0.3,0.2-0.7,0.3-1s0.2-0.7,0.3-0.8c0.2-0.3,0.2-0.7,0.2-1s0.2-0.7,0.2-1s0.2-0.7,0.2-1.2&#10;&#9;c0-0.3,0.2-0.5,0.2-0.8C938.8,332.9,938.8,331.6,938.6,330.2z" id="el_ftzYp3soCL" />
	</g>
	<path d="M603.3,454.3l0.1-102.7l0-39.9l0-70.2c-0.2-0.1-0.1-0.2-0.2-0.3c0-1.7-0.3-3.4-1.1-5c-1.5-3.2-4.4-5.3-7.6-6&#10;&#9;l-7.1-3.4l-53.5-26l-131.3-63.8c-3.1-1.5-6.8-1.5-9.9,0l-193.9,93.8c-3.8,1.7-6.2,5.6-6.4,9.8l0,0.1c0,0.1,0,0.2,0,0.4l-0.2,235.6&#10;&#9;c0,4.4,2.4,8.3,6.4,10.2l193.7,94.1c0.1,0,0.1,0,0.2,0.1c0.3,0.1,0.6,0.2,0.8,0.4c0.1,0,0.2,0.1,0.4,0.1c0.3,0.1,0.6,0.2,0.9,0.3&#10;&#9;c0.1,0,0.2,0.1,0.3,0.1c0.3,0.1,0.6,0.1,0.9,0.2c0.1,0,0.2,0,0.3,0c0.4,0,0.9,0.1,1.2,0c0.4,0,0.9,0,1.2-0.1c0.1,0,0.2,0,0.3,0&#10;&#9;c0.3,0,0.6-0.1,1-0.2c0.1,0,0.2-0.1,0.3-0.1c0.3-0.1,0.5-0.2,0.8-0.3c0.1,0,0.2-0.1,0.4,0c0.3-0.1,0.5-0.2,0.9-0.4&#10;&#9;c0.1,0,0.1,0,0.2-0.1l194.5-94.1c2.8-1.4,4.8-3.8,5.8-6.6c0.4-1.1,0.7-2.3,0.7-3.6L603.3,454.3z M397.6,159.8l168.1,81.6l-62,30&#10;&#9;l-168.1-81.6L397.6,159.8z M386,552.9l-171.1-83.1l0.1-210.4l171.1,83.1L386,552.9z M397.5,322.8l-168.1-81.6l80.3-38.8l168.1,81.6&#10;&#9;L397.5,322.8z M408.8,342.5l80.4-38.9l0,55c0,6.2,5.1,11.3,11.3,11.3c6.2,0,11.3-5.1,11.3-11.3l0-66l68.8-33.3l-0.1,195.1l0,15.3&#10;&#9;l-4.6,2.2l-167.2,80.9L408.8,342.5z" id="el_nMFimI1mx1" />
</svg>
