<svg version="1.1" id="el_-8zHbSXZA" xmlns="http://www.w3.org/2000/svg" xmlns:xlink="http://www.w3.org/1999/xlink" x="0px" y="0px" viewBox="0 0 1303 447" style="enable-background:new 0 0 1303.5 447.3;" xml:space="preserve">
	<style>
		@-webkit-keyframes kf_el_es07p3Xrla_an_Hhqq1EZTT{0%{opacity: 0;}27.78%{opacity: 0;}31.11%{opacity: 1;}100%{opacity: 1;}}@keyframes kf_el_es07p3Xrla_an_Hhqq1EZTT{0%{opacity: 0;}27.78%{opacity: 0;}31.11%{opacity: 1;}100%{opacity: 1;}}@-webkit-keyframes kf_el_0_Vk-mx4m4_an_53MfJS_ii{0%{-webkit-transform: translate(411.1000061035156px, 127.14999389648438px) translate(-411.1000061035156px, -127.14999389648438px) translate(-170px, 0px);transform: translate(411.1000061035156px, 127.14999389648438px) translate(-411.1000061035156px, -127.14999389648438px) translate(-170px, 0px);}5.56%{-webkit-transform: translate(411.1000061035156px, 127.14999389648438px) translate(-411.1000061035156px, -127.14999389648438px) translate(-55px, 0px);transform: translate(411.1000061035156px, 127.14999389648438px) translate(-411.1000061035156px, -127.14999389648438px) translate(-55px, 0px);}11.11%{-webkit-transform: translate(411.1000061035156px, 127.14999389648438px) translate(-411.1000061035156px, -127.14999389648438px) translate(-170px, 0px);transform: translate(411.1000061035156px, 127.14999389648438px) translate(-411.1000061035156px, -127.14999389648438px) translate(-170px, 0px);}16.67%{-webkit-transform: translate(411.1000061035156px, 127.14999389648438px) translate(-411.1000061035156px, -127.14999389648438px) translate(-55px, 0px);transform: translate(411.1000061035156px, 127.14999389648438px) translate(-411.1000061035156px, -127.14999389648438px) translate(-55px, 0px);}22.22%{-webkit-transform: translate(411.1000061035156px, 127.14999389648438px) translate(-411.1000061035156px, -127.14999389648438px) translate(-170px, 0px);transform: translate(411.1000061035156px, 127.14999389648438px) translate(-411.1000061035156px, -127.14999389648438px) translate(-170px, 0px);}27.78%{-webkit-transform: translate(411.1000061035156px, 127.14999389648438px) translate(-411.1000061035156px, -127.14999389648438px) translate(-55px, 0px);transform: translate(411.1000061035156px, 127.14999389648438px) translate(-411.1000061035156px, -127.14999389648438px) translate(-55px, 0px);}33.33%{-webkit-transform: translate(411.1000061035156px, 127.14999389648438px) translate(-411.1000061035156px, -127.14999389648438px) translate(-170px, 0px);transform: translate(411.1000061035156px, 127.14999389648438px) translate(-411.1000061035156px, -127.14999389648438px) translate(-170px, 0px);}38.89%{-webkit-transform: translate(411.1000061035156px, 127.14999389648438px) translate(-411.1000061035156px, -127.14999389648438px) translate(-55px, 0px);transform: translate(411.1000061035156px, 127.14999389648438px) translate(-411.1000061035156px, -127.14999389648438px) translate(-55px, 0px);}44.44%{-webkit-transform: translate(411.1000061035156px, 127.14999389648438px) translate(-411.1000061035156px, -127.14999389648438px) translate(-170px, 0px);transform: translate(411.1000061035156px, 127.14999389648438px) translate(-411.1000061035156px, -127.14999389648438px) translate(-170px, 0px);}50%{-webkit-transform: translate(411.1000061035156px, 127.14999389648438px) translate(-411.1000061035156px, -127.14999389648438px) translate(-55px, 0px);transform: translate(411.1000061035156px, 127.14999389648438px) translate(-411.1000061035156px, -127.14999389648438px) translate(-55px, 0px);}55.56%{-webkit-transform: translate(411.1000061035156px, 127.14999389648438px) translate(-411.1000061035156px, -127.14999389648438px) translate(-170px, 0px);transform: translate(411.1000061035156px, 127.14999389648438px) translate(-411.1000061035156px, -127.14999389648438px) translate(-170px, 0px);}61.11%{-webkit-transform: translate(411.1000061035156px, 127.14999389648438px) translate(-411.1000061035156px, -127.14999389648438px) translate(-55px, 0px);transform: translate(411.1000061035156px, 127.14999389648438px) translate(-411.1000061035156px, -127.14999389648438px) translate(-55px, 0px);}66.67%{-webkit-transform: translate(411.1000061035156px, 127.14999389648438px) translate(-411.1000061035156px, -127.14999389648438px) translate(-170px, 0px);transform: translate(411.1000061035156px, 127.14999389648438px) translate(-411.1000061035156px, -127.14999389648438px) translate(-170px, 0px);}72.22%{-webkit-transform: translate(411.1000061035156px, 127.14999389648438px) translate(-411.1000061035156px, -127.14999389648438px) translate(-55px, 0px);transform: translate(411.1000061035156px, 127.14999389648438px) translate(-411.1000061035156px, -127.14999389648438px) translate(-55px, 0px);}77.78%{-webkit-transform: translate(411.1000061035156px, 127.14999389648438px) translate(-411.1000061035156px, -127.14999389648438px) translate(-170px, 0px);transform: translate(411.1000061035156px, 127.14999389648438px) translate(-411.1000061035156px, -127.14999389648438px) translate(-170px, 0px);}83.33%{-webkit-transform: translate(411.1000061035156px, 127.14999389648438px) translate(-411.1000061035156px, -127.14999389648438px) translate(-55px, 0px);transform: translate(411.1000061035156px, 127.14999389648438px) translate(-411.1000061035156px, -127.14999389648438px) translate(-55px, 0px);}88.89%{-webkit-transform: translate(411.1000061035156px, 127.14999389648438px) translate(-411.1000061035156px, -127.14999389648438px) translate(-170px, 0px);transform: translate(411.1000061035156px, 127.14999389648438px) translate(-411.1000061035156px, -127.14999389648438px) translate(-170px, 0px);}94.44%{-webkit-transform: translate(411.1000061035156px, 127.14999389648438px) translate(-411.1000061035156px, -127.14999389648438px) translate(-55px, 0px);transform: translate(411.1000061035156px, 127.14999389648438px) translate(-411.1000061035156px, -127.14999389648438px) translate(-55px, 0px);}100%{-webkit-transform: translate(411.1000061035156px, 127.14999389648438px) translate(-411.1000061035156px, -127.14999389648438px) translate(-170px, 0px);transform: translate(411.1000061035156px, 127.14999389648438px) translate(-411.1000061035156px, -127.14999389648438px) translate(-170px, 0px);}}@keyframes kf_el_0_Vk-mx4m4_an_53MfJS_ii{0%{-webkit-transform: translate(411.1000061035156px, 127.14999389648438px) translate(-411.1000061035156px, -127.14999389648438px) translate(-170px, 0px);transform: translate(411.1000061035156px, 127.14999389648438px) translate(-411.1000061035156px, -127.14999389648438px) translate(-170px, 0px);}5.56%{-webkit-transform: translate(411.1000061035156px, 127.14999389648438px) translate(-411.1000061035156px, -127.14999389648438px) translate(-55px, 0px);transform: translate(411.1000061035156px, 127.14999389648438px) translate(-411.1000061035156px, -127.14999389648438px) translate(-55px, 0px);}11.11%{-webkit-transform: translate(411.1000061035156px, 127.14999389648438px) translate(-411.1000061035156px, -127.14999389648438px) translate(-170px, 0px);transform: translate(411.1000061035156px, 127.14999389648438px) translate(-411.1000061035156px, -127.14999389648438px) translate(-170px, 0px);}16.67%{-webkit-transform: translate(411.1000061035156px, 127.14999389648438px) translate(-411.1000061035156px, -127.14999389648438px) translate(-55px, 0px);transform: translate(411.1000061035156px, 127.14999389648438px) translate(-411.1000061035156px, -127.14999389648438px) translate(-55px, 0px);}22.22%{-webkit-transform: translate(411.1000061035156px, 127.14999389648438px) translate(-411.1000061035156px, -127.14999389648438px) translate(-170px, 0px);transform: translate(411.1000061035156px, 127.14999389648438px) translate(-411.1000061035156px, -127.14999389648438px) translate(-170px, 0px);}27.78%{-webkit-transform: translate(411.1000061035156px, 127.14999389648438px) translate(-411.1000061035156px, -127.14999389648438px) translate(-55px, 0px);transform: translate(411.1000061035156px, 127.14999389648438px) translate(-411.1000061035156px, -127.14999389648438px) translate(-55px, 0px);}33.33%{-webkit-transform: translate(411.1000061035156px, 127.14999389648438px) translate(-411.1000061035156px, -127.14999389648438px) translate(-170px, 0px);transform: translate(411.1000061035156px, 127.14999389648438px) translate(-411.1000061035156px, -127.14999389648438px) translate(-170px, 0px);}38.89%{-webkit-transform: translate(411.1000061035156px, 127.14999389648438px) translate(-411.1000061035156px, -127.14999389648438px) translate(-55px, 0px);transform: translate(411.1000061035156px, 127.14999389648438px) translate(-411.1000061035156px, -127.14999389648438px) translate(-55px, 0px);}44.44%{-webkit-transform: translate(411.1000061035156px, 127.14999389648438px) translate(-411.1000061035156px, -127.14999389648438px) translate(-170px, 0px);transform: translate(411.1000061035156px, 127.14999389648438px) translate(-411.1000061035156px, -127.14999389648438px) translate(-170px, 0px);}50%{-webkit-transform: translate(411.1000061035156px, 127.14999389648438px) translate(-411.1000061035156px, -127.14999389648438px) translate(-55px, 0px);transform: translate(411.1000061035156px, 127.14999389648438px) translate(-411.1000061035156px, -127.14999389648438px) translate(-55px, 0px);}55.56%{-webkit-transform: translate(411.1000061035156px, 127.14999389648438px) translate(-411.1000061035156px, -127.14999389648438px) translate(-170px, 0px);transform: translate(411.1000061035156px, 127.14999389648438px) translate(-411.1000061035156px, -127.14999389648438px) translate(-170px, 0px);}61.11%{-webkit-transform: translate(411.1000061035156px, 127.14999389648438px) translate(-411.1000061035156px, -127.14999389648438px) translate(-55px, 0px);transform: translate(411.1000061035156px, 127.14999389648438px) translate(-411.1000061035156px, -127.14999389648438px) translate(-55px, 0px);}66.67%{-webkit-transform: translate(411.1000061035156px, 127.14999389648438px) translate(-411.1000061035156px, -127.14999389648438px) translate(-170px, 0px);transform: translate(411.1000061035156px, 127.14999389648438px) translate(-411.1000061035156px, -127.14999389648438px) translate(-170px, 0px);}72.22%{-webkit-transform: translate(411.1000061035156px, 127.14999389648438px) translate(-411.1000061035156px, -127.14999389648438px) translate(-55px, 0px);transform: translate(411.1000061035156px, 127.14999389648438px) translate(-411.1000061035156px, -127.14999389648438px) translate(-55px, 0px);}77.78%{-webkit-transform: translate(411.1000061035156px, 127.14999389648438px) translate(-411.1000061035156px, -127.14999389648438px) translate(-170px, 0px);transform: translate(411.1000061035156px, 127.14999389648438px) translate(-411.1000061035156px, -127.14999389648438px) translate(-170px, 0px);}83.33%{-webkit-transform: translate(411.1000061035156px, 127.14999389648438px) translate(-411.1000061035156px, -127.14999389648438px) translate(-55px, 0px);transform: translate(411.1000061035156px, 127.14999389648438px) translate(-411.1000061035156px, -127.14999389648438px) translate(-55px, 0px);}88.89%{-webkit-transform: translate(411.1000061035156px, 127.14999389648438px) translate(-411.1000061035156px, -127.14999389648438px) translate(-170px, 0px);transform: translate(411.1000061035156px, 127.14999389648438px) translate(-411.1000061035156px, -127.14999389648438px) translate(-170px, 0px);}94.44%{-webkit-transform: translate(411.1000061035156px, 127.14999389648438px) translate(-411.1000061035156px, -127.14999389648438px) translate(-55px, 0px);transform: translate(411.1000061035156px, 127.14999389648438px) translate(-411.1000061035156px, -127.14999389648438px) translate(-55px, 0px);}100%{-webkit-transform: translate(411.1000061035156px, 127.14999389648438px) translate(-411.1000061035156px, -127.14999389648438px) translate(-170px, 0px);transform: translate(411.1000061035156px, 127.14999389648438px) translate(-411.1000061035156px, -127.14999389648438px) translate(-170px, 0px);}}#el_-8zHbSXZA *{-webkit-animation-duration: 15s;animation-duration: 15s;-webkit-animation-iteration-count: infinite;animation-iteration-count: infinite;-webkit-animation-timing-function: cubic-bezier(0, 0, 1, 1);animation-timing-function: cubic-bezier(0, 0, 1, 1);}#el_046wKrIAkX{fill: #FDD2AF;}#el_-zL2dXbEQN{fill: #FDD2AF;}#el_EA4kyveyS0{fill: #FDD2AF;}#el_es07p3Xrla{fill: #FFFFFF;-webkit-animation-fill-mode: backwards;animation-fill-mode: backwards;opacity: 0;-webkit-animation-name: kf_el_es07p3Xrla_an_Hhqq1EZTT;animation-name: kf_el_es07p3Xrla_an_Hhqq1EZTT;-webkit-animation-timing-function: cubic-bezier(0, 0, 1, 1);animation-timing-function: cubic-bezier(0, 0, 1, 1);}#el_0_Vk-mx4m4{fill: #FFFFFF;}#el_c74LEPab4V{fill: #EC517D;}#el_JQ2Hfz8GXg{fill: #EC517D;}#el_mQSKm-N_Rl{fill: #EC517D;}#el_soZdjkDreq{fill: #EC517D;}#el_iVFV1hiuMZ{fill: #FFFFFF;}#el_0_Vk-mx4m4_an_53MfJS_ii{-webkit-animation-fill-mode: backwards;animation-fill-mode: backwards;-webkit-transform: translate(411.1000061035156px, 127.14999389648438px) translate(-411.1000061035156px, -127.14999389648438px) translate(-170px, 0px);transform: translate(411.1000061035156px, 127.14999389648438px) translate(-411.1000061035156px, -127.14999389648438px) translate(-170px, 0px);-webkit-animation-name: kf_el_0_Vk-mx4m4_an_53MfJS_ii;animation-name: kf_el_0_Vk-mx4m4_an_53MfJS_ii;-webkit-animation-timing-function: cubic-bezier(0, 0, 1, 1);animation-timing-function: cubic-bezier(0, 0, 1, 1);}
	</style>
	<g id="el_6YCOOWqhFR">
		<path d="M1135,247.4L1032.5,88c-2.1-3.3-5.7-5.2-9.6-5.2H909V14.5c0-6.3-5.1-11.4-11.4-11.4H464.9&#10;&#9;&#9;c-6.3,0-11.4,5.1-11.4,11.4v50.6H341.7l53.5,26h58.2h17.9h5.4c3.3,0,6-2.7,6-6v-9.7l0,0V28.5h396.4v20.2H499v22.8h380.2V322H692.6&#10;&#9;&#9;v22.8h186.6v17.3H683c-6.6-32.2-35.2-56.5-69.4-56.5s-62.8,24.3-69.4,56.5h-61.3v-17.3h27.7h16c3.3,0,6-2.7,6-6v-14.1&#10;&#9;&#9;c0-3.3-2.7-6-6-6h-16h-99.5v22.6c0,1.2-0.3,2.4-0.7,3.6h10.3h32.8V379c0,6.3,5.1,11.4,11.4,11.4h79.2c6.5,32.4,35.2,56.9,69.5,56.9&#10;&#9;&#9;s63-24.5,69.5-56.9h214.6l0,0h30.4c6.5,32.4,35.2,56.9,69.5,56.9c34.3,0,63-24.5,69.5-56.9h58.3c6.3,0,11.4-5.1,11.4-11.4V253.5&#10;&#9;&#9;C1136.8,251.3,1136.2,249.2,1135,247.4z M614,420.8c-24.3,0-44.1-19.8-44.1-44.1s19.8-44.1,44.1-44.1s44.1,19.8,44.1,44.1&#10;&#9;&#9;C658.2,401,638.4,420.8,614,420.8z M1039.8,151l52.3,79.7H954.6V151H1039.8L1039.8,151z M998,420.8c-24.3,0-44.1-19.8-44.1-44.1&#10;&#9;&#9;s19.8-44.1,44.1-44.1c24.3,0,44.1,19.8,44.1,44.1C1042.2,401,1022.4,420.8,998,420.8z M1107,320.8h-33.9v22.8h33.9v18.2h-40&#10;&#9;&#9;c-6.7-32.2-35.2-56.5-69.4-56.5c-34.1,0-62.7,24.3-69.4,56.5H909V105.5h101l14.9,22.8h-81.7c-6.3,0-11.4,5.1-11.4,11.4v102.4&#10;&#9;&#9;c0,6.3,5.1,11.4,11.4,11.4H1107V320.8L1107,320.8z" id="el_046wKrIAkX" />
		<rect x="600.5" y="363.9" width="26.8" height="26.3" id="el_-zL2dXbEQN" />
		<rect x="985.5" y="363.9" width="26.8" height="26.3" id="el_EA4kyveyS0" />
	</g>
	<polygon points="1303.5,284 1166.7,312.6 1166.7,344.3 1303.5,373.2 " id="el_es07p3Xrla" />
	<g id="el_0_Vk-mx4m4_an_53MfJS_ii" data-animator-group="true" data-animator-type="0">
		<path d="M746.4,194.3c0-0.3,0-0.5-0.2-0.8c0-0.3-0.2-0.7-0.2-1.2c0-0.3-0.2-0.7-0.2-1s-0.2-0.7-0.2-1&#10;&#9;c-0.2-0.3-0.2-0.7-0.3-0.8c-0.2-0.3-0.2-0.7-0.3-1s-0.3-0.5-0.3-0.8c-0.2-0.3-0.3-0.7-0.5-1s-0.3-0.5-0.5-0.8s-0.3-0.7-0.5-1&#10;&#9;s-0.3-0.5-0.7-0.8c-0.2-0.3-0.3-0.5-0.5-0.8c-0.3-0.5-0.8-0.8-1.2-1.3l-0.2-0.2L691.8,133c-7.8-7.8-20.5-7.8-28.2,0&#10;&#9;c-7.8,7.8-7.8,20.5,0,28.2l14.8,14.8H582H417.4h-6.3v39.9h6.2h168h92.8l-17.2,18.2c-7.8,7.8-7.8,20.5,0,28.2&#10;&#9;c3.8,3.8,8.9,5.8,14.2,5.8c5.2,0,10.1-2,14.2-5.8l51.3-51.3l0.2-0.2c0.3-0.5,0.8-0.8,1.2-1.3c0.2-0.3,0.3-0.5,0.5-0.8&#10;&#9;s0.3-0.5,0.7-0.8c0.2-0.3,0.3-0.7,0.5-1s0.3-0.5,0.5-0.8s0.3-0.7,0.5-1s0.3-0.5,0.3-0.8c0.2-0.3,0.2-0.7,0.3-1s0.2-0.7,0.3-0.8&#10;&#9;c0.2-0.3,0.2-0.7,0.2-1s0.2-0.7,0.2-1s0.2-0.7,0.2-1.2c0-0.3,0.2-0.5,0.2-0.8C746.6,197,746.6,195.7,746.4,194.3z" id="el_0_Vk-mx4m4" />
	</g>
	<g id="el_RNa8WTkYrD">
		<path d="M319.6,156.7v66c0,6.2-5.1,11.3-11.3,11.3c-6.2,0-11.3-5.1-11.3-11.3v-55l-80.4,38.9l-0.1,210.3L383.7,336&#10;&#9;&#9;l4.6-2.2v-15.3l0.1-195.1L319.6,156.7z" id="el_c74LEPab4V" />
		
	</g>
	<path d="M411.1,318.4l0.1-102.7v-39.9v-70.2c-0.2-0.1-0.1-0.2-0.2-0.3c0-1.7-0.3-3.4-1.1-5c-1.5-3.2-4.4-5.3-7.6-6&#10;&#9;l-6.6-3.2l-0.5-0.2l-53.5-26L214.5,3.1l-4.1-2c-3.1-1.5-6.8-1.5-9.9,0l-4.1,2L6.6,94.9c-3.8,1.7-6.2,5.6-6.4,9.8v0.1&#10;&#9;c0,0.1,0,0.2,0,0.4L0,340.8c0,4.4,2.4,8.3,6.4,10.2l193.7,94.1c0.1,0,0.1,0,0.2,0.1c0.3,0.1,0.6,0.2,0.8,0.4c0.1,0,0.2,0.1,0.4,0.1&#10;&#9;c0.3,0.1,0.6,0.2,0.9,0.3c0.1,0,0.2,0.1,0.3,0.1c0.3,0.1,0.6,0.1,0.9,0.2c0.1,0,0.2,0,0.3,0c0.4,0,0.9,0.1,1.2,0&#10;&#9;c0.4,0,0.9,0,1.2-0.1c0.1,0,0.2,0,0.3,0c0.3,0,0.6-0.1,1-0.2c0.1,0,0.2-0.1,0.3-0.1c0.3-0.1,0.5-0.2,0.8-0.3c0.1,0,0.2-0.1,0.4,0&#10;&#9;c0.3-0.1,0.5-0.2,0.9-0.4c0.1,0,0.1,0,0.2-0.1l185.5-89.7l9-4.4c2.8-1.4,4.8-3.8,5.8-6.6c0.4-1.1,0.7-2.3,0.7-3.6L411.1,318.4z&#10;&#9; M205.4,23.9l168.1,81.6l-62,30L143.4,53.9L205.4,23.9z M193.8,417L22.7,333.9l0.1-210.4l171.1,83.1L193.8,417z M205.3,186.9&#10;&#9;L37.2,105.3l80.3-38.8l168.1,81.6L205.3,186.9z M388.3,318.5v15.3l-4.6,2.2l-167.2,80.9l0.1-210.3l80.4-38.9v55&#10;&#9;c0,6.2,5.1,11.3,11.3,11.3c6.2,0,11.3-5.1,11.3-11.3v-66l68.8-33.3L388.3,318.5z" id="el_iVFV1hiuMZ" />
</svg>
