<?xml version="1.0" encoding="utf-8"?>
<!-- Generator: Adobe Illustrator 21.1.0, SVG Export Plug-In . SVG Version: 6.00 Build 0)  -->
<svg version="1.1" id="Layer_1" xmlns="http://www.w3.org/2000/svg" xmlns:xlink="http://www.w3.org/1999/xlink" x="0px" y="0px"
	 viewBox="0 0 1184.3 510.8" style="enable-background:new 0 0 1184.3 510.8;" xml:space="preserve">
<style type="text/css">
	.hrm0{fill:#FCC292;}
</style>
<path class="hrm0" d="M1134.1,136.1c-21.8-23.7-52.9-36.7-87.5-36.7h-83.2v-45c0-10.9-8.9-19.9-19.9-19.9H547.1
	c-10.9,0-19.9,8.9-19.9,19.9v10.5c0,0,0,0,0,0V387c0,0,0,0,0,0v18.1c0,10.9,8.9,19.9,19.9,19.9h59.1c0.5,0,0.8,0,1.3,0
	c6.6,29.8,33.3,52,65,52s58.2-22.2,65-52h206.2h31.8c6.8,29.6,33.3,52,65,52s58.2-22.2,65-52h44.3c10.9,0,19.9-8.9,19.9-19.9v-165
	C1169.7,197.3,1157.3,161.2,1134.1,136.1z M672.5,437.4c-14.9,0-27-12.1-27-27c0-14.9,12.1-27,27-27s27,12.1,27,27
	C699.5,425.3,687.4,437.4,672.5,437.4z M923.8,119.2v266.2h-187c-0.8,0-1.7,0-2.5,0.2c-9.9-24.5-33.9-41.9-61.9-41.9
	c-28.1,0-52.1,17.5-61.9,42.2c-1.5-0.3-2.8-0.5-4.3-0.5h-38.9V256.2h45.2c12.7,0,23-10.3,23-23v-2.1c0-12.7-10.3-23-23-23h-45.2
	V74.2h356.4V119.2z M1040.5,437.4c-14.9,0-27-12.1-27-27c0-14.9,12.1-27,27-27c14.9,0,27,12.1,27,27
	C1067.3,425.3,1055.2,437.4,1040.5,437.4z M1130,385.4h-27.8c-9.9-24.3-33.9-41.7-61.7-41.7s-51.8,17.2-61.7,41.7h-15.2V139.1h83.2
	c52.1,0,83.2,37.9,83.2,101.3V385.4z"/>
<g>
	<path class="hrm0" d="M383.8,58.7c-0.7-1.5-1.8-2.9-3.2-4c-2.7-2.2-6.3-2.8-9.4-2l-211.7,1.1c-3.4,0-6.7,1.6-8.8,4.3L19.2,226.6
		c-2.6,3.2-3.1,7.7-1.4,11.5l0,0.1c0,0.1,0.1,0.2,0.2,0.3l103.1,209.9c1.9,3.9,5.8,6.3,10.2,6.3l213.7-1.1c0.1,0,0.1,0,0.2,0
		c0.3,0,0.6-0.1,0.9,0c0.1,0,0.2,0,0.4-0.1c0.3,0,0.6-0.1,0.9-0.1c0.1,0,0.2,0,0.3,0c0.3,0,0.6-0.2,0.9-0.2c0.1,0,0.2-0.1,0.3-0.1
		c0.3-0.2,0.8-0.3,1.1-0.5c0.3-0.2,0.8-0.4,1-0.6c0.1,0,0.2-0.1,0.3-0.1c0.3-0.1,0.5-0.4,0.8-0.6c0.1,0,0.1-0.2,0.2-0.2
		c0.2-0.2,0.4-0.4,0.6-0.6c0.1,0,0.1-0.2,0.3-0.2c0.2-0.2,0.4-0.4,0.6-0.7c0.1,0,0.1,0,0.1-0.2l131.9-169c2.6-3.4,3.1-8,1.3-11.9
		L384.1,58.9C383.9,58.9,383.9,58.8,383.8,58.7z M165,76.2l185.4-1l-42,53.9l-185.4,1L165,76.2z M236.3,221.4l-185.4,1l54.5-69.8
		l185.4-1L236.3,221.4z M46.1,244.9l188.8-1l92.1,187.4l-188.8,1L46.1,244.9z M347.1,421.3L255,234l54.5-69.9l24.1,49
		c2.7,5.5,9.5,7.8,15,5.1c5.5-2.7,7.8-9.5,5.1-15l-28.9-58.8l46.7-59.8l92.1,187.4L347.1,421.3z"/>
</g>
</svg>
