<?xml version="1.0" encoding="utf-8"?>
<!-- Generator: Adobe Illustrator 21.1.0, SVG Export Plug-In . SVG Version: 6.00 Build 0)  -->
<svg version="1.1" id="Layer_1" xmlns="http://www.w3.org/2000/svg" xmlns:xlink="http://www.w3.org/1999/xlink" x="0px" y="0px"
	 viewBox="0 0 1246.7 1155.1" style="enable-background:new 0 0 1246.7 1155.1;" xml:space="preserve">
<style type="text/css">
	.lu0{fill:#fff;}
</style>
<g>
	<polygon class="lu0" points="336.9,834 336.9,1031.4 372.8,1031.4 372.8,1031.4 372.8,1031.4 372.8,834 	"/>
	<path class="lu0" d="M480.4,349.5h-24.3l-46.9,35.8l-0.1,0.1h3.8l-58.1,48.4l-58.1-48.4h3.7l-47-35.9h-24.2
		c-89,0-161.5,72.5-161.5,161.5v35.9h35.9l0,0h71.8v215.3c-8.7,0-17-1.5-24.7-4.4c7.7,2.8,16,4.4,24.7,4.4v35.9l0,0v233.3h35.9
		V762.2h287.1v269.2h35.9l0,0l0,0V798.1l0,0l0,0v-35.9l0,0V546.9h71.8l0,0H642V511C641.9,422,569.5,349.5,480.4,349.5z M534.3,511
		v-35.9h-35.9v251.2H211.3V475.1h-35.9V511h-71.8c0-69.3,56.3-125.6,125.6-125.6h11.4l114.2,95.1L469,385.4h11.4
		c69.3,0,125.6,56.3,125.6,125.6H534.3z"/>
	<rect x="1074.8" y="1036.6" class="lu0" width="44.7" height="44.7"/>
	<rect x="1001.4" y="1036.6" class="lu0" width="44.7" height="44.7"/>
	<rect x="1074.8" y="959.2" class="lu0" width="44.7" height="44.7"/>
	<path class="lu0" d="M677.8,313.6v394.8v17.9v412.8h502.5V726.4v-17.9V313.6H677.8z M911.1,349.5H947v143.6h-35.9V349.5z
		 M1144.4,1103.2H713.7V744.3h161.5v179.5h107.7V744.3h161.5V1103.2z M911.1,887.9V744.3H947v143.6H911.1z M1144.4,708.4H713.7
		V349.5h161.5V529h107.7V349.5h161.5V708.4z"/>
	<rect x="1074.8" y="639.8" class="lu0" width="44.7" height="44.7"/>
	<rect x="1001.4" y="639.8" class="lu0" width="44.7" height="44.7"/>
	<rect x="1074.8" y="562.4" class="lu0" width="44.7" height="44.7"/>
	<path class="lu0" d="M534.3,1031.4h-35.9l0,0H372.8l0,0l0,0h-35.9l0,0H211.3l0,0h-35.9l0,0v107.7l0,0h358.9V1031.4L534.3,1031.4
		L534.3,1031.4z M336.9,1103.2H211.3v-35.9h125.6V1103.2z M498.4,1103.2H372.8l0,0v-35.9l0,0h125.6V1103.2z"/>
	<path class="lu0" d="M409.1,385.4l0.1-0.1l46.9-35.8l0,0c36.7-29.6,60.2-74.9,60.2-125.6v-53.8h-35.9v53.8
		c0,69.3-56.3,125.6-125.6,125.6c-6.5,0-12.9-0.5-19.1-1.4c-2.1-0.3-4.1-0.7-6.2-1.1c-2-0.4-4.1-0.9-6.1-1.4s-4-1.1-6-1.7
		c-1-0.3-2-0.6-2.9-1c-1.9-0.7-3.9-1.4-5.8-2.1c-3.8-1.5-7.5-3.2-11.1-5c-1.8-0.9-3.6-1.9-5.3-2.9c-2.6-1.5-5.2-3.1-7.7-4.8
		c-1.7-1.1-3.3-2.3-4.9-3.5c-2.4-1.8-4.8-3.7-7.1-5.7c-3.8-3.3-7.4-6.8-10.8-10.5c-1.4-1.5-2.7-3-4-4.6c-0.6-0.8-1.3-1.6-1.9-2.4
		c-1.2-1.6-2.5-3.2-3.6-4.8c-14.6-20.5-23.2-45.6-23.2-72.7v-53.8h-35.9v53.8c0,17.4,2.8,34.2,7.9,50c1.4,4.3,3,8.5,4.7,12.6
		c0.6,1.4,1.2,2.7,1.8,4.1c1.9,4.1,3.9,8,6,11.9c0.7,1.3,1.5,2.6,2.2,3.8c1.5,2.5,3.1,5,4.8,7.5c1.7,2.4,3.4,4.8,5.1,7.2
		c2.7,3.5,5.5,6.9,8.4,10.2c2,2.2,4,4.3,6.1,6.4c4.2,4.2,8.5,8.1,13.1,11.8h0.1l47,35.9L409.1,385.4L409.1,385.4z"/>
	<path class="lu0" d="M150.7,757.9c-2.2-0.8-4.3-1.7-6.4-2.7c-2.1-1-4.1-2.1-6.1-3.3c-6.9-4.2-13.1-9.5-18.2-15.7
		c-1.5-1.8-2.8-3.6-4.1-5.5s-2.5-3.9-3.6-5.9c-5.5-10.2-8.7-21.8-8.7-34.2V546.9l0,0H67.7v143.6c0,7.4,0.8,14.7,2.2,21.7
		c0.4,1.8,0.8,3.5,1.2,5.2c0.7,2.6,1.4,5.1,2.3,7.6c0.8,2.5,1.8,5,2.8,7.4s2.1,4.8,3.3,7.1c1.2,2.3,2.5,4.6,3.8,6.8
		c1.4,2.2,2.8,4.4,4.3,6.5c3,4.2,6.3,8.2,9.9,12c0.6,0.6,1.2,1.2,1.8,1.8c1.2,1.2,2.5,2.4,3.7,3.6c0.6,0.6,1.3,1.2,1.9,1.7
		c1.3,1.1,2.6,2.2,4,3.3c0.7,0.5,1.4,1.1,2.1,1.6c18,13.4,40.3,21.4,64.4,21.4l0,0v-35.9C166.7,762.2,158.4,760.7,150.7,757.9z"/>
	<path class="lu0" d="M606.1,690.5c0,39.6-32.2,71.8-71.8,71.8l0,0v35.9l0,0l0,0l0,0c2.8,0,5.5-0.1,8.3-0.3c0,0,0,0,0.1,0
		c5.4-0.4,10.8-1.2,16-2.4l0,0c2.6-0.6,5.1-1.3,7.7-2.1l0,0c3.4-1,6.6-2.3,9.9-3.6h0.1c9.6-4.1,18.5-9.5,26.5-16.1
		c0,0,0.1,0,0.1-0.1c2-1.6,3.9-3.3,5.7-5.1c0.1-0.1,0.2-0.2,0.3-0.3c2.4-2.3,4.6-4.7,6.8-7.2c0.2-0.2,0.3-0.4,0.5-0.6
		c1-1.1,1.9-2.3,2.8-3.4c0.3-0.3,0.5-0.6,0.7-1c0.3-0.4,0.6-0.7,0.8-1.1c0.1-0.1,0.1-0.1,0.2-0.2c4.1-5.5,7.6-11.3,10.6-17.5
		c0.1-0.1,0.1-0.2,0.2-0.4c1.1-2.2,2.1-4.5,3-6.8c0.5-1.2,0.9-2.4,1.3-3.6c1-2.9,2-5.9,2.7-9c0.1-0.4,0.2-0.8,0.3-1.3
		c0.1-0.4,0.2-0.9,0.3-1.3c0.1-0.6,0.3-1.3,0.4-1.9c0-0.2,0.1-0.4,0.1-0.7c0.1-0.5,0.2-1,0.3-1.5c0.1-0.4,0.1-0.8,0.2-1.1
		c0.1-0.3,0.1-0.6,0.2-0.9c0.1-0.6,0.2-1.1,0.3-1.7c0.3-1.7,0.5-3.5,0.7-5.3v-0.1c0.1-1.5,0.3-2.9,0.3-4.4c0.1-2.2,0.2-4.4,0.2-6.6
		V546.9H606L606.1,690.5L606.1,690.5z"/>
	<path class="lu0" d="M306.8,272.2c0,29.8,23.2,53.9,51.8,53.9c28.6,0,51.8-24.1,51.8-53.9c0-0.9,0-1.8-0.1-2.7h-24.2
		c-0.8,17.7-12.4,31.8-26.6,31.8s-25.7-14.1-26.6-31.8h-26.1C306.8,270.4,306.8,271.3,306.8,272.2z"/>
	<circle class="lu0" cx="303.7" cy="205.4" r="23.1"/>
	<circle class="lu0" cx="413.9" cy="205.4" r="23.1"/>
	<g>
		<path class="lu0" d="M516.3,134.2c0-59.4-48.3-107.7-107.7-107.7H301c-59.4,0-107.7,48.3-107.7,107.7v35.9h35.9h251.2h35.9h53.8
			v-35.9L516.3,134.2L516.3,134.2z M229.2,134.2c0-39.6,32.2-71.8,71.8-71.8h107.7c39.6,0,71.8,32.2,71.8,71.8H229.2L229.2,134.2z"
			/>
	</g>
</g>
</svg>
