<?xml version="1.0" encoding="utf-8"?>
<!-- Generator: Adobe Illustrator 21.1.0, SVG Export Plug-In . SVG Version: 6.00 Build 0)  -->
<svg version="1.1" id="Layer_1" xmlns="http://www.w3.org/2000/svg" xmlns:xlink="http://www.w3.org/1999/xlink" x="0px" y="0px"
	 viewBox="0 0 129 129" style="enable-background:new 0 0 129 129;" xml:space="preserve">
<style type="text/css">
	.loc0{fill:#fcd2b2;} 
</style>
<g>
	<g>
		<path class="loc0" d="M64.5,6.4C39,6.4,18.2,27.2,18.2,52.8c0,3.1,0.3,6.2,0.9,9.2c0,0.2,0.1,0.4,0.1,0.7
			c5.1,22.9,41,57.3,42.5,58.7c0.8,0.8,1.8,1.1,2.8,1.1s2-0.4,2.8-1.1c1.5-1.5,37.2-35.8,42.3-58.2c0-0.2,0.1-0.4,0.1-0.6
			c0.7-3.2,1-6.5,1-9.8C110.8,27.2,90,6.4,64.5,6.4z M101.7,61.1c0,0.2,0,0.1,0,0.3C97.9,78,73,104.2,64.5,112.7
			C56,104.2,31,78,27.2,61c0-0.2,0-0.3-0.1-0.5c-0.5-2.6-0.8-5.2-0.8-7.8c0-21,17.1-38.2,38.1-38.2s38.2,17.1,38.2,38.2
			C102.6,55.6,102.3,58.4,101.7,61.1z"/>
		<path class="loc0" d="M64.4,32.5C53.7,32.5,45,41.2,45,51.9s8.7,19.4,19.4,19.4s19.4-8.6,19.4-19.4S75.1,32.5,64.4,32.5z
			 M64.4,61.1c-5.1,0-9.2-4.1-9.2-9.2s4.1-9.2,9.2-9.2s9.2,4.1,9.2,9.2S69.5,61.1,64.4,61.1z"/>
	</g>
</g>
</svg>
