<?xml version="1.0" encoding="utf-8"?>
<!-- Generator: Adobe Illustrator 21.1.0, SVG Export Plug-In . SVG Version: 6.00 Build 0)  -->
<svg version="1.1" id="Layer_1" xmlns="http://www.w3.org/2000/svg" xmlns:xlink="http://www.w3.org/1999/xlink" x="0px" y="0px"
	 viewBox="0 0 3123.8 655.2" style="enable-background:new 0 0 3123.8 655.2;" xml:space="preserve">
<style type="text/css">
	.st0{fill:#FCC292;}
	
</style>
<defs>
<filter id="dropshadow" height="140%">
  <feGaussianBlur in="SourceAlpha" stdDeviation="5"/> <!-- stdDeviation is how much to blur -->
  <feOffset dx="4" dy="4" result="offsetblur"/> <!-- how much to offset -->
  <feComponentTransfer>
    <feFuncA type="linear" slope="0.3"/> <!-- slope is the opacity of the shadow -->
  </feComponentTransfer>
  <feMerge> 
    <feMergeNode/> <!-- this contains the offset blurred image -->
    <feMergeNode in="SourceGraphic"/> <!-- this contains the element that the filter is applied to -->
  </feMerge>
</filter>
</defs>
<g>
	<path class="st0"  style="filter:url(#dropshadow)" d="M3021,44.3l-349.9,0.1H425.3v0l-260.9,0.1c-50.9,0.2-96.2,43-102.5,93.4L26,424.3
		c-5.9,47.5,28.9,85.7,77.7,85.7L87.3,633.7l203.3-124.2l11.5,0v0l2366.6-0.1l-2.6,0l46.5,0h0l227.8-0.6
		c49-0.1,95.8-38.7,104.4-86.3l51.9-286.7C3107.9,85.5,3072.7,44.1,3021,44.3z M3079.6,136.4l-49.9,274.1c-0.2,1-0.4,1.9-0.6,2.7
		c-7.3,34.1-35.9,62.6-69.7,72.7c-8.3,2.5-16.9,3.8-25.6,3.8l-56.1,0.2l-152.9,0.4h0l-20.7,0.1l-19.5-0.1l-15.8,0l-301.4,0
		l-33.9,0.1v-0.1l-1699.2,0.1v0l-346.8,0L105.7,601.4L119.5,497c-42.4,0.2-78.3-38.2-73.1-79.8l33-262.9c1.3-12.9,5.6-25.9,12-37.8
		c15.8-32.2,48.9-55.8,85.1-55.9L416,60.4l-2.7,0l221,0h1843.4l318.5-0.1l14.4,0.1c0,0,0,0,0,0l0.3,0l1,0v0l183.2-0.1l21.8-0.1
		c14.6,0,27.5,1.6,38.4,7.5c0.1,0,0.1,0.1,0.2,0.1c10.4,6.6,18,16.8,22.2,28.8c1.5,4.1,2.8,8.5,3.1,13
		C3081.5,118.5,3081.7,127.3,3079.6,136.4z"/>
</g>
</svg>
