<?xml version="1.0" encoding="utf-8"?>
<!-- Generator: Adobe Illustrator 21.1.0, SVG Export Plug-In . SVG Version: 6.00 Build 0)  -->
<svg version="1.1" id="Layer_1" xmlns="http://www.w3.org/2000/svg" xmlns:xlink="http://www.w3.org/1999/xlink" x="0px" y="0px"
	 viewBox="0 0 1027.8 553.6" style="enable-background:new 0 0 1027.8 553.6;" xml:space="preserve">
<style type="text/css">
	.slm0{fill:#f69e9c;}
</style>
<g>
	<path class="slm0" d="M844,83.3H522.8c-19.8,0-35.8,16-35.8,35.6v315.7c0,19.6,16,35.6,35.8,35.6h188.7c0.8-5.5,1.4-11.5-0.4-16
		H526.3c-10.8-1.1-19.2-10.2-19.2-21.3V120.6c0-11.1,8.4-20.1,19.2-21.3h316.1c1.9,0,3.7,0.2,5.4,0.7c2.4,1,4.5,2.4,6.3,4.1
		c3.6,3.8,5.8,9,5.8,14.6v170.6c3.3,1.6,6.4,2.1,10.6,2c3.3,0,6.4-0.1,9.3-1V119C879.8,99.3,863.7,83.4,844,83.3z"/>
	<rect x="515.9" y="112.3" class="slm0" width="17.9" height="16"/>
	<rect x="543.7" y="112.3" class="slm0" width="17.9" height="16"/>
	<path class="slm0" d="M850.6,146.3c0-3.9-3.2-7-7-7H522.8c-1.9,0-3.6,0.8-4.9,2h-0.7v0.8c-0.9,1.2-1.4,2.6-1.4,4.2v7
		c0,3.8,3.2,7,7,7h320.8c3.8,0,7-3.2,7-7V146.3L850.6,146.3z"/>
	<path class="slm0" d="M616.2,218.3h110.3c3.8,0,7-3.2,7-7v-7c0-3.9-3.2-7-7-7H616.2c-3.8,0-7,3.1-7,7v7
		C609.3,215.1,612.4,218.3,616.2,218.3z"/>
	<path class="slm0" d="M829.4,211.8v-8c0-3.6-2.3-6.5-5.2-6.5h-75.7c-2.9,0-5.2,2.9-5.2,6.5v8c0,3.6,2.3,6.5,5.2,6.5h75.7
		C827.1,218.3,829.4,215.4,829.4,211.8z"/>
	<path class="slm0" d="M736.4,290.3c0-3.9-3.2-7-7-7H616.2c-3.8,0-7,3.1-7,7v6c0,3.8,3.2,7,7,7h113.2c3.8,0,7-3.2,7-7V290.3z"/>
	<path class="slm0" d="M750.4,283.3c-3.9,0-7.1,3.2-7.1,7.1v5.8c0,3.9,3.2,7.1,7.1,7.1H773c3.9,0,7.1-3.2,7.1-7.1v-5.8
		c0-3.9-3.2-7.1-7.1-7.1H750.4z"/>
	<path class="slm0" d="M654.3,330.3c3.7,0,6.7-3,6.7-6.7V318c0-3.7-3-6.7-6.7-6.7H616c-3.7,0-6.7,3-6.7,6.7v5.6c0,3.7,3,6.7,6.7,6.7
		H654.3z"/>
	<path class="slm0" d="M736.4,323.3v-5c0-3.9-3.2-7-7-7h-48.7c-3.8,0-7,3.1-7,7v5c0,3.8,3.2,7,7,7h48.7
		C733.2,330.3,736.4,327.1,736.4,323.3z"/>
	<path class="slm0" d="M706.6,375.3c0-3.9-3.2-7-7-7h-83.4c-3.8,0-7,3.1-7,7v4c0,3.8,3.2,7,7,7h83.4c3.8,0,7-3.2,7-7V375.3z"/>
	<path class="slm0" d="M616.2,397.3c-3.8,0-7,3.1-7,7v5c0,3.8,3.2,7,7,7h39.7c3.8,0,7-3.2,7-7v-5c0-3.9-3.2-7-7-7H616.2z"/>
	<path class="slm0" d="M699.6,397.3h-19.9c-3.8,0-7,3.1-7,7v5c0,3.8,3.2,7,7,7h19.9c3.8,0,7-3.2,7-7v-5
		C706.6,400.4,703.4,397.3,699.6,397.3z"/>
	<rect x="572.5" y="112.3" class="slm0" width="17.9" height="16"/>
	<path class="slm0" d="M595.5,219.8c0-20.3-16.6-36.7-37-36.7c-0.1,0-0.2,0-0.3,0c-10.7-0.2-21.3,4.3-28.6,13.1
		c-5.6,6.8-8.2,15-8.1,23.2c0,0.1,0,0.3,0,0.4c0,19.4,15.2,35.3,34.4,36.6c9.2,0.9,18.6-1.7,26.2-7.9c7.6-6.1,12-14.8,13-23.8
		C595.4,223.1,595.5,221.5,595.5,219.8z M557.5,240.1c-5.5,0-10.3-2-14.1-5.3c-3.3-3.8-5.4-8.7-5.4-14.1c0-11.8,9.6-21.4,21.6-21.4
		c1.8,0,3.6,0.2,5.3,0.7c7.5,2.1,13.2,8.7,13.9,15.8c0,0.2,0.1,0.4,0.1,0.7c0.1,0.7,0.1,1.5,0.1,2.3
		C579,230.6,569.4,240.1,557.5,240.1z"/>
	<path class="slm0" d="M595.5,305.8c0-20.3-16.6-36.7-37-36.7c-0.1,0-0.2,0-0.3,0c-10.7-0.2-21.3,4.3-28.6,13.1
		c-5.6,6.8-8.2,15-8.1,23.2c0,0.1,0,0.3,0,0.4c0,19.4,15.2,35.3,34.4,36.6c9.2,0.9,18.6-1.7,26.2-7.9c7.6-6.1,12-14.8,13-23.8
		C595.4,309.1,595.5,307.5,595.5,305.8z M557.5,326.1c-5.5,0-10.3-2-14.1-5.3c-3.3-3.8-5.4-8.7-5.4-14.1c0-11.8,9.6-21.4,21.6-21.4
		c1.8,0,3.6,0.2,5.3,0.7c7.5,2.1,13.2,8.7,13.9,15.8c0,0.2,0.1,0.4,0.1,0.7c0.1,0.7,0.1,1.5,0.1,2.3
		C579,316.6,569.4,326.1,557.5,326.1z"/>
	<path class="slm0" d="M595.5,391.8c0-20.3-16.6-36.7-37-36.7c-0.1,0-0.2,0-0.3,0c-10.7-0.2-21.3,4.3-28.6,13.1
		c-5.6,6.8-8.2,15-8.1,23.2c0,0.1,0,0.3,0,0.4c0,19.4,15.2,35.3,34.4,36.6c9.2,0.9,18.6-1.7,26.2-7.9c7.6-6.1,12-14.8,13-23.8
		C595.4,395.1,595.5,393.5,595.5,391.8z M557.5,412.1c-5.5,0-10.3-2-14.1-5.3c-3.3-3.8-5.4-8.7-5.4-14.1c0-11.8,9.6-21.4,21.6-21.4
		c1.8,0,3.6,0.2,5.3,0.7c7.5,2.1,13.2,8.7,13.9,15.8c0,0.2,0.1,0.4,0.1,0.7c0.1,0.7,0.1,1.5,0.1,2.3
		C579,402.6,569.4,412.1,557.5,412.1z"/>
	<path class="slm0" d="M609.3,240.3c0,3.8,3.2,7,7,7h60.6c3.8,0,7-3.2,7-7v-7c0-3.9-3.2-7-7-7h-60.6c-3.8,0-7,3.1-7,7V240.3z"/>
	<path class="slm0" d="M780.1,233.9c0-4.2-3.4-7.6-7.5-7.6h-72.3c-4.2,0-7.5,3.4-7.5,7.6v5.8c0,4.2,3.4,7.6,7.5,7.6h72.3
		c4.2,0,7.5-3.4,7.5-7.6V233.9L780.1,233.9z"/>
</g>
<g>
	<path class="slm0" d="M824.3,296.7c-61.3,0-110.9,49.7-110.9,110.9s49.7,110.9,110.9,110.9s110.9-49.7,110.9-110.9
		S885.5,296.7,824.3,296.7z M824.2,495.5c-48.6,0-88.1-39.4-88.1-88.1c0-48.6,39.4-88.1,88.1-88.1c48.6,0,88.1,39.4,88.1,88.1
		C912.2,456,872.8,495.5,824.2,495.5z"/>
	<rect x="812.8" y="440.7" class="slm0" width="20.3" height="19.5"/>
	<path class="slm0" d="M824.2,345.6c-18.1,0-32.9,11.7-34.8,35.4h20.3c1.4-10.4,5.8-15.2,14-15.2c8.4,0,14.5,5.9,14.5,14.2
		c0,4.6-2.3,9.1-6.9,13c-15.2,12.5-18.6,19.8-18.6,38.9H833c0.2-13.3,1.5-16.6,9.9-23.9c11.7-10.2,15.6-17.1,15.6-27.3
		C858.5,360.5,843.7,345.6,824.2,345.6z"/>
</g>
<g>
	<g>
		<g>
			<path class="slm0" d="M255.1,106.5l-80.3,44.6l-18-32.4c-2.5-4.5-8.1-6.1-12.6-3.6l-38.4,21.3c-4.5,2.5-6.1,8.1-3.6,12.6l18,32.4
				l-79.6,44.2c-19.3,10.7-26.2,34.9-15.5,54.2l60,108.2c10.7,19.3,34.9,26.2,54.2,15.5l79.6-44.2L297,500.1
				c2.5,4.5,8.1,6.1,12.6,3.6l38.4-21.3c4.5-2.5,6.1-8.1,3.6-12.6L273.5,329l80.5-44.7c19.3-10.7,26.2-34.9,15.5-54.2l-60-108.2
				C298.9,102.7,274.5,95.8,255.1,106.5z M344.2,267.9L129.6,387c-10.3,5.7-23.3,2-29-8.3l-60-108.1c-5.7-10.3-2-23.3,8.3-29
				l214.7-119.1c10.3-5.7,23.3-2,29,8.3l60,108.1C358.2,249.2,354.5,262.2,344.2,267.9z M123.2,147.4l22-12.2l13.2,23.8l-22,12.2
				L123.2,147.4z M330.9,470l-22,12.2L235.6,350l22-12.2L330.9,470z"/>
			<path class="slm0" d="M49.2,249.7c-2.1,1.2-3.7,3.2-4.4,5.6c-0.7,2.3-0.4,4.9,0.8,7s3.2,3.7,5.6,4.4c2.3,0.7,4.9,0.4,7-0.8
				c2.1-1.2,3.7-3.2,4.4-5.6c0.7-2.3,0.4-4.9-0.8-7s-3.2-3.7-5.6-4.4C53.9,248.2,51.3,248.5,49.2,249.7z"/>
			<path class="slm0" d="M271.2,126.5c-2.1,1.2-3.7,3.2-4.4,5.6c-0.7,2.3-0.4,4.9,0.8,7c1.2,2.1,3.2,3.7,5.6,4.4
				c2.3,0.7,4.9,0.4,7-0.8c2.1-1.2,3.7-3.2,4.4-5.6c0.7-2.3,0.4-4.9-0.8-7c-1.2-2.1-3.2-3.7-5.6-4.4
				C275.9,125.1,273.3,125.4,271.2,126.5L271.2,126.5z"/>
			<path class="slm0" d="M102.7,262.5l-17.4,9.6c-4.4,2.4-6,8.1-3.6,12.5l32.9,59.4c2.2,4,7,6,11.3,4.4c5.3-2,7.3-8.2,4.6-13.1
				l-5.9-10.7l24.8,7.4c2.5,0.8,5.2,0.4,7.3-0.8c2-1.1,3.7-3.1,4.5-5.5c1.5-4.9-1.2-10.1-6.2-11.6l-24.6-7.3
				c9.4-6.9,12.6-19.7,6.8-30.1l-3-5.5C128.2,260.2,114,256.2,102.7,262.5L102.7,262.5z M119.5,291.2l-9.2,5.1l-7.3-13.2l9.2-5.1
				c2.2-1.2,4.9-0.4,6.2,1.8l2.9,5.3C122.4,287.3,121.7,290,119.5,291.2z"/>
			<path class="slm0" d="M157,253.1l19.5-10.8c4.2-2.3,6.2-7.6,4.1-11.9c-2.3-4.7-8-6.6-12.6-4.1L148.7,237
				c-9.7,5.4-13.2,17.6-7.8,27.3l27.2,49.1c2.5,4.6,8.3,6.2,12.9,3.7l30.8-17.1c1.1-0.6,1.9-1.8,2.2-3.1c2.3-10-6.7-15.2-13.2-11.6
				l-20.4,11.3c-0.4,0.2-0.8,0.1-1-0.3l-7.5-13.5l20.7-11.5c4.2-2.3,6.2-7.6,4.1-11.9c-2.3-4.7-8-6.6-12.6-4.1L163,267l-6.6-11.9
				C156.1,254.4,156.3,253.5,157,253.1L157,253.1z"/>
			<path class="slm0" d="M275,166.9l-29.5,16.4c-2.6,1.4-4.2,4.1-4.2,6.9c0,8.1,7.8,11.8,13.5,8.6l6.5-3.6l28.1,50.6
				c1.4,2.6,4.1,4.2,6.9,4.2c8.1,0,11.8-7.8,8.6-13.5l-27.8-50l7.1-4c2.6-1.4,4.2-4.1,4.2-6.9C288.6,167.5,280.8,163.7,275,166.9z"
				/>
			<path class="slm0" d="M222,195.7c-4.6,2.5-6.3,8.4-3.7,13l13.6,24.5l-29.3-20c-3.2-2.2-7.3-2.4-10.4-0.3c-4,2.7-5.2,7.9-2.9,12
				l32.7,58.9c2.3,4.2,7.6,6.2,11.9,4.1c4.7-2.3,6.6-8,4.1-12.6l-14-25.2l30.4,20.8c3,2,6.8,2.1,9.8,0.4c1.3-0.7,2.5-1.7,3.3-3.1
				c1.9-2.9,1.9-6.7,0.2-9.8L235,199.5C232.4,194.8,226.6,193.2,222,195.7L222,195.7z"/>
		</g>
	</g>
</g>
</svg>
