<?xml version="1.0" encoding="utf-8"?>
<!-- Generator: Adobe Illustrator 21.1.0, SVG Export Plug-In . SVG Version: 6.00 Build 0)  -->
<svg version="1.1" id="Layer_1" xmlns="http://www.w3.org/2000/svg" xmlns:xlink="http://www.w3.org/1999/xlink" x="0px" y="0px"
	 viewBox="0 0 949.9 472.1" style="enable-background:new 0 0 949.9 472.1;" xml:space="preserve">
<style type="text/css">
	.st0{fill:#E9B4B4;}
</style>
<g>
	<path class="st0" d="M841.4,21.5H520.2c-19.8,0-35.8,16-35.8,35.6v315.7c0,19.6,16,35.6,35.8,35.6h188.7c0.8-5.5,1.4-11.5-0.4-16
		H523.7c-10.8-1.1-19.2-10.2-19.2-21.3V58.8c0-11.1,8.4-20.1,19.2-21.3h316.1c1.9,0,3.7,0.2,5.4,0.7c2.4,1,4.5,2.4,6.3,4.1
		c3.6,3.8,5.8,9,5.8,14.6v170.6c3.3,1.6,6.4,2.1,10.6,2c3.3,0,6.4-0.1,9.3-1V57.2C877.2,37.5,861.1,21.6,841.4,21.5z"/>
	<rect x="513.3" y="50.5" class="st0" width="17.9" height="16"/>
	<rect x="541.1" y="50.5" class="st0" width="17.9" height="16"/>
	<path class="st0" d="M848,84.5c0-3.9-3.2-7-7-7H520.2c-1.9,0-3.6,0.8-4.9,2h-0.7v0.8c-0.9,1.2-1.4,2.6-1.4,4.2v7c0,3.8,3.2,7,7,7
		h320.8c3.8,0,7-3.2,7-7V84.5z"/>
	<path class="st0" d="M613.6,156.5h110.3c3.8,0,7-3.2,7-7v-7c0-3.9-3.2-7-7-7H613.6c-3.8,0-7,3.1-7,7v7
		C606.7,153.3,609.8,156.5,613.6,156.5z"/>
	<path class="st0" d="M826.8,150v-8c0-3.6-2.3-6.5-5.2-6.5h-75.7c-2.9,0-5.2,2.9-5.2,6.5v8c0,3.6,2.3,6.5,5.2,6.5h75.7
		C824.5,156.5,826.8,153.6,826.8,150z"/>
	<path class="st0" d="M733.8,228.5c0-3.9-3.2-7-7-7H613.6c-3.8,0-7,3.1-7,7v6c0,3.8,3.2,7,7,7h113.2c3.8,0,7-3.2,7-7V228.5z"/>
	<path class="st0" d="M747.8,221.5c-3.9,0-7.1,3.2-7.1,7.1v5.8c0,3.9,3.2,7.1,7.1,7.1h22.6c3.9,0,7.1-3.2,7.1-7.1v-5.8
		c0-3.9-3.2-7.1-7.1-7.1H747.8z"/>
	<path class="st0" d="M651.7,268.5c3.7,0,6.7-3,6.7-6.7v-5.6c0-3.7-3-6.7-6.7-6.7h-38.3c-3.7,0-6.7,3-6.7,6.7v5.6
		c0,3.7,3,6.7,6.7,6.7H651.7z"/>
	<path class="st0" d="M733.8,261.5v-5c0-3.9-3.2-7-7-7h-48.7c-3.8,0-7,3.1-7,7v5c0,3.8,3.2,7,7,7h48.7
		C730.6,268.5,733.8,265.3,733.8,261.5z"/>
	<path class="st0" d="M704,313.5c0-3.9-3.2-7-7-7h-83.4c-3.8,0-7,3.1-7,7v4c0,3.8,3.2,7,7,7H697c3.8,0,7-3.2,7-7V313.5z"/>
	<path class="st0" d="M613.6,335.5c-3.8,0-7,3.1-7,7v5c0,3.8,3.2,7,7,7h39.7c3.8,0,7-3.2,7-7v-5c0-3.9-3.2-7-7-7H613.6z"/>
	<path class="st0" d="M697,335.5h-19.9c-3.8,0-7,3.1-7,7v5c0,3.8,3.2,7,7,7H697c3.8,0,7-3.2,7-7v-5C704,338.6,700.8,335.5,697,335.5
		z"/>
	<rect x="569.9" y="50.5" class="st0" width="17.9" height="16"/>
	<path class="st0" d="M592.9,158c0-20.3-16.6-36.7-37-36.7c-0.1,0-0.2,0-0.3,0c-10.7-0.2-21.3,4.3-28.6,13.1
		c-5.6,6.8-8.2,15-8.1,23.2c0,0.1,0,0.3,0,0.4c0,19.4,15.2,35.3,34.4,36.6c9.2,0.9,18.6-1.7,26.2-7.9c7.6-6.1,12-14.8,13-23.8
		C592.8,161.3,592.9,159.7,592.9,158z M554.9,178.3c-5.5,0-10.3-2-14.1-5.3c-3.3-3.8-5.4-8.7-5.4-14.1c0-11.8,9.6-21.4,21.6-21.4
		c1.8,0,3.6,0.2,5.3,0.7c7.5,2.1,13.2,8.7,13.9,15.8c0,0.2,0.1,0.4,0.1,0.7c0.1,0.7,0.1,1.5,0.1,2.3
		C576.4,168.8,566.8,178.3,554.9,178.3z"/>
	<path class="st0" d="M592.9,244c0-20.3-16.6-36.7-37-36.7c-0.1,0-0.2,0-0.3,0c-10.7-0.2-21.3,4.3-28.6,13.1
		c-5.6,6.8-8.2,15-8.1,23.2c0,0.1,0,0.3,0,0.4c0,19.4,15.2,35.3,34.4,36.6c9.2,0.9,18.6-1.7,26.2-7.9c7.6-6.1,12-14.8,13-23.8
		C592.8,247.3,592.9,245.7,592.9,244z M554.9,264.3c-5.5,0-10.3-2-14.1-5.3c-3.3-3.8-5.4-8.7-5.4-14.1c0-11.8,9.6-21.4,21.6-21.4
		c1.8,0,3.6,0.2,5.3,0.7c7.5,2.1,13.2,8.7,13.9,15.8c0,0.2,0.1,0.4,0.1,0.7c0.1,0.7,0.1,1.5,0.1,2.3
		C576.4,254.8,566.8,264.3,554.9,264.3z"/>
	<path class="st0" d="M592.9,330c0-20.3-16.6-36.7-37-36.7c-0.1,0-0.2,0-0.3,0c-10.7-0.2-21.3,4.3-28.6,13.1
		c-5.6,6.8-8.2,15-8.1,23.2c0,0.1,0,0.3,0,0.4c0,19.4,15.2,35.3,34.4,36.6c9.2,0.9,18.6-1.7,26.2-7.9c7.6-6.1,12-14.8,13-23.8
		C592.8,333.3,592.9,331.7,592.9,330z M554.9,350.3c-5.5,0-10.3-2-14.1-5.3c-3.3-3.8-5.4-8.7-5.4-14.1c0-11.8,9.6-21.4,21.6-21.4
		c1.8,0,3.6,0.2,5.3,0.7c7.5,2.1,13.2,8.7,13.9,15.8c0,0.2,0.1,0.4,0.1,0.7c0.1,0.7,0.1,1.5,0.1,2.3
		C576.4,340.8,566.8,350.3,554.9,350.3z"/>
	<path class="st0" d="M606.7,178.5c0,3.8,3.2,7,7,7h60.6c3.8,0,7-3.2,7-7v-7c0-3.9-3.2-7-7-7h-60.6c-3.8,0-7,3.1-7,7V178.5z"/>
	<path class="st0" d="M777.5,172.1c0-4.2-3.4-7.6-7.5-7.6h-72.3c-4.2,0-7.5,3.4-7.5,7.6v5.8c0,4.2,3.4,7.6,7.5,7.6h72.3
		c4.2,0,7.5-3.4,7.5-7.6V172.1L777.5,172.1z"/>
</g>
<g>
	<path class="st0" d="M821.7,234.9c-61.3,0-110.9,49.7-110.9,110.9s49.7,110.9,110.9,110.9s110.9-49.7,110.9-110.9
		S882.9,234.9,821.7,234.9z M821.6,433.7c-48.6,0-88.1-39.4-88.1-88.1c0-48.6,39.4-88.1,88.1-88.1c48.6,0,88.1,39.4,88.1,88.1
		C909.6,394.2,870.2,433.7,821.6,433.7z"/>
	<rect x="810.2" y="378.9" class="st0" width="20.3" height="19.5"/>
	<path class="st0" d="M821.6,283.8c-18.1,0-32.9,11.7-34.8,35.4h20.3c1.4-10.4,5.8-15.2,14-15.2c8.4,0,14.5,5.9,14.5,14.2
		c0,4.6-2.3,9.1-6.9,13c-15.2,12.5-18.6,19.8-18.6,38.9h20.3c0.2-13.3,1.5-16.6,9.9-23.9c11.7-10.2,15.6-17.1,15.6-27.3
		C855.9,298.7,841.1,283.8,821.6,283.8z"/>
</g>
<g>
	<g>
		<g>
			<path class="st0" d="M252.5,44.7l-80.3,44.6l-18-32.4c-2.5-4.5-8.1-6.1-12.6-3.6l-38.4,21.3c-4.5,2.5-6.1,8.1-3.6,12.6l18,32.4
				l-79.6,44.2c-19.3,10.7-26.2,34.9-15.5,54.2l60,108.2c10.7,19.3,34.9,26.2,54.2,15.5l79.6-44.2l78.1,140.8
				c2.5,4.5,8.1,6.1,12.6,3.6l38.4-21.3c4.5-2.5,6.1-8.1,3.6-12.6l-78.1-140.8l80.5-44.7c19.3-10.7,26.2-34.9,15.5-54.2l-60-108.2
				C296.3,40.9,271.9,34,252.5,44.7z M341.6,206.1L127,325.2c-10.3,5.7-23.3,2-29-8.3L38,208.8c-5.7-10.3-2-23.3,8.3-29L261,60.7
				c10.3-5.7,23.3-2,29,8.3l60,108.1C355.6,187.4,351.9,200.4,341.6,206.1z M120.6,85.6l22-12.2l13.2,23.8l-22,12.2L120.6,85.6z
				 M328.3,408.2l-22,12.2L233,288.2l22-12.2L328.3,408.2z"/>
			<path class="st0" d="M46.6,187.9c-2.1,1.2-3.7,3.2-4.4,5.6c-0.7,2.3-0.4,4.9,0.8,7c1.2,2.1,3.2,3.7,5.6,4.4
				c2.3,0.7,4.9,0.4,7-0.8c2.1-1.2,3.7-3.2,4.4-5.6c0.7-2.3,0.4-4.9-0.8-7s-3.2-3.7-5.6-4.4C51.3,186.4,48.7,186.7,46.6,187.9z"/>
			<path class="st0" d="M268.6,64.7c-2.1,1.2-3.7,3.2-4.4,5.6c-0.7,2.3-0.4,4.9,0.8,7s3.2,3.7,5.6,4.4c2.3,0.7,4.9,0.4,7-0.8
				c2.1-1.2,3.7-3.2,4.4-5.6c0.7-2.3,0.4-4.9-0.8-7s-3.2-3.7-5.6-4.4C273.3,63.3,270.7,63.6,268.6,64.7L268.6,64.7z"/>
			<path class="st0" d="M100.1,200.7l-17.4,9.6c-4.4,2.4-6,8.1-3.6,12.5l32.9,59.4c2.2,4,7,6,11.3,4.4c5.3-2,7.3-8.2,4.6-13.1
				l-5.9-10.7l24.8,7.4c2.5,0.8,5.2,0.4,7.3-0.8c2-1.1,3.7-3.1,4.5-5.5c1.5-4.9-1.2-10.1-6.2-11.6l-24.6-7.3
				c9.4-6.9,12.6-19.7,6.8-30.1l-3-5.5C125.6,198.4,111.4,194.4,100.1,200.7L100.1,200.7z M116.9,229.4l-9.2,5.1l-7.3-13.2l9.2-5.1
				c2.2-1.2,4.9-0.4,6.2,1.8l2.9,5.3C119.8,225.5,119.1,228.2,116.9,229.4z"/>
			<path class="st0" d="M154.4,191.3l19.5-10.8c4.2-2.3,6.2-7.6,4.1-11.9c-2.3-4.7-8-6.6-12.6-4.1l-19.3,10.7
				c-9.7,5.4-13.2,17.6-7.8,27.3l27.2,49.1c2.5,4.6,8.3,6.2,12.9,3.7l30.8-17.1c1.1-0.6,1.9-1.8,2.2-3.1c2.3-10-6.7-15.2-13.2-11.6
				l-20.4,11.3c-0.4,0.2-0.8,0.1-1-0.3l-7.5-13.5l20.7-11.5c4.2-2.3,6.2-7.6,4.1-11.9c-2.3-4.7-8-6.6-12.6-4.1l-21.1,11.7l-6.6-11.9
				C153.5,192.6,153.7,191.7,154.4,191.3L154.4,191.3z"/>
			<path class="st0" d="M272.4,105.1l-29.5,16.4c-2.6,1.4-4.2,4.1-4.2,6.9c0,8.1,7.8,11.8,13.5,8.6l6.5-3.6l28.1,50.6
				c1.4,2.6,4.1,4.2,6.9,4.2c8.1,0,11.8-7.8,8.6-13.5l-27.8-50l7.1-4c2.6-1.4,4.2-4.1,4.2-6.9C286,105.7,278.2,101.9,272.4,105.1z"
				/>
			<path class="st0" d="M219.4,133.9c-4.6,2.5-6.3,8.4-3.7,13l13.6,24.5L200,151.4c-3.2-2.2-7.3-2.4-10.4-0.3c-4,2.7-5.2,7.9-2.9,12
				l32.7,58.9c2.3,4.2,7.6,6.2,11.9,4.1c4.7-2.3,6.6-8,4.1-12.6l-14-25.2l30.4,20.8c3,2,6.8,2.1,9.8,0.4c1.3-0.7,2.5-1.7,3.3-3.1
				c1.9-2.9,1.9-6.7,0.2-9.8l-32.7-58.9C229.8,133,224,131.4,219.4,133.9L219.4,133.9z"/>
		</g>
	</g>
</g>
</svg>
