<?xml version="1.0" encoding="utf-8"?>
<!-- Generator: Adobe Illustrator 21.1.0, SVG Export Plug-In . SVG Version: 6.00 Build 0)  -->
<svg version="1.1" id="Layer_1" xmlns="http://www.w3.org/2000/svg" xmlns:xlink="http://www.w3.org/1999/xlink" x="0px" y="0px"
	 viewBox="0 0 304 293" style="enable-background:new 0 0 304 293;" xml:space="preserve">
<style type="text/css">
	.st0{fill:#FFFFFF;}
</style>
<path class="st0" d="M262,112h-4.3H183h-48l46.2-46.2c11.7-11.7,11.7-30.8,0-42.4l-7.1-7.1c-11.7-11.7-30.8-11.7-42.4,0L75.8,72.2
	c-0.6,0.6-1.2,1.2-1.7,1.9l-56.4,56.3c-4.5,4.7-6.7,10.3-6.7,16.6c0,6.4,2.2,11.9,6.7,16.4L74,219.9c0.6,0.7,1.2,1.3,1.8,2
	l55.9,55.9c11.7,11.7,30.8,11.7,42.4,0l7.1-7.1c11.7-11.7,11.7-30.8,0-42.4L135,182h48h74.7h4.3c16.5,0,30-13.5,30-30v-10
	C292,125.5,278.5,112,262,112z"/>
</svg>
