<?xml version="1.0" encoding="utf-8"?>
<!-- Generator: Adobe Illustrator 21.1.0, SVG Export Plug-In . SVG Version: 6.00 Build 0)  -->
<svg version="1.1" id="Layer_1" xmlns="http://www.w3.org/2000/svg" xmlns:xlink="http://www.w3.org/1999/xlink" x="0px" y="0px"
	 viewBox="0 0 512 347.5" style="enable-background:new 0 0 512 347.5;" xml:space="preserve">
<style type="text/css">
	.st0{fill:#FDD2AF;}
</style>
<g>
	<path class="st0" d="M500.3,198.6c-18.2-13.1-25.2-30.1-27.8-40.6c6.7-12.7,4.2-28.5-6.7-38.5c1.8-2.4,2.9-5.5,2.9-8.8V66.9
		c0-33.2-26.2-60.1-58.4-60.1h-56.4c-15.2,0-29.7,6-40.7,17c-10.6,10.6-17.7,26-17.7,46.1v0c0,2.1,0,11.3,0,45.7
		c-9.5,5.6-15.8,15.8-15.8,27.6c0,8.9,3.7,17,9.6,22.8c-3.8,10-11.2,22.5-25.3,32.7c-3.9,2.8-5.1,8.1-2.8,12.3
		c3,5.4,13.1,20.6,35,29c-13.7,11.5-21.3,28.2-21.3,45.6V319c0,1,0.1,2,0.3,2.9h-29.4c1.7-3.5,2.7-7.4,2.7-11.6
		c0-40.3-25.7-74.8-61.6-87.7l-14.6-15.2c13.1-11,21.8-23.3,25.5-35.8c13.8-3.5,24.1-16,24.1-30.9c0-14.1-9.2-26.2-22-30.3v-8.6h1.9
		c6.1,0,11.1-5,11.1-11.1v-51c0-9.2-4.7-17.4-11.8-22.2v-3.3C201,7.9,195.5,3,188.3,3H85.5C59.8,3,39.6,17.9,39.6,36.9v52.6
		c0,7.8,6.6,14.2,15.7,15.7v6.1c-11.4,4.9-19.5,16.2-19.5,29.4c0,13.9,8.9,25.7,21.2,30.1c3.7,13.2,13,26.3,27.2,37.8l-13.5,14.1h0
		c-20.5,7.4-38.2,22-49.3,41.5c-2.1,3.6-0.8,8.2,2.8,10.3c3.6,2.1,8.2,0.8,10.3-2.8c8.2-14.3,20.5-25.4,34.9-32.1l13.1,41.2
		c2.4,7.4,13.3,12.2,22.2,7.3c0.2,3.8,1.9,7.3,4.4,9.8l-7.3,23.7H70.3v-29.3c0-4.2-3.4-7.5-7.5-7.5s-7.5,3.4-7.5,7.5v29.3H35.5
		c-6.2,0-11.2-5-11.2-11.2c0-4.3,0.4-8.7,1.1-12.9c0.7-4.1-2.1-8-6.2-8.7c-4.1-0.7-8,2.1-8.7,6.2c-0.8,5.1-1.3,10.3-1.3,15.4
		c0,0.6,0,1.2,0.1,1.8c0,0-0.1-2.1-0.1,0v5.9c0,10.5,8.5,19,19,19h3.7h433.7h5.4c10.5,0,19-8.5,19-19l-0.6-31.2c0-0.4,0-0.9,0-1.3
		c0-17.4-7.6-34.1-21.3-45.6c21.9-8.4,32-23.7,35-29C505.4,206.8,504.2,201.5,500.3,198.6z M199.8,127.1c4.2,3.1,6.9,8,6.9,13.6
		c0,5.6-2.7,10.5-6.9,13.6V127.1z M55.3,151.9c-5.8-6.4-5.8-16.2,0-22.6V151.9z M174.8,231.8c-1.9,6.1-12.1,38.2-13.7,43.1
		c-0.8,0.3-23.5-14.7-23.6-14.7v0c-0.8,1.4,12.6-21.4,24.5-41.6L174.8,231.8z M128.9,245.1C128.9,245.1,128.9,245.1,128.9,245.1
		C128.8,245.1,128.8,245.1,128.9,245.1C128.8,245.2,128.8,245.2,128.9,245.1C128.8,245.2,128.8,245.2,128.9,245.1
		C128.8,245.1,128.8,245.1,128.9,245.1C128.8,245.1,128.8,245.1,128.9,245.1C128.8,245.1,128.8,245.1,128.9,245.1
		c-0.1,0-0.1,0-0.1,0c0,0,0,0,0,0c0,0,0,0,0,0c0,0,0,0,0-0.1c0,0,0,0,0-0.1c0,0,0,0,0,0c0,0,0-0.1,0-0.1c0,0,0,0,0,0
		c-0.5-0.9-2.7-4.5-10.3-17.5c7.3,2.1,12.5,2.1,21.5-1c-7.9,13.5-10.3,17.4-10.9,18.4c0,0,0,0-0.1,0.1
		C128.9,245,128.9,245,128.9,245.1L128.9,245.1C128.9,245.1,128.9,245.1,128.9,245.1z M128.8,272.6l8.9,5.8c0,0.2,0,8.6,0,8.4h-17.9
		c0-0.3,0-9,0-8.4L128.8,272.6z M197.2,36.3c0.8,2.8,0.3,0.4,0.5,50.3h-15.9c-6.5,0-11.8-5.3-11.8-11.8v-5
		C180.6,61,191.5,49,197.2,36.3z M54.7,89V36.9c0-5.7,4.4-10.9,11.2-14.4c5.4-2.7,12.2-4.4,19.6-4.4h100.4c-0.1,2,1,6.9-5.2,17.2
		C146,93.7,59.1,92.8,54.7,89z M73.6,172c-4.4-9.9-3.2-10.7-3.2-66.5c1.1-0.2,43.2,2.4,85.1-24.9c2.6,12.1,13.4,21.1,26.2,21.1h2.9
		V158c0,27.8-42,55.8-57.1,55.8C116,213.8,83.7,194.9,73.6,172z M96.6,274.9c-0.5-1.5-0.8-2.6-1.1-3.3c-1.6-4.9-5.1-16.2-12.6-39.8
		l12.7-13.3c0.1,0.1,24.1,40.9,24.5,41.6v0C95.5,276.2,97.4,275.2,96.6,274.9z M117.7,321.6l6.1-19.7h10.4l6.3,19.7H117.7z
		 M222.1,321.6h-19.7v-29.3c0-4.2-3.4-7.5-7.5-7.5s-7.5,3.4-7.5,7.5v29.3h-30.9l-7.7-24.1c2.4-2.5,3.9-5.8,4.1-9.4
		c9,5,19.8,0,22.2-7.3l13.1-41.3c26.7,12.5,45.2,39.5,45.2,70.9C233.3,316.5,228.3,321.6,222.1,321.6z M453.2,157.4v-28.6
		C463.8,135.4,463.8,150.8,453.2,157.4z M353.9,21.9h56.4c24,0,43.3,20.3,43.3,45v43.2c-0.2,0-0.3,0-0.5,0
		c-5.9-0.4-11.3-3.1-15.1-7.5c-3.5-4-3.7-6.5-10-20.1c-2.2-4.8-6.8-7.8-12-7.8c-5.6,0-10.4,3.4-12.4,8.6
		c-2.5,6.6-6.4,12.6-11.7,17.8c-3,2.9-3,7.7-0.1,10.7c2.9,3,7.7,3,10.7,0.1c5.8-5.7,10.4-12.1,13.6-19.2c4.1,8,5.2,15.4,14.1,23.3
		c-11-4.3-25-1.6-26.8-1.2c-4.1,0.9-6.7,4.8-5.8,8.9c0.8,4.1,4.8,6.7,8.9,5.9c5.2-1.1,15.1-1.6,19.7,1.3c6.6,4.1,14.5-3.3,10.5-10.2
		c0.4,0.2,0.9,0.5,1.3,0.7v39.2c0,29.2-43.7,55.9-57.2,55.9c-10,0-37.7-15.2-50.5-35.4v-52.7c13.7,4.6,28.8,5,43.3,0.5
		c4-1.2,6.2-5.4,5-9.4c-1.2-4-5.4-6.2-9.4-5c-11.5,3.5-23.9,3.3-35.3-0.8c-3.6-1.3-7.5-1-10.3,0.3c-4.9,2.1-8.3,7-8.4,12.7
		c0,61.2,0.2,57-0.4,57.9c-0.4,0.6-1.1,1-1.9,1c-1.3,0-2.3-1-2.3-2.3c0-36.4,0-73.3,0-113.9C310.7,39.1,332.4,21.9,353.9,21.9z
		 M406.2,223.2v6.1l-20.4,30.7c-0.6,0.9-2.1,1.6-3.6,1.7c-1.3-0.1-2.9-0.7-3.7-2c-0.4-0.6-19.8-29.8-20.3-30.5v-4.8
		c8.6,4.4,16.8,7,22.7,7C387.4,231.6,396.6,228.4,406.2,223.2z M277,207.7c8.3-6.7,14.4-14.1,18.9-21.2
		c2.4,12.7,17.3,18.4,27.5,10.7c5.7,6.9,12.6,13,19.7,18.2v10.8c-9.7,0.1-17-0.6-28.2,3.3C293.3,225.9,282,214.5,277,207.7z
		 M474.3,285.5V319c0,1.6-1.3,2.8-2.9,2.8H292.8c-1.6,0-2.8-1.3-2.8-2.8v-33.5c0-24.9,20-44.3,44.3-44.3h13.6
		c8.5,12.9,4.3,6.5,18.1,27.2c7.5,11.2,24.8,11.3,32.3,0c13-19.6,16.8-25.4,17.8-26.8c0,0,0,0,0,0c0,0,0,0,0,0c0,0,0,0,0,0
		c0,0,0,0,0,0c0,0,0,0,0-0.1c0,0,0,0,0-0.1c0,0,0,0,0,0c0,0,0,0,0,0c0,0,0.1-0.1,0.1-0.1c0,0,0,0,0,0c0,0,0,0,0,0c0,0,0,0,0,0
		c0-0.1,0.1-0.1,0.1-0.1c14.6-0.1,17.5,0.1,17.7,0.2C456.7,243.4,474.3,262.2,474.3,285.5z M449.5,229.4c-12.9-4.5-22.2-3-28.2-3.3
		v-12.7c13-9.8,25.1-23.4,29.8-39.1c3.4-0.7,6.6-2,9.6-3.8c4.2,11.2,12,25.2,26.7,37.1C482.3,214.5,471,225.9,449.5,229.4z"/>
	<path class="st0" d="M95.5,271.6C98.7,281.4,93.7,265.7,95.5,271.6L95.5,271.6z"/>
	<path class="st0" d="M129,244.9c0,0-0.1,0.1-0.1,0.2C128.9,245,128.9,245,129,244.9C129,244.9,129,244.9,129,244.9z"/>
	<circle class="st0" cx="162" cy="140.8" r="7.7"/>
	<path class="st0" d="M152.2,122.3c5.2-1.1,15-1.6,19.7,1.3c1.2,0.8,2.6,1.2,4,1.2c7.6,0,10.4-9.9,4-13.9
		c-11.2-7.1-28.8-3.7-30.8-3.3c-4.1,0.9-6.7,4.8-5.8,8.9C144.1,120.6,148.1,123.2,152.2,122.3z"/>
	<circle class="st0" cx="95.7" cy="140.8" r="7.7"/>
	<path class="st0" d="M103.5,122.3c4.1,0.8,8.1-1.8,8.9-5.8c0.8-4.1-1.8-8.1-5.9-8.9c-2-0.4-19.5-3.8-30.8,3.3
		c-3.5,2.2-4.6,6.9-2.4,10.4c2.2,3.5,6.9,4.6,10.4,2.4C88.4,120.7,98.3,121.3,103.5,122.3z"/>
	<path class="st0" d="M128.8,193.4c22.1,0,29.1-29.8,14.7-29.8c-4.2,0-7.5,3.4-7.5,7.5c0,4-3.2,7.2-7.2,7.2c-4,0-7.2-3.2-7.2-7.2
		c0-4.2-3.4-7.5-7.5-7.5C99.7,163.6,106.7,193.4,128.8,193.4z"/>
	<path class="st0" d="M376.8,168.6c0-4.2-3.4-7.5-7.5-7.5s-7.5,3.4-7.5,7.5c0,11.3,9.2,20.5,20.5,20.5s20.5-9.2,20.5-20.5
		c0-4.2-3.4-7.5-7.5-7.5s-7.5,3.4-7.5,7.5c0,3-2.4,5.4-5.4,5.4S376.8,171.6,376.8,168.6z"/>
	<circle class="st0" cx="415.4" cy="140.3" r="7.7"/>
	<circle class="st0" cx="349" cy="140.3" r="7.7"/>
</g>
</svg>
