<?xml version="1.0" encoding="utf-8"?>
<!-- Generator: Adobe Illustrator 21.1.0, SVG Export Plug-In . SVG Version: 6.00 Build 0)  -->
<svg version="1.1" id="Layer_1" xmlns="http://www.w3.org/2000/svg" xmlns:xlink="http://www.w3.org/1999/xlink" x="0px" y="0px"
	 viewBox="0 0 480 480" style="enable-background:new 0 0 480 480;" xml:space="preserve">
<style type="text/css">
	.st0{fill:#FDD2AF;}
</style>
<path class="st0" d="M424,185.9V96c0-22.1-17.9-40-40-40H96c-22.1,0-40,17.9-40,40v89.9C23.3,193.3,0.1,222.4,0,256v112
	c0,4.4,3.6,8,8,8h8v40c0,4.4,3.6,8,8,8h32c4.4,0,8-3.6,8-8v-40h352v40c0,4.4,3.6,8,8,8h32c4.4,0,8-3.6,8-8v-40h8c4.4,0,8-3.6,8-8
	V256C479.9,222.4,456.7,193.3,424,185.9z M72,96c0-13.3,10.7-24,24-24h288c13.3,0,24,10.7,24,24v88h-32v-40c0-13.3-10.7-24-24-24
	h-80c-13.3,0-24,10.7-24,24v40h-16v-40c0-13.3-10.7-24-24-24h-80c-13.3,0-24,10.7-24,24v40H72V96z M360,184h-96v-40c0-4.4,3.6-8,8-8
	h80c4.4,0,8,3.6,8,8V184z M216,184h-96v-40c0-4.4,3.6-8,8-8h80c4.4,0,8,3.6,8,8V184z M16,256c0-30.9,25.1-56,56-56h336
	c30.9,0,56,25.1,56,56v72H16V256z M48,408H32v-32h16V408z M448,408h-16v-32h16V408z M464,360H16v-16h448V360z"/>
<path class="st0" d="M400,304h-16c-4.4,0-8,3.6-8,8s3.6,8,8,8h16c4.4,0,8-3.6,8-8S404.4,304,400,304z"/>
<path class="st0" d="M448,280c-4.4,0-8,3.6-8,8v16h-16c-4.4,0-8,3.6-8,8s3.6,8,8,8h24c4.4,0,8-3.6,8-8v-24
	C456,283.6,452.4,280,448,280z"/>
<path class="st0" d="M72,208c-26.5,0-48,21.5-48,48v56c0,4.4,3.6,8,8,8s8-3.6,8-8v-56c0-17.7,14.3-32,32-32c4.4,0,8-3.6,8-8
	S76.4,208,72,208z"/>
</svg>
