<?xml version="1.0" encoding="utf-8"?>
<!-- Generator: Adobe Illustrator 21.1.0, SVG Export Plug-In . SVG Version: 6.00 Build 0)  -->
<svg version="1.1" id="Layer_1" xmlns="http://www.w3.org/2000/svg" xmlns:xlink="http://www.w3.org/1999/xlink" x="0px" y="0px"
	 viewBox="0 0 667 553.7" style="enable-background:new 0 0 667 553.7;" xml:space="preserve">
<style type="text/css">
	.st0{fill:#EC517D;}
	.st1{fill:#FFFFFF;}
</style>
<path class="st0" d="M508.4,520.9L79.1,521c-34.1,0-57.7-24.9-52.3-55.4l62.8-357.3C95,77.3,127.6,51.9,162,51.8l435,0
	c34.5,0,56.1,24.8,50.4,55.7l-66.5,357.8C575.3,495.9,542.6,520.9,508.4,520.9z"/>
<path class="st1" d="M383.3,267.4v-55.2c0-16.9,17.5-20.9,25.7-20.9c8.1,0,48.9,0,48.9,0v-74.4l-56-0.3c-76.4,0-93.8,55.5-93.8,91.2
	v59.6h-55.4v76.7h55.4c0,66.5,0,137.7,0,176.9h75.3c0-39.4,0-111,0-176.9h64l11.7-76.7L383.3,267.4L383.3,267.4z"/>
</svg>
