<?xml version="1.0" encoding="utf-8"?>
<!-- Generator: Adobe Illustrator 21.1.0, SVG Export Plug-In . SVG Version: 6.00 Build 0)  -->
<svg version="1.1" id="Layer_1" xmlns="http://www.w3.org/2000/svg" xmlns:xlink="http://www.w3.org/1999/xlink" x="0px" y="0px"
	 viewBox="0 0 1847 291" style="enable-background:new 0 0 1847 291;" xml:space="preserve">
<style type="text/css">
	.st0{display:none;}
	.st1{display:inline;fill:#FFFFFF;}
	.st2{display:inline;}
	.st3{fill:#FDD2AF;}
	.st4{fill:#FFFFFF;}
</style>
<g class="st0">
	<path class="st1" d="M186.6,203.3V112l-38.5,91.2h-8.9L100.8,112v91.2H90.5V100.8h15.9l37.3,87.2l37.2-87.2h15.9v102.5H186.6z"/>
	<path class="st1" d="M283.1,203.3v-13.3c-8,10.8-16.4,15.1-29.3,15.1c-23.3,0-40.6-16.9-40.6-39.5c0-22.7,17.2-39.9,39.9-39.9
		c13.2,0,22.5,4.7,29.9,15.3v-13.4h10.3v75.8H283.1z M253.4,135c-16.5,0-29.8,13.3-29.8,29.8c0,17.3,13.2,30.8,30.4,30.8
		c16.4,0,29.1-13.4,29.1-30.6C283.1,148.1,270.1,135,253.4,135z"/>
	<path class="st1" d="M378.1,203.3v-13.7c-7.6,11-16.2,15.5-28.8,15.5c-23.4,0-41.3-17.2-41.3-39.7c0-22.6,17.5-39.8,40.3-39.8
		c11.9,0,22.3,4.9,29.8,13.9v-38.7h10.3v102.5H378.1z M348,135c-16.5,0-29.7,13.3-29.7,29.9c0,17.3,13.3,30.6,30.6,30.6
		c16.2,0,29.5-13.9,29.5-30.5C378.5,148.5,364.8,135,348,135z"/>
	<path class="st1" d="M413.1,168.7c0.8,15,14,26.9,29.5,26.9c11.5,0,22.2-6.9,26.5-17.3h10.7c-4.9,14.4-19.7,26.8-36.9,26.8
		c-22.5,0-40.1-17.6-40.1-40.1c0-22,17.3-39.4,39.4-39.4c22.5,0,39.5,16.2,39.5,43.1H413.1z M442.1,135c-14.4,0-25.9,9.8-28.7,24.4
		h58.1C468,144.3,456.8,135,442.1,135z"/>
	<path class="st1" d="M610.4,203.3h-11L583,152.9l-16.4,50.3h-11.1l-29-75.8h10.3l24.1,63.5l17.9-54.2h8.5l17.9,54.2l24.7-63.5h10
		L610.4,203.3z"/>
	<path class="st1" d="M649.5,119.1v-17.5h10.3v17.5H649.5z M649.5,203.3v-75.8h10.3v75.8H649.5z"/>
	<path class="st1" d="M696.8,136.7v66.5h-10.3v-66.5h-16.4v-9.3h16.4v-26.6h10.3v26.6h17.1v9.3H696.8z"/>
	<path class="st1" d="M781.1,203.3v-40.8c0-18.9-9.6-27.5-23.4-27.5c-13.2,0-23.2,8-23.2,26.6v41.6h-10.3V100.8h10.3v36.5
		c5.1-7.5,13.7-11.6,24.1-11.6c19.7,0,32.7,11.5,32.7,36.9v40.8H781.1z"/>
	<path class="st1" d="M1116,119.1v-17.5h10.3v17.5H1116z M1116,203.3v-75.8h10.3v75.8H1116z"/>
	<path class="st1" d="M1200.6,203.3v-39.8c0-20.7-9.4-28.4-23.4-28.4c-13.7,0-23.2,7.9-23.2,26.5v41.7h-10.3v-75.8h10.3v9.8
		c6.4-7.8,14.4-11.6,24.4-11.6c19,0,32.4,11.2,32.4,37.8v39.8H1200.6z"/>
	<path class="st1" d="M1268.5,203.3V100.8h10.3V194h42.4v9.3H1268.5z"/>
	<path class="st1" d="M1368.5,205.1c-23.6,0-40.6-16.9-40.6-40.2c0-22.2,17.3-39.2,39.8-39.2c22.7,0,39.4,16.8,39.4,39.9
		C1407,188.3,1390.6,205.1,1368.5,205.1z M1367.6,135c-16.8,0-29.4,12.9-29.4,30.1c0,17.7,12.5,30.5,29.9,30.5
		c16.5,0,28.4-12.6,28.4-29.9C1396.6,148.1,1384.3,135,1367.6,135z"/>
	<path class="st1" d="M1478.4,203.3v-39.8c0-20.7-9.4-28.4-23.4-28.4c-13.7,0-23.2,7.9-23.2,26.5v41.7h-10.3v-75.8h10.3v9.8
		c6.4-7.8,14.4-11.6,24.4-11.6c19,0,32.4,11.2,32.4,37.8v39.8H1478.4z"/>
	<path class="st1" d="M1573.4,203.3v-13.7c-7.6,11-16.2,15.5-28.8,15.5c-23.4,0-41.3-17.2-41.3-39.7c0-22.6,17.5-39.8,40.3-39.8
		c11.9,0,22.3,4.9,29.8,13.9v-38.7h10.3v102.5H1573.4z M1543.3,135c-16.5,0-29.7,13.3-29.7,29.9c0,17.3,13.3,30.6,30.6,30.6
		c16.2,0,29.5-13.9,29.5-30.5C1573.8,148.5,1560,135,1543.3,135z"/>
	<path class="st1" d="M1638.8,205.1c-23.6,0-40.6-16.9-40.6-40.2c0-22.2,17.3-39.2,39.8-39.2c22.7,0,39.4,16.8,39.4,39.9
		C1677.3,188.3,1661,205.1,1638.8,205.1z M1638,135c-16.8,0-29.4,12.9-29.4,30.1c0,17.7,12.5,30.5,29.9,30.5
		c16.5,0,28.4-12.6,28.4-29.9C1666.9,148.1,1654.6,135,1638,135z"/>
	<path class="st1" d="M1748.7,203.3v-39.8c0-20.7-9.4-28.4-23.4-28.4c-13.7,0-23.2,7.9-23.2,26.5v41.7h-10.3v-75.8h10.3v9.8
		c6.4-7.8,14.4-11.6,24.4-11.6c19,0,32.4,11.2,32.4,37.8v39.8H1748.7z"/>
</g>
<g class="st0">
	<g class="st2">
	</g>
	<g class="st2">
	</g>
	<g class="st2">
	</g>
	<g class="st2">
	</g>
	<g class="st2">
	</g>
	<g class="st2">
	</g>
	<g class="st2">
	</g>
	<g class="st2">
	</g>
	<g class="st2">
	</g>
	<g class="st2">
	</g>
	<g class="st2">
	</g>
	<g class="st2">
	</g>
	<g class="st2">
	</g>
	<g class="st2">
	</g>
	<g class="st2">
	</g>
</g>
<g class="st0">
	<g class="st2">
	</g>
	<g class="st2">
	</g>
	<g class="st2">
	</g>
	<g class="st2">
	</g>
	<g class="st2">
	</g>
	<g class="st2">
	</g>
	<g class="st2">
	</g>
	<g class="st2">
	</g>
	<g class="st2">
	</g>
	<g class="st2">
	</g>
	<g class="st2">
	</g>
	<g class="st2">
	</g>
	<g class="st2">
	</g>
	<g class="st2">
	</g>
	<g class="st2">
	</g>
</g>
<g>
	<g>
		<path class="st3" d="M999.7,102.1c4.1,1.1,7.9,3.4,11,6.4c4.3,4.3,6.9,10.1,7.3,16.2c0.2,2.5,2.2,4.4,4.7,4.4c0.1,0,0.2,0,0.3,0
			c0.1,0,0.1,0,0.2,0c0.1,0,0.3,0,0.4,0c0.1,0,0.2,0,0.3,0c2.6-0.2,4.6-2.4,4.4-5c-0.5-8.4-4.1-16.4-10.1-22.3
			c-4.2-4.2-9.5-7.3-15.2-8.9c-0.6-0.2-1.1-0.2-1.7-0.1c-2.2-0.2-4.4,1.2-5,3.4C995.7,98.7,997.1,101.4,999.7,102.1z"/>
	</g>
	<g>
		<path class="st3" d="M1030.3,90.5c-9.7-9.9-22.7-15.4-36.6-15.4c-0.1,0-0.3,0-0.4,0c-0.1,0-0.3,0-0.4,0c-13.7,0-26.5,5.3-36.2,15
			l-4.6,4.6l-4.6-4.6c-9.7-9.7-22.5-15-36.2-15c-0.1,0-0.3,0-0.4,0c-0.1,0-0.3,0-0.4,0c-13.7,0-26.5,5.3-36.2,15
			c-9.7,9.7-15,22.5-15,36.2s5.3,26.5,15,36.2l64,64c3.7,3.7,8.6,5.5,13.4,5.5c0.1,0,0.3,0,0.4,0c0.1,0,0.3,0,0.4,0
			c4.9,0,9.7-1.8,13.4-5.5l63.6-63.6C1049.5,142.9,1049.9,110.4,1030.3,90.5z M945.8,219.8l-64-64c-7.9-7.9-12.2-18.4-12.2-29.5
			c0-11.1,4.3-21.6,12.2-29.5c7.8-7.8,18.1-12.1,29.1-12.2c11,0.1,21.3,4.4,29.1,12.2l5,5l-7.7,7.7c-1.9,1.9-1.8,4.9,0,6.7
			c0.9,0.9,2.1,1.4,3.3,1.4c0.1,0,0.3,0,0.4,0c0.1,0,0.3,0,0.4,0c1.2,0,2.4-0.5,3.4-1.4l19.3-19.4c7.8-7.8,18.1-12.1,29.1-12.2
			c11.2,0.1,21.6,4.6,29.4,12.6c15.9,16.3,15.6,42.8-0.8,59.1l-63.6,63.6c-1.7,1.7-4,2.7-6.3,2.8
			C949.8,222.4,947.6,221.5,945.8,219.8z"/>
	</g>
</g>
<g>
	<path class="st4" d="M176.5,203.3l16.9-91.2l-55.5,91.2H129L107.6,112l-16.9,91.2H80.4l19-102.5h15.9l21.1,87.2l53.4-87.2h15.9
		l-19,102.5H176.5z"/>
	<path class="st4" d="M272.9,203.3l2.5-13.3c-11.2,11.4-19.1,15.1-32,15.1c-20.4,0-34-12.8-34-31.7c0-25.6,22.2-47.7,48-47.7
		c12.2,0,21.2,3.9,27,15.3l2.5-13.4h10.3l-14,75.8H272.9z M256.4,135c-19.3,0-36.3,16.8-36.3,35.6c0,14.8,10.3,25,25.4,25
		c18.4,0,35.1-17.5,35.1-36.6C280.6,145.2,270.3,135,256.4,135z"/>
	<path class="st4" d="M367.9,203.3l2.5-13.7c-9.8,11.1-19,15.5-32,15.5c-19.8,0-34.2-13.4-34.2-31.9c0-25.4,22.6-47.6,48.5-47.6
		c11.9,0,20.7,4.4,27,13.9l7.2-38.7h10.3l-19,102.5H367.9z M350.4,135c-18.6,0-35.6,16.9-35.6,35.5c0,15,10.4,25.1,25.6,25.1
		c18.3,0,35.5-17.6,35.5-36.5C375.9,145.3,365,135,350.4,135z"/>
	<path class="st4" d="M409.2,168.7c-0.1,1.7-0.3,2.9-0.3,3.9c0,12.9,11,23,24.8,23c11.4,0,23.7-7.2,29.7-17.3h10.7
		c-8.9,16.4-25.4,26.8-42.1,26.8c-18.9,0-32.9-13.7-32.9-32.3c0-25,22.2-47.1,47.1-47.1c19.3,0,32.9,13,32.9,31.6
		c0,3.3-0.3,6-1.2,11.5H409.2z M444.4,135c-14.4,0-28.1,10.1-33.1,24.4h58.1C468.7,144.5,459.1,135,444.4,135z"/>
	<path class="st4" d="M600.3,203.3h-11l-7.2-50.3l-25.6,50.3h-11.1l-15-75.8h10.3l12.3,63.5l28-54.2h8.5l7.8,54.2l36.5-63.5h10
		L600.3,203.3z"/>
	<path class="st4" d="M639.3,203.3l14-75.8h10.3l-14,75.8H639.3z M655,119.1l3.2-17.5h10.3l-3.2,17.5H655z"/>
	<path class="st4" d="M698.1,136.7l-12.3,66.5h-10.3l12.3-66.5h-15.5l1.7-9.3h15.5l5-26.6h10.3l-5,26.6h17.9l-1.7,9.3H698.1z"/>
	<path class="st4" d="M770.6,203.3l7.5-40.8c0.4-2.6,1-7.6,1-10c0-10.3-8-17.5-19.3-17.5c-13.7,0-24.4,9-27.7,26.6l-7.8,41.6h-10.3
		l19-102.5h10.3l-6.8,36.5c6.8-7.5,15.8-11.6,25.6-11.6c17.5,0,27.6,9.4,27.6,25.5c0,3.5-0.1,4.4-1.4,11.4l-7.5,40.8H770.6z"/>
	<path class="st4" d="M1105.8,203.3l14-75.8h10.3l-14,75.8H1105.8z M1121.5,119.1l3.2-17.5h10.3l-3.2,17.5H1121.5z"/>
	<path class="st4" d="M1190.1,203.3l7.3-39.8c0.7-3.9,1.1-7.5,1.1-10.3c0-11.1-7.5-18.2-19.3-18.2c-13.4,0-24.3,7.8-27.7,26.5
		l-7.8,41.7h-10.3l14-75.8h10.3l-1.8,9.8c8.2-7.9,16.6-11.6,26.1-11.6c16.6,0,27.2,9.8,27.2,25.1c0,3.6-0.3,6.2-1.5,12.8l-7.3,39.8
		H1190.1z"/>
	<path class="st4" d="M1258.3,203.3l19-102.5h10.3l-17.3,93.2h42.4l-1.7,9.3H1258.3z"/>
	<path class="st4" d="M1358,205.1c-20.1,0-34.1-12.9-34.1-31.6c0-26.3,23-47.8,48.2-47.8c19.3,0,32.4,12.8,32.4,31.6
		C1404.6,183.4,1382,205.1,1358,205.1z M1370.4,135c-19.4,0-35.8,16.8-35.8,36.6c0,14.3,10,24,24.8,24c19.3,0,34.5-16.5,34.5-37.4
		C1393.9,144.7,1383.9,135,1370.4,135z"/>
	<path class="st4" d="M1468,203.3l7.3-39.8c0.7-3.9,1.1-7.5,1.1-10.3c0-11.1-7.5-18.2-19.3-18.2c-13.4,0-24.3,7.8-27.7,26.5
		l-7.8,41.7h-10.3l14-75.8h10.3l-1.8,9.8c8.2-7.9,16.6-11.6,26.1-11.6c16.6,0,27.2,9.8,27.2,25.1c0,3.6-0.3,6.2-1.5,12.8l-7.3,39.8
		H1468z"/>
	<path class="st4" d="M1563.2,203.3l2.5-13.7c-9.8,11.1-19,15.5-32,15.5c-19.8,0-34.2-13.4-34.2-31.9c0-25.4,22.6-47.6,48.5-47.6
		c11.9,0,20.7,4.4,27,13.9l7.2-38.7h10.3l-19,102.5H1563.2z M1545.7,135c-18.6,0-35.6,16.9-35.6,35.5c0,15,10.4,25.1,25.6,25.1
		c18.3,0,35.5-17.6,35.5-36.5C1571.2,145.3,1560.3,135,1545.7,135z"/>
	<path class="st4" d="M1628.4,205.1c-20.1,0-34.1-12.9-34.1-31.6c0-26.3,23-47.8,48.2-47.8c19.3,0,32.4,12.8,32.4,31.6
		C1674.9,183.4,1652.3,205.1,1628.4,205.1z M1640.7,135c-19.4,0-35.8,16.8-35.8,36.6c0,14.3,10,24,24.8,24
		c19.3,0,34.5-16.5,34.5-37.4C1664.3,144.7,1654.3,135,1640.7,135z"/>
	<path class="st4" d="M1738.3,203.3l7.3-39.8c0.7-3.9,1.1-7.5,1.1-10.3c0-11.1-7.5-18.2-19.3-18.2c-13.4,0-24.3,7.8-27.7,26.5
		l-7.8,41.7h-10.3l14-75.8h10.3l-1.8,9.8c8.2-7.9,16.6-11.6,26.1-11.6c16.6,0,27.2,9.8,27.2,25.1c0,3.6-0.3,6.2-1.5,12.8l-7.3,39.8
		H1738.3z"/>
</g>
<g class="st0">
	<g class="st2">
		<g>
			<g>
				<path class="st3" d="M1016.9,72.6c-7.1-6.8-16.9-10.5-27.7-10.5c-12,0-22.4,4.8-30.1,14c-0.6,0.7-1.1,1.4-1.6,2
					c-0.5-0.7-1-1.4-1.6-2c-7.7-9.1-18.1-14-30.1-14c-10.8,0-20.6,3.7-27.7,10.5c-6.7,6.4-10.4,15-10.4,24.2c0,10,4.6,19.2,14.3,29
					c8.5,8.5,20.7,17.3,34.9,27.5c5.2,3.8,10.6,7.6,16.4,11.9c1.2,0.9,2.7,1.3,4.2,1.3c1.5,0,3-0.4,4.2-1.3
					c5.7-4.2,11.2-8.1,16.4-11.9c9.1-6.5,16.9-12.2,23.8-17.6c13.2-10.6,25.5-22.7,25.5-38.8C1027.3,87.6,1023.6,79,1016.9,72.6z
					 M993.1,127.7c-6.6,5.3-14.3,10.8-23.2,17.2c-4,2.9-8.1,5.8-12.3,8.9c-4.3-3.1-8.4-6-12.3-8.9c-27.9-20-44.7-32.1-44.7-48.1
					c0-13.6,10.9-23.8,25.3-23.8c7.7,0,14.3,3.1,19.5,9.2c4.3,5,6,10.2,6.1,10.2c0.8,2.4,3.3,4,6.2,4s5.4-1.6,6.2-4
					c0.1-0.2,6.5-19.4,25.5-19.4c14.4,0,25.3,10.2,25.3,23.8C1014.5,106.6,1008.5,115.3,993.1,127.7z"/>
			</g>
		</g>
	</g>
	<g class="st2">
		<g>
			<g>
				<path class="st3" d="M1041.3,171.5c-3.5,0.8-6.7,2.5-9.2,4.7l-19,17.3c-2.5-6.7-9.8-11.6-18.5-11.6h-29.9
					c-4.1,0-8.1-1.2-11.1-3.5c-16.9-12.8-42.4-12.9-59.5-0.5c-3.5-4.2-9.3-7-15.9-7h-26.8c-3.5,0-6.4,2.4-6.4,5.4v66.3
					c0,2.9,2.8,5.3,6.2,5.3h27c5.8,0,11-2.2,14.6-5.6l4.6,1.1c12.6,3,25.6,4.5,38.7,4.5h59.4c13.7,0,26.6-5.5,34.8-14.8l31.6-35.8
					l0.5-0.6c1.6-2,2.7-4.3,3.1-6.6C1067.6,178.4,1055.2,168.5,1041.3,171.5z M878.6,237h-19.5v-54h19.5c3.5,0,6.4,2.4,6.4,5.4v43.1
					C885,234.6,882.1,237,878.6,237z M1051.8,190.8C1051.8,190.8,1051.8,190.8,1051.8,190.8l-37.1,42.1c-2.3,2.6-5.9,4.1-9.7,4.1
					h-79.5c-4.7,0-9.3-0.5-13.8-1.6l-13.8-3.3c0-0.2,0-0.4,0-0.6V190l9.4-7.1c10.4-7.8,26.1-6.8,35.6,1.9c5.7,5.3,13.7,8.2,22.1,8.2
					h30.6c1.8,0,3.5,0.7,4.5,2c3.3,4.4-0.3,9-5.2,9h-46.7c-3.1,0-5.9,1.8-6.5,4.3c-0.9,3.6,2.3,6.7,6.3,6.7h56.5c2,0,3.9-0.7,5.3-2
					l32.6-29.8c0.2-0.2,0.4-0.3,0.6-0.4c5-2.3,10,0.7,10,4.7C1053.1,188.7,1052.7,189.8,1051.8,190.8z"/>
			</g>
		</g>
	</g>
	<g class="st2">
	</g>
	<g class="st2">
	</g>
	<g class="st2">
	</g>
	<g class="st2">
	</g>
	<g class="st2">
	</g>
	<g class="st2">
	</g>
	<g class="st2">
	</g>
	<g class="st2">
	</g>
	<g class="st2">
	</g>
	<g class="st2">
	</g>
	<g class="st2">
	</g>
	<g class="st2">
	</g>
	<g class="st2">
	</g>
	<g class="st2">
	</g>
	<g class="st2">
	</g>
</g>
</svg>
