<?xml version="1.0" encoding="utf-8"?>
<!-- Generator: Adobe Illustrator 21.1.0, SVG Export Plug-In . SVG Version: 6.00 Build 0)  -->
<svg version="1.1" id="Layer_1" xmlns="http://www.w3.org/2000/svg" xmlns:xlink="http://www.w3.org/1999/xlink" x="0px" y="0px"
	 viewBox="0 0 512 512" style="enable-background:new 0 0 512 512;" xml:space="preserve">
<style type="text/css">
	.st0{fill:#FCC192;}
	.st1{fill:#FFFFFF;}
</style>
<g>
	<g>
		<path class="st0" d="M501,253c-0.1-11.2-9.3-20.2-20.4-20.2c-0.1,0-0.2,0-0.3,0c-11.3,0.1-20.3,9.4-20.2,20.7
			c1.1,90.2-58.4,171.6-144.8,197.8c-80.8,24.5-168.8-4.1-220.2-69.7l70.2,9.5c11.2,1.5,21.5-6.3,23-17.5s-6.3-21.5-17.5-23
			L53.9,334.8c-9.5-1-20.8,3.7-23,17.5L15.2,469c-1.5,11.2,6.3,21.5,17.5,23c0.9,0.1,1.8,0.2,2.8,0.2c10.1,0,18.8-7.4,20.2-17.7
			l8.9-65.7c46.9,58.7,118.5,92.1,192.3,92.1c23.5,0,47.2-3.4,70.4-10.4C430.9,459,502.3,361.3,501,253z"/>
		<path class="st0" d="M338.7,225.3l-72.6-59.9c-3.4-2.8-8.2-2.8-11.6,0L182,225.3c-2.1,1.7-3.3,4.3-3.3,7v90.3c0,5,4.1,9.1,9.1,9.1
			h145.1c5,0,9.1-4.1,9.1-9.1v-90.3C342,229.6,340.8,227,338.7,225.3z M270,313.5h-19.2v-50.3H270L270,313.5L270,313.5z
			 M323.8,313.5h-35.7v-59.4c0-5-4.1-9.1-9.1-9.1h-37.4c-5,0-9.1,4.1-9.1,9.1v59.4h-35.7v-76.9l63.5-52.4l63.5,52.4V313.5z"/>
		<path class="st1" d="M31.4,279.1c0.1,0,0.2,0,0.3,0C43,279,52,269.7,51.9,258.5c-1.1-90.3,58.4-171.6,144.8-197.8
			c79.9-24.2,167,3.5,218.6,67.7l-68.8-9.3c-11.2-1.6-21.5,6.3-23,17.5s6.3,21.5,17.5,23l116.9,15.9c16.4,1.3,22.5-11.3,23-17.5
			l15.8-116.7c1.5-11.2-6.3-21.5-17.5-23c-11.2-1.4-21.5,6.3-23,17.5l-9.1,67.1c-61.9-77-166.3-110.3-262.3-81.2
			C81.1,53,9.7,150.7,11,259C11.2,270.2,20.3,279.1,31.4,279.1L31.4,279.1z"/>
	</g>
</g>
</svg>
