<?xml version="1.0" encoding="utf-8"?>
<!-- Generator: Adobe Illustrator 21.1.0, SVG Export Plug-In . SVG Version: 6.00 Build 0)  -->
<svg version="1.1" id="Layer_1" xmlns="http://www.w3.org/2000/svg" xmlns:xlink="http://www.w3.org/1999/xlink" x="0px" y="0px"
	 viewBox="0 0 1928.4 369.3" style="enable-background:new 0 0 1928.4 369.3;" xml:space="preserve">
<style type="text/css">
	.st0{fill:#FFFFFF;}
	.st1{fill:#B81E49;}
	.st2{fill:#FDD2AF;}
</style>
<path class="st0" d="M1040.9,145.4h114.7v21.4h-45.1v120.3h-24.8V166.8h-44.9L1040.9,145.4L1040.9,145.4z M1150.7,184.5h21.2v19.8
	h0.4c0.7-2.8,2-5.5,3.9-8.1c1.9-2.6,4.2-5.1,6.9-7.2c2.7-2.2,5.7-3.9,9-5.3c3.3-1.3,6.7-2,10.1-2c2.6,0,4.5,0.1,5.5,0.2
	s2,0.3,3.1,0.4v21.8c-1.6-0.3-3.2-0.5-4.9-0.7c-1.7-0.2-3.3-0.3-4.9-0.3c-3.8,0-7.4,0.8-10.8,2.3c-3.4,1.5-6.3,3.8-8.8,6.7
	c-2.5,3-4.5,6.6-6,11s-2.2,9.4-2.2,15.1V287h-22.6L1150.7,184.5L1150.7,184.5z M1314.7,287.1h-22.2v-14.3h-0.4
	c-2.8,5.2-6.9,9.3-12.4,12.4c-5.5,3.1-11.1,4.7-16.8,4.7c-13.5,0-23.3-3.3-29.3-10c-6-6.7-9-16.8-9-30.3v-65.1h22.6v62.9
	c0,9,1.7,15.4,5.2,19.1c3.4,3.7,8.3,5.6,14.5,5.6c4.8,0,8.7-0.7,11.9-2.2c3.2-1.5,5.8-3.4,7.7-5.9c2-2.4,3.4-5.4,4.3-8.8
	c0.9-3.4,1.3-7.1,1.3-11.1v-59.5h22.6V287.1z M1353.2,254.2c0.7,6.6,3.2,11.2,7.5,13.9c4.4,2.6,9.6,4,15.7,4c2.1,0,4.5-0.2,7.2-0.5
	c2.7-0.3,5.3-1,7.6-1.9c2.4-0.9,4.3-2.3,5.9-4.1c1.5-1.8,2.2-4.1,2.1-7c-0.1-2.9-1.2-5.3-3.2-7.1c-2-1.9-4.5-3.3-7.6-4.5
	c-3.1-1.1-6.6-2.1-10.6-2.9c-4-0.8-8-1.7-12.1-2.6c-4.2-0.9-8.3-2.1-12.2-3.4c-3.9-1.3-7.4-3.1-10.5-5.4c-3.1-2.2-5.6-5.1-7.4-8.6
	c-1.9-3.5-2.8-7.8-2.8-13c0-5.6,1.4-10.2,4.1-14s6.2-6.8,10.3-9.1c4.2-2.3,8.8-3.9,13.9-4.9c5.1-0.9,10-1.4,14.6-1.4
	c5.3,0,10.4,0.6,15.2,1.7c4.8,1.1,9.2,2.9,13.1,5.5c3.9,2.5,7.1,5.8,9.7,9.8s4.2,8.9,4.9,14.6H1395c-1.1-5.4-3.5-9.1-7.4-10.9
	c-3.9-1.9-8.4-2.8-13.4-2.8c-1.6,0-3.5,0.1-5.7,0.4c-2.2,0.3-4.2,0.8-6.2,1.5c-1.9,0.7-3.5,1.8-4.9,3.2c-1.3,1.4-2,3.2-2,5.5
	c0,2.8,1,5,2.9,6.7s4.4,3.1,7.5,4.3c3.1,1.1,6.6,2.1,10.6,2.9c4,0.8,8.1,1.7,12.3,2.6c4.1,0.9,8.1,2.1,12.1,3.4
	c4,1.3,7.5,3.1,10.6,5.4c3.1,2.3,5.6,5.1,7.5,8.5s2.9,7.7,2.9,12.7c0,6.1-1.4,11.2-4.2,15.5c-2.8,4.2-6.4,7.7-10.8,10.3
	c-4.4,2.6-9.4,4.6-14.8,5.8c-5.4,1.2-10.8,1.8-16.1,1.8c-6.5,0-12.5-0.7-18-2.2s-10.3-3.7-14.3-6.6c-4-3-7.2-6.7-9.5-11.1
	c-2.3-4.4-3.5-9.7-3.7-15.8h22.8V254.2z M1427.8,184.5h17.1v-30.8h22.6v30.8h20.4v16.9h-20.4v54.8c0,2.4,0.1,4.4,0.3,6.2
	c0.2,1.7,0.7,3.2,1.4,4.4c0.7,1.2,1.8,2.1,3.3,2.7c1.5,0.6,3.4,0.9,6,0.9c1.6,0,3.2,0,4.8-0.1s3.2-0.3,4.8-0.7v17.5
	c-2.5,0.3-5,0.5-7.3,0.8c-2.4,0.3-4.8,0.4-7.3,0.4c-6,0-10.8-0.6-14.4-1.7c-3.6-1.1-6.5-2.8-8.5-5c-2.1-2.2-3.4-4.9-4.2-8.2
	c-0.7-3.3-1.2-7.1-1.3-11.3v-60.5H1428v-17.1L1427.8,184.5z M1503.9,184.5h21.4v13.9h0.4c3.2-6,7.6-10.2,13.3-12.8
	c5.7-2.6,11.8-3.9,18.5-3.9c8.1,0,15.1,1.4,21.1,4.3c6,2.8,11,6.7,15,11.7s6.9,10.8,8.9,17.4c2,6.6,3,13.7,3,21.2
	c0,6.9-0.9,13.6-2.7,20c-1.8,6.5-4.5,12.2-8.1,17.2s-8.2,8.9-13.8,11.9s-12.1,4.5-19.7,4.5c-3.3,0-6.6-0.3-9.9-0.9
	c-3.3-0.6-6.5-1.6-9.5-2.9s-5.9-3-8.4-5.1c-2.6-2.1-4.7-4.5-6.5-7.2h-0.4V325h-22.6V184.5z M1582.9,235.9c0-4.6-0.6-9.1-1.8-13.5
	c-1.2-4.4-3-8.2-5.4-11.6c-2.4-3.4-5.4-6.1-8.9-8.1c-3.6-2-7.7-3.1-12.3-3.1c-9.5,0-16.7,3.3-21.5,9.9c-4.8,6.6-7.2,15.4-7.2,26.4
	c0,5.2,0.6,10,1.9,14.4c1.3,4.4,3.1,8.2,5.7,11.4c2.5,3.2,5.5,5.7,9,7.5c3.5,1.9,7.6,2.8,12.2,2.8c5.2,0,9.5-1.1,13.1-3.2
	s6.5-4.9,8.8-8.2c2.3-3.4,4-7.2,5-11.5C1582.4,244.8,1582.9,240.4,1582.9,235.9L1582.9,235.9z M1622.8,145.4h22.6v21.4h-22.6
	C1622.8,166.8,1622.8,145.4,1622.8,145.4z M1622.8,184.5h22.6v102.6h-22.6V184.5L1622.8,184.5z M1665.6,145.4h22.6v141.7h-22.6
	V145.4L1665.6,145.4z M1757.5,289.9c-8.2,0-15.5-1.4-21.9-4.1c-6.4-2.7-11.8-6.5-16.3-11.2c-4.4-4.8-7.8-10.5-10.1-17.1
	c-2.3-6.6-3.5-13.9-3.5-21.8c0-7.8,1.2-15,3.5-21.6c2.3-6.6,5.7-12.3,10.1-17.1c4.4-4.8,9.9-8.5,16.3-11.2s13.7-4.1,21.9-4.1
	c8.2,0,15.5,1.4,21.9,4.1c6.4,2.7,11.8,6.5,16.3,11.2c4.4,4.8,7.8,10.5,10.1,17.1c2.3,6.6,3.5,13.8,3.5,21.6
	c0,7.9-1.2,15.2-3.5,21.8s-5.7,12.3-10.1,17.1c-4.4,4.8-9.9,8.5-16.3,11.2C1773,288.5,1765.7,289.9,1757.5,289.9L1757.5,289.9z
	 M1757.5,272c5,0,9.4-1.1,13.1-3.2c3.7-2.1,6.7-4.9,9.1-8.3c2.4-3.4,4.1-7.3,5.3-11.6c1.1-4.3,1.7-8.7,1.7-13.2
	c0-4.4-0.6-8.7-1.7-13.1s-2.9-8.2-5.3-11.6c-2.4-3.4-5.4-6.1-9.1-8.2c-3.7-2.1-8.1-3.2-13.1-3.2s-9.4,1.1-13.1,3.2
	c-3.7,2.1-6.7,4.9-9.1,8.2c-2.4,3.4-4.1,7.2-5.3,11.6c-1.1,4.4-1.7,8.7-1.7,13.1c0,4.5,0.6,8.9,1.7,13.2c1.1,4.3,2.9,8.2,5.3,11.6
	c2.4,3.4,5.4,6.2,9.1,8.3C1748.1,271,1752.5,272,1757.5,272L1757.5,272z M1815.9,184.5h17.1v-30.8h22.6v30.8h20.4v16.9h-20.4v54.8
	c0,2.4,0.1,4.4,0.3,6.2c0.2,1.7,0.7,3.2,1.4,4.4c0.7,1.2,1.8,2.1,3.3,2.7s3.4,0.9,6,0.9c1.6,0,3.2,0,4.8-0.1
	c1.6-0.1,3.2-0.3,4.8-0.7v17.5c-2.5,0.3-5,0.5-7.3,0.8c-2.4,0.3-4.8,0.4-7.3,0.4c-6,0-10.8-0.6-14.4-1.7s-6.5-2.8-8.5-5
	c-2.1-2.2-3.4-4.9-4.2-8.2c-0.7-3.3-1.2-7.1-1.3-11.3v-60.5h-17.1v-17.1L1815.9,184.5z"/>
<path class="st0" d="M1014.5,145.4H910.9l-32-98.6l-32.1,98.6l-103.6-0.1l83.9,61L795,304.8l83.9-60.9l83.8,60.9l-32-98.5
	L1014.5,145.4z"/>
<path class="st1" d="M937.9,228.6l-7.2-22.3l-51.8,37.6L937.9,228.6z"/>
<g>
	<path class="st0" d="M81.1,258.5L56,221.9v36.6H38.3v-95.6h27.6c13.1,0,19.9,1.8,26.1,7.1c6.6,5.6,10.1,13.8,10.1,23.5
		c0,14.9-7.8,25.4-25,29.6l25.9,35.3H81.1z M63.9,179.9H56v28.7h8.7c13.7,0,19.5-4.4,19.5-14.5C84.2,185.5,80.7,179.9,63.9,179.9z"
		/>
	<path class="st0" d="M171.5,258.5v-9.3c-6.9,7.8-13.7,11-23.8,11c-21,0-36.1-15.7-36.1-37.3c0-21.9,15.3-37.8,36.5-37.8
		c10.3,0,17.5,3.4,23.4,11.3v-9.6h15.8v71.7H171.5z M149.9,200.9c-12.3,0-21,9.3-21,22.4c0,12.5,8.7,21.1,21.2,21.1
		c13.1,0,20.8-9.3,20.8-21.2C171,210.1,162.2,200.9,149.9,200.9z"/>
	<path class="st0" d="M223.1,202.5v56h-17.2v-56h-8.4v-15.7h8.4v-23.9h17.2v23.9h10.3v15.7H223.1z"/>
	<path class="st0" d="M315.1,230.3h-55.5c2.1,8.7,9.6,14.1,19.8,14.1c7.1,0,11.4-1.9,15.8-7.1h18.8c-4.8,14.7-19.7,22.9-34.1,22.9
		c-21.9,0-38.8-16.3-38.8-37.3c0-21.1,16.7-37.8,37.8-37.8c21.3,0,37,16.3,37,38.5C315.7,226.3,315.6,227.8,315.1,230.3z M279,200.9
		c-10.2,0-17.2,5-19.9,14.2h39.7C296.6,206,289.6,200.9,279,200.9z"/>
	<path class="st0" d="M417.4,258.5v-6.9c-6.5,6.3-11.9,8.5-20.6,8.5c-16.7,0-27.3-9.7-27.3-34.9v-38.4h17.2v35.1
		c0,19,5.3,22.5,13.6,22.5c5.8,0,10.5-2.5,13.1-6.6c1.9-3.2,2.7-7.6,2.7-17.2v-33.8h17.2v71.7H417.4z"/>
	<path class="st0" d="M472.1,260.2c-14.2,0-24.4-7.8-26.3-24.4h17.3c1.7,6.1,4.5,8.7,9.6,8.7c4.4,0,7.8-3,7.8-7
		c0-4.1-0.6-5.3-12.2-9.2c-14.2-4.8-19.9-10.7-19.9-21.2c0-12.3,10.5-21.9,23.8-21.9c12.2,0,22.9,8,23.5,21.5H479
		c-0.8-3.8-3.1-5.7-6.7-5.7c-3.8,0-6.6,2.6-6.6,6.1c0,3.8,0.4,4,12.2,7.8c15,4.7,19.9,10.3,19.9,21
		C497.7,249.4,486.5,260.2,472.1,260.2z"/>
	<path class="st0" d="M584.9,260.2c-21,0-38-16.8-38-37.5c0-20.6,17.1-37.5,37.9-37.5c21.6,0,38.3,16.7,38.3,38
		C623.1,243.4,605.7,260.2,584.9,260.2z M584.9,200.9c-11.3,0-20.7,9.7-20.7,21.5c0,12.3,9.2,22,20.8,22c11.4,0,20.7-9.7,20.7-21.7
		C605.7,210.8,596.4,200.9,584.9,200.9z"/>
	<path class="st0" d="M682.4,258.5v-35.1c0-19.1-5.2-22.5-13.7-22.5c-5.4,0-10,2.3-12.7,6.6c-2.2,3.5-2.8,7.6-2.8,17.2v33.8H636
		v-71.7h15.9v6.9c6.3-6.1,12-8.5,20.2-8.5c10,0,17.7,3.6,22.4,10.3c3.9,5.6,5.2,11.8,5.2,24.6v38.4H682.4z"/>
</g>
<rect x="38.3" y="278.3" class="st2" width="661.4" height="8"/>
<g>
	<rect x="1536.4" y="314" class="st2" width="339.8" height="8"/>
	<rect x="1085.5" y="314" class="st2" width="407" height="8"/>
</g>
</svg>
