<?xml version="1.0" encoding="utf-8"?>
<!-- Generator: Adobe Illustrator 21.1.0, SVG Export Plug-In . SVG Version: 6.00 Build 0)  -->
<svg version="1.1" id="Layer_1" xmlns="http://www.w3.org/2000/svg" xmlns:xlink="http://www.w3.org/1999/xlink" x="0px" y="0px"
	 viewBox="0 0 667 553.7" style="enable-background:new 0 0 667 553.7;" xml:space="preserve">
<style type="text/css">
	.st0{fill:#FFFFFF;}
</style>
<path class="st0" d="M523.9,186.7c-12.6,5.6-26,9.3-40.2,11c14.5-8.7,25.5-22.4,30.8-38.7c-13.6,8-28.5,13.8-44.5,17
	c-12.8-13.6-30.9-22.1-51.1-22.1c-38.7,0-70,31.3-70,70c0,5.5,0.6,10.8,1.8,16c-58.2-2.9-109.8-30.8-144.3-73.1
	c-6,10.3-9.5,22.3-9.5,35.2c0,24.3,12.4,45.7,31.1,58.3c-11.5-0.4-22.3-3.5-31.7-8.8v0.9c0,33.9,24.1,62.2,56.1,68.6
	c-5.9,1.6-12,2.5-18.4,2.5c-4.5,0-8.9-0.4-13.2-1.3c8.9,27.8,34.8,48.1,65.4,48.6c-23.9,18.8-54.1,29.9-86.9,29.9
	c-5.7,0-11.2-0.3-16.7-1c31,19.9,67.8,31.5,107.3,31.5c128.8,0,199.2-106.7,199.2-199.2l-0.2-9.1
	C502.6,213.1,514.5,200.7,523.9,186.7z"/>
</svg>
