<?xml version="1.0" encoding="utf-8"?>
<!-- Generator: Adobe Illustrator 21.1.0, SVG Export Plug-In . SVG Version: 6.00 Build 0)  -->
<svg version="1.1" id="Layer_1" xmlns="http://www.w3.org/2000/svg" xmlns:xlink="http://www.w3.org/1999/xlink" x="0px" y="0px"
	 viewBox="0 0 1782.6 1481" style="enable-background:new 0 0 1782.6 1481;" xml:space="preserve">
<style type="text/css">
	.st0{fill:#FFFFFF;}
	.st1{fill:#FCC192;}
</style>
<g>
	<path class="st0" d="M1604.6,186.9c0-52.2-42.5-94.7-94.7-94.7H279.2c-52.2,0-94.7,42.5-94.7,94.7v781v118.3
		c0,52.2,42.5,94.7,94.7,94.7h472.6c-5.5,94.2-45,142-117.6,142h-47.3c-39.1,0-71,31.9-71,71s31.9,71,71,71h615.3
		c39.1,0,71-31.9,71-71c0-39.2-31.8-71-71-71h-47.3c-72.6,0-112.1-47.7-117.6-142h472.5c52.2,0,94.7-42.5,94.7-94.7V970
		c0.1-0.7,0.1-1.4,0.1-2.1V186.9z M231.9,186.9c0-26.1,21.3-47.4,47.4-47.4h1230.6c26.1,0,47.4,21.2,47.4,47.4v757.3h-0.1h-47.3
		V210.5c0-13-10.6-23.6-23.7-23.6H302.9c-13.1,0-23.7,10.6-23.7,23.7v733.6h-47.3V186.9z M1462.6,944.2h-1136v-710h1136V944.2z
		 M1225.9,1393.8c0,13.1-10.6,23.7-23.7,23.7H586.9c-13.1,0-23.7-10.6-23.7-23.7c0-13,10.6-23.7,23.7-23.7h44.3c1,0.1,2,0.2,3,0.2
		h520.7c1,0,2-0.1,3-0.2h44.3C1215.3,1370.1,1225.9,1380.7,1225.9,1393.8z M1039.5,1322.9h-290c29.1-32.3,46.3-80.4,49.7-142h190.6
		C993.2,1242.6,1010.4,1290.6,1039.5,1322.9z M1509.8,1133.6H1015c-0.7-0.1-1.4-0.1-2.1-0.1H776.2c-0.7,0-1.4,0-2.1,0.1H279.2
		c-26.1,0-47.4-21.2-47.4-47.4v-94.6h1325.3l0.1,94.6C1557.2,1112.3,1535.9,1133.6,1509.8,1133.6z"/>
	<g>
		<g>
			<path class="st1" d="M965.6,1038.9h-142c-13.1,0-23.7,10.6-23.7,23.7s10.6,23.7,23.7,23.7h142c13.1,0,23.7-10.6,23.7-23.7
				S978.6,1038.9,965.6,1038.9z"/>
		</g>
	</g>
	<g>
		<path class="st0" d="M560.6,387.3c0-4.9,0.9-9.7,2.8-14.5c1.8-4.8,4.5-9,8.1-12.8c3.5-3.8,7.8-6.8,12.9-9.2
			c5.1-2.3,10.8-3.5,17.3-3.5c7.8,0,14.5,1.6,20.2,4.8c5.7,3.2,9.9,7.5,12.7,12.7l-16.9,12c-0.8-2-1.8-3.6-3-4.9s-2.6-2.3-4.1-3.1
			c-1.5-0.8-3.1-1.3-4.7-1.6c-1.6-0.3-3.2-0.5-4.7-0.5c-3.2,0-5.9,0.6-8.2,1.9c-2.3,1.2-4.2,2.9-5.7,4.9s-2.6,4.3-3.3,6.8
			s-1.1,5-1.1,7.5c0,2.8,0.4,5.5,1.2,8c0.8,2.6,2,4.8,3.6,6.8s3.5,3.5,5.8,4.7s4.9,1.8,7.8,1.8c1.5,0,3.1-0.2,4.6-0.5
			c1.6-0.3,3.1-0.9,4.6-1.7c1.5-0.8,2.8-1.8,4-3.1c1.2-1.2,2.1-2.8,2.8-4.6l18,10.8c-1.2,2.9-3,5.6-5.5,7.9s-5.2,4.3-8.4,5.9
			c-3.1,1.6-6.5,2.8-10.1,3.6c-3.6,0.8-7.1,1.2-10.5,1.2c-6,0-11.4-1.2-16.4-3.6c-4.9-2.4-9.2-5.5-12.8-9.5
			c-3.6-3.9-6.4-8.4-8.3-13.4C561.6,397.5,560.6,392.4,560.6,387.3z"/>
		<path class="st0" d="M666.3,347.8h20.2l27.9,80.4H692l-4.9-15.7h-21.4l-4.8,15.7h-22.5L666.3,347.8z M683.5,397.7l-7.1-24.9
			l-7.5,24.9H683.5z"/>
		<path class="st0" d="M746.4,388.7v39.5h-22.1v-80.4h17.2l32.3,40.9v-40.9h22.1v80.4h-17.5L746.4,388.7z"/>
		<path class="st0" d="M808.7,387.3c0-4.9,0.9-9.7,2.8-14.5c1.8-4.8,4.5-9,8.1-12.8c3.5-3.8,7.8-6.8,12.9-9.2
			c5.1-2.3,10.8-3.5,17.3-3.5c7.8,0,14.5,1.6,20.2,4.8c5.7,3.2,9.9,7.5,12.7,12.7l-16.9,12c-0.8-2-1.8-3.6-3-4.9s-2.6-2.3-4.1-3.1
			c-1.5-0.8-3.1-1.3-4.7-1.6c-1.6-0.3-3.2-0.5-4.7-0.5c-3.2,0-5.9,0.6-8.2,1.9c-2.3,1.2-4.2,2.9-5.7,4.9s-2.6,4.3-3.3,6.8
			s-1.1,5-1.1,7.5c0,2.8,0.4,5.5,1.2,8c0.8,2.6,2,4.8,3.6,6.8s3.5,3.5,5.8,4.7s4.9,1.8,7.8,1.8c1.5,0,3.1-0.2,4.6-0.5
			c1.6-0.3,3.1-0.9,4.6-1.7c1.5-0.8,2.8-1.8,4-3.1c1.2-1.2,2.1-2.8,2.8-4.6l18,10.8c-1.2,2.9-3,5.6-5.5,7.9s-5.2,4.3-8.4,5.9
			c-3.1,1.6-6.5,2.8-10.1,3.6c-3.6,0.8-7.1,1.2-10.5,1.2c-6,0-11.4-1.2-16.4-3.6c-4.9-2.4-9.2-5.5-12.8-9.5
			c-3.6-3.9-6.4-8.4-8.3-13.4C809.7,397.5,808.7,392.4,808.7,387.3z"/>
		<path class="st0" d="M952,408.9v19.2h-57.3v-80.4H951V367h-34.2v11.3H946v17.9h-29.2v12.7H952z"/>
		<path class="st0" d="M965.7,428.2v-80.4h22.1v61.1h36.5v19.2L965.7,428.2L965.7,428.2z"/>
		<path class="st0" d="M1104.4,347.8l14.6,25.4l14.6-25.4h23.8l-26.8,40.8l25.9,39.6h-23.8L1119,404l-13.7,24.2h-23.9l25.9-39.6
			l-26.8-40.8H1104.4z"/>
	</g>
	<g>
		<path class="st0" d="M876.7,585.1h-52.9v-28.6c0-6.9-5.7-12.6-12.6-12.6H558.9c-6.9,0-12.6,5.7-12.6,12.6v44h-49.2
			c-6.9,0-12.6,5.7-12.6,12.6c0,6.9,5.7,12.6,12.6,12.6h61.5c0.1,0,0.2,0,0.3,0c0,0,0,0,0.1,0c6.9,0,12.6-5.7,12.6-12.6v-44h226.9
			v28.6v169.4H679.7c-0.5,0-1.1,0-1.6,0.1c-6.3-15.6-21.6-26.6-39.4-26.6c-17.9,0-33.2,11.2-39.4,26.8c-0.9-0.2-1.8-0.3-2.7-0.3
			h-24.9V723c0-6.9-5.7-12.6-12.6-12.6c-0.2,0-0.4,0-0.6,0s-0.3,0-0.5,0h-60.7c-6.9,0-12.6,5.7-12.6,12.6s5.7,12.6,12.6,12.6h49.2
			v44c0,6.9,5.7,12.6,12.6,12.6h37.6c0.3,0,0.5,0,0.8,0c4.2,18.9,21.2,33,41.4,33s37-14.1,41.4-33h131.1h20.2
			c4.3,18.8,21.2,33,41.4,33s37-14.1,41.4-33h28.2c6.9,0,12.6-5.7,12.6-12.6V674.7c-0.2-27.3-8.1-50.2-22.8-66.2
			C918.5,593.4,898.7,585.1,876.7,585.1z M638.7,800.2c-9.5,0-17.2-7.7-17.2-17.2s7.7-17.2,17.2-17.2s17.2,7.7,17.2,17.2
			S648.2,800.2,638.7,800.2z M872.8,800.2c-9.5,0-17.2-7.7-17.2-17.2s7.7-17.2,17.2-17.2S890,773.5,890,783
			C889.9,792.5,882.2,800.2,872.8,800.2z M912,767.1c-6.3-15.5-21.6-26.5-39.3-26.5s-32.9,10.9-39.3,26.5h-9.7V610.4h52.9
			c33.2,0,52.9,24.1,52.9,64.4v92.3H912z"/>
		<path class="st0" d="M657.5,691.7c-4.9,4.9-4.9,12.9,0,17.9c2.4,2.4,5.7,3.7,8.9,3.7s6.4-1.3,8.9-3.7l32.5-32.5l0.1-0.1
			c0.2-0.3,0.5-0.5,0.7-0.8c0.1-0.2,0.2-0.3,0.3-0.5s0.2-0.3,0.4-0.5c0.1-0.2,0.2-0.4,0.3-0.6c0.1-0.2,0.2-0.3,0.3-0.5
			s0.2-0.4,0.3-0.6c0.1-0.2,0.2-0.3,0.2-0.5c0.1-0.2,0.1-0.4,0.2-0.6c0.1-0.2,0.1-0.4,0.2-0.5c0.1-0.2,0.1-0.4,0.1-0.6
			s0.1-0.4,0.1-0.6s0.1-0.4,0.1-0.7c0-0.2,0.1-0.3,0.1-0.5c0.1-0.8,0.1-1.7,0-2.5c0-0.2,0-0.3-0.1-0.5c0-0.2-0.1-0.4-0.1-0.7
			c0-0.2-0.1-0.4-0.1-0.6c0-0.2-0.1-0.4-0.1-0.6c-0.1-0.2-0.1-0.4-0.2-0.5c-0.1-0.2-0.1-0.4-0.2-0.6c-0.1-0.2-0.2-0.3-0.2-0.5
			c-0.1-0.2-0.2-0.4-0.3-0.6c-0.1-0.2-0.2-0.3-0.3-0.5s-0.2-0.4-0.3-0.6c-0.1-0.2-0.2-0.3-0.4-0.5c-0.1-0.2-0.2-0.3-0.3-0.5
			c-0.2-0.3-0.5-0.5-0.7-0.8l-0.1-0.1l-30.9-30.9c-4.9-4.9-12.9-4.9-17.9,0c-4.9,4.9-4.9,12.9,0,17.9l9.4,9.4H453.2
			c-6.9,0-12.6,5.7-12.6,12.6s5.7,12.6,12.6,12.6h215.1L657.5,691.7z"/>
		<path class="st0" d="M1166.1,561.5v-18.2c0-6.6-5.4-12-12-12H964c-6.6,0-12,5.4-12,12v18.2c0,6.6,5.4,12,12,12h190.1
			C1160.7,573.5,1166.1,568.1,1166.1,561.5z"/>
		<path class="st0" d="M1154.6,595.9H1000c-6.6,0-12,5.4-12,12v21c0,6.6,5.4,12,12,12h154.6c6.6,0,12-5.4,12-12v-21
			C1166.6,601.3,1161.2,595.9,1154.6,595.9z"/>
	</g>
	<g>
		<path class="st1" d="M1228,656.8c-8.2-2.1-14.6-8.2-17-16.3l-7.3-24.4v241.7h-78.8H498.4h-78.8V477.9h41.5h701l0,0l-9.8-32.7H471
			h-51.3v-63.1l1.7-0.5v-49.2H1202v49.2l1.5,0.5l47.2,14.2v-80c0-0.7,0-1.4-0.1-2.1c0-0.1,0-0.3,0-0.4c-0.1-0.7-0.1-1.4-0.2-2
			c0-0.1,0-0.1,0-0.2c-0.1-0.6-0.2-1.3-0.4-1.9c0-0.1-0.1-0.2-0.1-0.3c-0.2-0.7-0.3-1.3-0.5-1.9c0-0.1-0.1-0.2-0.1-0.3
			c-0.2-0.6-0.4-1.2-0.7-1.8c0-0.1-0.1-0.1-0.1-0.2c-0.3-0.6-0.5-1.2-0.8-1.8c0-0.1-0.1-0.2-0.2-0.3c-0.6-1.2-1.3-2.4-2.1-3.5
			c-0.1-0.1-0.1-0.2-0.2-0.3c-0.8-1.1-1.6-2.1-2.6-3.1c-0.1-0.1-0.1-0.2-0.2-0.2c-0.5-0.5-0.9-0.9-1.4-1.4l-0.1-0.1
			c-0.5-0.4-1-0.8-1.5-1.2c-0.1-0.1-0.1-0.1-0.2-0.2c-0.5-0.4-1.1-0.8-1.6-1.2c-0.1-0.1-0.2-0.1-0.3-0.2c-0.5-0.3-1.1-0.7-1.6-1
			c0,0-0.1,0-0.1-0.1c-0.6-0.3-1.2-0.6-1.8-0.9c-0.1-0.1-0.2-0.1-0.3-0.2c-2.9-1.3-6.1-2.2-9.4-2.4c-0.2,0-0.3,0-0.5,0
			c-0.7,0-1.3-0.1-2-0.1l0,0H401.9l0,0c-0.7,0-1.3,0-2,0.1c-0.2,0-0.3,0-0.5,0c-3.3,0.3-6.5,1.1-9.4,2.4c-0.1,0.1-0.2,0.1-0.3,0.2
			c-0.6,0.3-1.2,0.6-1.8,0.9c0,0-0.1,0-0.1,0.1c-0.6,0.3-1.1,0.6-1.6,1c-0.1,0.1-0.2,0.1-0.3,0.2c-0.6,0.4-1.1,0.8-1.6,1.2
			c-0.1,0.1-0.1,0.1-0.2,0.2c-0.5,0.4-1,0.8-1.5,1.2l-0.1,0.1c-0.5,0.4-1,0.9-1.4,1.4c-0.1,0.1-0.1,0.2-0.2,0.2
			c-0.9,1-1.8,2-2.6,3.1c-0.1,0.1-0.1,0.2-0.2,0.3c-0.8,1.1-1.5,2.3-2.1,3.5c-0.1,0.1-0.1,0.2-0.2,0.3c-0.3,0.6-0.6,1.2-0.8,1.8
			c0,0.1-0.1,0.1-0.1,0.2c-0.2,0.6-0.5,1.2-0.7,1.8c0,0.1-0.1,0.2-0.1,0.3c-0.2,0.6-0.4,1.3-0.5,1.9c0,0.1-0.1,0.2-0.1,0.3
			c-0.1,0.6-0.3,1.2-0.4,1.9c0,0.1,0,0.1,0,0.2c-0.1,0.7-0.2,1.3-0.2,2c0,0.1,0,0.3,0,0.4c0,0.7-0.1,1.4-0.1,2.1v80v66.3v409.7
			c0,16.2,13.1,29.3,29.3,29.3h122.7h574h122.7c16.2,0,29.3-13.1,29.3-29.3V650.6C1244.7,656.4,1236.1,658.8,1228,656.8z"/>
	</g>
	<g>
		<g>
			<path class="st1" d="M1443.6,573l-57.7-57.7l32.1-32.1c6-6,8.3-14.6,6.3-22.8c-2.1-8.2-8.2-14.6-16.3-17l-239-71.7
				c-8.4-2.5-17.5-0.2-23.8,6c-6.2,6.2-8.5,15.3-6,23.8l71.7,239c2.4,8.1,8.9,14.3,17,16.3s16.8-0.3,22.8-6.3l33.8-33.8l57.7,57.7
				c4.5,4.5,10.6,7,16.9,7s12.4-2.5,16.9-7l67.6-67.6C1453,597.4,1453,582.3,1443.6,573z M1359.1,623.7l-52.5-52.6
				c-6.1-6.1-14.1-9.1-22.1-9.1s-16,3.1-22.1,9.1l-17.3,17.3l-47.4-158.2l158.2,47.4l-18.5,18.5c-5.1,5.1-7.9,11.9-7.9,19.1
				s2.8,14.1,7.9,19.1l55.5,55.5L1359.1,623.7z"/>
		</g>
	</g>
</g>
</svg>
