<?xml version="1.0" encoding="utf-8"?>
<!-- Generator: Adobe Illustrator 21.1.0, SVG Export Plug-In . SVG Version: 6.00 Build 0)  -->
<svg version="1.1" id="Layer_1" xmlns="http://www.w3.org/2000/svg" xmlns:xlink="http://www.w3.org/1999/xlink" x="0px" y="0px"
	 viewBox="0 0 2605 1439.4" style="enable-background:new 0 0 2605 1439.4;" xml:space="preserve">
<style type="text/css">
	.st0{fill:#FFFFFF;}
	.st1{fill:#FCC192;}
</style>
<g>
	<g>
		<g>
			<path class="st0" d="M1995.9,752.1V509.2h277.6v-69.4h-312.3c-19.2,0-34.7,15.5-34.7,34.7v312.3c0,19.2,15.5,34.7,34.7,34.7
				h520.5v-69.4L1995.9,752.1L1995.9,752.1z"/>
		</g>
		<path class="st0" d="M1822.4,58.1H725.1h-27.5h-38.3H644h-74c-19.2,0-34.7,15.5-34.7,34.7v223.3c12.2,4.9,26.1,4.9,39.1,4.7
			c10.2-0.2,20.2-2.5,30.3-3.4v-190H644h15.4h39.4h26.3h1062.6v1040.9h-604.4v69.4h639.1c19.2,0,34.7-15.5,34.7-34.7V92.8
			C1857.1,73.7,1841.6,58.1,1822.4,58.1z"/>
		<g>
			<g>
				<path class="st0" d="M2545.5,802.7l-312.3-485.8c-6.4-9.9-17.4-15.9-29.2-15.9h-381.7c-19.2,0-34.7,15.5-34.7,34.7v867.4
					c0,19.2,15.5,34.7,34.7,34.7h138.8v-69.4h-104.1v-798h328l296.5,461.3v336.8h-173.5v69.4h208.2c19.2,0,34.7-15.5,34.7-34.7
					V821.5C2551,814.8,2549.1,808.3,2545.5,802.7z"/>
			</g>
		</g>
		<g>
			<g>
				<path class="st0" d="M2134.7,995c-114.8,0-208.2,93.4-208.2,208.2c0,114.8,93.4,208.2,208.2,208.2
					c114.8,0,208.2-93.4,208.2-208.2C2342.9,1088.3,2249.5,995,2134.7,995z M2134.7,1341.9c-76.5,0-138.8-62.2-138.8-138.8
					c0-76.5,62.2-138.8,138.8-138.8c76.5,0,138.8,62.2,138.8,138.8C2273.5,1279.7,2211.2,1341.9,2134.7,1341.9z"/>
			</g>
		</g>
	</g>
	<g>
		<g>
			<rect x="2377.5" y="1029.7" class="st1" width="104.1" height="69.4"/>
		</g>
	</g>
	<g>
		<g>
			<rect x="2100" y="1168.4" class="st1" width="69.4" height="69.4"/>
		</g>
	</g>
	<g>
	</g>
	<g>
	</g>
	<g>
	</g>
	<g>
	</g>
	<g>
	</g>
	<g>
	</g>
	<g>
	</g>
	<g>
	</g>
	<g>
	</g>
	<g>
	</g>
	<g>
	</g>
	<g>
	</g>
	<g>
	</g>
	<g>
	</g>
	<g>
	</g>
</g>
<g>
	<polygon class="st1" points="340.1,1106.2 340.1,1303.6 376,1303.6 376,1303.6 376,1303.6 376,1106.2 	"/>
	<path class="st1" d="M483.6,621.7h-24.3l-46.9,35.8l-0.1,0.1h3.8L358,706l-58.1-48.4h3.7l-47-35.9h-24.2
		c-89,0-161.5,72.5-161.5,161.5v35.9h35.9l0,0h71.8v215.3c-8.7,0-17-1.5-24.7-4.4c7.7,2.8,16,4.4,24.7,4.4v35.9l0,0v233.3h35.9
		v-269.2h287.1v269.2h35.9l0,0l0,0v-233.3l0,0l0,0v-35.9l0,0V819.1h71.8l0,0h35.9v-35.9C645.1,694.2,572.7,621.7,483.6,621.7z
		 M537.5,783.2v-35.9h-35.9v251.2H214.5V747.3h-35.9v35.9h-71.8c0-69.3,56.3-125.6,125.6-125.6h11.4L358,752.7l114.2-95.1h11.4
		c69.3,0,125.6,56.3,125.6,125.6H537.5z"/>
	<rect x="1078" y="1308.8" class="st0" width="44.7" height="44.7"/>
	<rect x="1004.6" y="1308.8" class="st0" width="44.7" height="44.7"/>
	<rect x="1078" y="1231.4" class="st0" width="44.7" height="44.7"/>
	<path class="st1" d="M681,585.8v394.8v17.9v412.8h502.5V998.6v-17.9V585.8H681z M914.3,621.7h35.9v143.6h-35.9V621.7z
		 M1147.6,1375.4H716.9v-358.9h161.5V1196h107.7v-179.5h161.5V1375.4z M914.3,1160.1v-143.6h35.9v143.6H914.3z M1147.6,980.6H716.9
		V621.7h161.5v179.5h107.7V621.7h161.5V980.6z"/>
	<rect x="1078" y="912" class="st0" width="44.7" height="44.7"/>
	<rect x="1004.6" y="912" class="st0" width="44.7" height="44.7"/>
	<rect x="1078" y="834.6" class="st0" width="44.7" height="44.7"/>
	<path class="st0" d="M537.5,1303.6h-35.9l0,0H376l0,0l0,0h-35.9l0,0H214.5l0,0h-35.9l0,0v107.7l0,0h358.9V1303.6L537.5,1303.6
		L537.5,1303.6z M340.1,1375.4H214.5v-35.9h125.6V1375.4z M501.6,1375.4H376l0,0v-35.9l0,0h125.6V1375.4z"/>
	<path class="st0" d="M412.3,657.6l0.1-0.1l46.9-35.8l0,0c36.7-29.6,60.2-74.9,60.2-125.6v-53.8h-35.9v53.8
		c0,69.3-56.3,125.6-125.6,125.6c-6.5,0-12.9-0.5-19.1-1.4c-2.1-0.3-4.1-0.7-6.2-1.1c-2-0.4-4.1-0.9-6.1-1.4s-4-1.1-6-1.7
		c-1-0.3-2-0.6-2.9-1c-1.9-0.7-3.9-1.4-5.8-2.1c-3.8-1.5-7.5-3.2-11.1-5c-1.8-0.9-3.6-1.9-5.3-2.9c-2.6-1.5-5.2-3.1-7.7-4.8
		c-1.7-1.1-3.3-2.3-4.9-3.5c-2.4-1.8-4.8-3.7-7.1-5.7c-3.8-3.3-7.4-6.8-10.8-10.5c-1.4-1.5-2.7-3-4-4.6c-0.6-0.8-1.3-1.6-1.9-2.4
		c-1.2-1.6-2.5-3.2-3.6-4.8c-14.6-20.5-23.2-45.6-23.2-72.7v-53.8h-35.9v53.8c0,17.4,2.8,34.2,7.9,50c1.4,4.3,3,8.5,4.7,12.6
		c0.6,1.4,1.2,2.7,1.8,4.1c1.9,4.1,3.9,8,6,11.9c0.7,1.3,1.5,2.6,2.2,3.8c1.5,2.5,3.1,5,4.8,7.5c1.7,2.4,3.4,4.8,5.1,7.2
		c2.7,3.5,5.5,6.9,8.4,10.2c2,2.2,4,4.3,6.1,6.4c4.2,4.2,8.5,8.1,13.1,11.8h0.1l47,35.9L412.3,657.6L412.3,657.6z"/>
	<path class="st0" d="M153.9,1030.1c-2.2-0.8-4.3-1.7-6.4-2.7c-2.1-1-4.1-2.1-6.1-3.3c-6.9-4.2-13.1-9.5-18.2-15.7
		c-1.5-1.8-2.8-3.6-4.1-5.5s-2.5-3.9-3.6-5.9c-5.5-10.2-8.7-21.8-8.7-34.2V819.1l0,0H70.9v143.6c0,7.4,0.8,14.7,2.2,21.7
		c0.4,1.8,0.8,3.5,1.2,5.2c0.7,2.6,1.4,5.1,2.3,7.6c0.8,2.5,1.8,5,2.8,7.4s2.1,4.8,3.3,7.1c1.2,2.3,2.5,4.6,3.8,6.8
		c1.4,2.2,2.8,4.4,4.3,6.5c3,4.2,6.3,8.2,9.9,12c0.6,0.6,1.2,1.2,1.8,1.8c1.2,1.2,2.5,2.4,3.7,3.6c0.6,0.6,1.3,1.2,1.9,1.7
		c1.3,1.1,2.6,2.2,4,3.3c0.7,0.5,1.4,1.1,2.1,1.6c18,13.4,40.3,21.4,64.4,21.4l0,0v-35.9C169.9,1034.4,161.6,1032.9,153.9,1030.1z"
		/>
	<path class="st0" d="M609.3,962.7c0,39.6-32.2,71.8-71.8,71.8l0,0v35.9l0,0l0,0l0,0c2.8,0,5.5-0.1,8.3-0.3c0,0,0,0,0.1,0
		c5.4-0.4,10.8-1.2,16-2.4l0,0c2.6-0.6,5.1-1.3,7.7-2.1l0,0c3.4-1,6.6-2.3,9.9-3.6h0.1c9.6-4.1,18.5-9.5,26.5-16.1
		c0,0,0.1,0,0.1-0.1c2-1.6,3.9-3.3,5.7-5.1c0.1-0.1,0.2-0.2,0.3-0.3c2.4-2.3,4.6-4.7,6.8-7.2c0.2-0.2,0.3-0.4,0.5-0.6
		c1-1.1,1.9-2.3,2.8-3.4c0.3-0.3,0.5-0.6,0.7-1c0.3-0.4,0.6-0.7,0.8-1.1c0.1-0.1,0.1-0.1,0.2-0.2c4.1-5.5,7.6-11.3,10.6-17.5
		c0.1-0.1,0.1-0.2,0.2-0.4c1.1-2.2,2.1-4.5,3-6.8c0.5-1.2,0.9-2.4,1.3-3.6c1-2.9,2-5.9,2.7-9c0.1-0.4,0.2-0.8,0.3-1.3
		c0.1-0.4,0.2-0.9,0.3-1.3c0.1-0.6,0.3-1.3,0.4-1.9c0-0.2,0.1-0.4,0.1-0.7c0.1-0.5,0.2-1,0.3-1.5c0.1-0.4,0.1-0.8,0.2-1.1
		c0.1-0.3,0.1-0.6,0.2-0.9c0.1-0.6,0.2-1.1,0.3-1.7c0.3-1.7,0.5-3.5,0.7-5.3v-0.1c0.1-1.5,0.3-2.9,0.3-4.4c0.1-2.2,0.2-4.4,0.2-6.6
		V819.1h-35.9v143.6H609.3z"/>
	<path class="st0" d="M310,544.4c0,29.8,23.2,53.9,51.8,53.9c28.6,0,51.8-24.1,51.8-53.9c0-0.9,0-1.8-0.1-2.7h-24.2
		c-0.8,17.7-12.4,31.8-26.6,31.8s-25.7-14.1-26.6-31.8H310C310,542.6,310,543.5,310,544.4z"/>
	<circle class="st0" cx="306.9" cy="477.6" r="23.1"/>
	<circle class="st0" cx="417.1" cy="477.6" r="23.1"/>
	<g>
		<path class="st1" d="M519.5,406.4c0-59.4-48.3-107.7-107.7-107.7H304.2c-59.4,0-107.7,48.3-107.7,107.7v35.9h35.9h251.2h35.9h53.8
			v-35.9L519.5,406.4L519.5,406.4z M232.4,406.4c0-39.6,32.2-71.8,71.8-71.8h107.7c39.6,0,71.8,32.2,71.8,71.8L232.4,406.4
			L232.4,406.4z"/>
	</g>
</g>
<g>
	<path class="st0" d="M1245.4,408.3L1405.7,248c9.8-9.8,25.6-9.8,35.4,0c9.8,9.8,9.8,25.6,0,35.4l-117.5,117.5h137.8h17.1h195.9V451
		h-192.6h-16.6h-141.6l117.6,117.6c9.8,9.8,9.8,25.6,0,35.4c-4.9,4.9-11.3,7.3-17.7,7.3s-12.8-2.4-17.7-7.3l-160.3-160.3
		C1235.6,433.9,1235.6,418,1245.4,408.3z"/>
	<g>
		<path class="st1" d="M1695.3,823.2L1535,662.9c-9.8-9.8-25.6-9.8-35.4,0s-9.8,25.6,0,35.4l117.6,117.6h-137.8h-17.1h-195.9V866
			H1459h16.6h141.5l-117.5,117.6c-9.8,9.8-9.8,25.6,0,35.4c4.9,4.9,11.3,7.3,17.7,7.3s12.8-2.4,17.7-7.3l160.3-160.3
			C1705.1,848.9,1705.1,833,1695.3,823.2z"/>
	</g>
</g>
</svg>
