<?xml version="1.0" encoding="utf-8"?>
<!-- Generator: Adobe Illustrator 21.1.0, SVG Export Plug-In . SVG Version: 6.00 Build 0)  -->
<svg version="1.1" id="Layer_1" xmlns="http://www.w3.org/2000/svg" xmlns:xlink="http://www.w3.org/1999/xlink" x="0px" y="0px"
	 viewBox="0 0 2346.7 1481" style="enable-background:new 0 0 2346.7 1481;" xml:space="preserve">
<style type="text/css">
	.st0{display:none;}
	.st1{display:inline;}
	.st2{fill:#FFFFFF;}
	.st3{fill:#FCC192;}
</style>
<g>
	<g>
		<g>
		</g>
		<g>
		</g>
		<g>
		</g>
		<g>
		</g>
		<g>
		</g>
		<g>
		</g>
		<g>
		</g>
		<g>
		</g>
		<g>
		</g>
		<g>
		</g>
		<g>
		</g>
		<g>
		</g>
		<g>
		</g>
		<g>
		</g>
		<g>
		</g>
	</g>
	<g>
		<g>
		</g>
		<g>
		</g>
		<g>
		</g>
		<g>
		</g>
		<g>
		</g>
		<g>
		</g>
		<g>
		</g>
		<g>
		</g>
		<g>
		</g>
		<g>
		</g>
		<g>
		</g>
		<g>
		</g>
		<g>
		</g>
		<g>
		</g>
		<g>
		</g>
	</g>
	<g>
		<g>
		</g>
		<g>
		</g>
		<g>
		</g>
		<g>
		</g>
		<g>
		</g>
		<g>
		</g>
		<g>
		</g>
		<g>
		</g>
		<g>
		</g>
		<g>
		</g>
		<g>
		</g>
		<g>
		</g>
		<g>
		</g>
		<g>
		</g>
		<g>
		</g>
	</g>
</g>
<g>
	<g>
	</g>
	<g>
	</g>
	<g>
	</g>
	<g>
	</g>
	<g>
	</g>
	<g>
	</g>
	<g>
	</g>
	<g>
	</g>
	<g>
	</g>
	<g>
	</g>
	<g>
	</g>
	<g>
	</g>
	<g>
	</g>
	<g>
	</g>
	<g>
	</g>
</g>
<g class="st0">
	<g class="st1">
	</g>
	<g class="st1">
	</g>
	<g class="st1">
	</g>
	<g class="st1">
	</g>
	<g class="st1">
	</g>
	<g class="st1">
	</g>
	<g class="st1">
	</g>
	<g class="st1">
	</g>
	<g class="st1">
	</g>
	<g class="st1">
	</g>
	<g class="st1">
	</g>
	<g class="st1">
	</g>
	<g class="st1">
	</g>
	<g class="st1">
	</g>
	<g class="st1">
	</g>
</g>
<g class="st0">
	<g class="st1">
	</g>
	<g class="st1">
	</g>
	<g class="st1">
	</g>
	<g class="st1">
	</g>
	<g class="st1">
	</g>
	<g class="st1">
	</g>
	<g class="st1">
	</g>
	<g class="st1">
	</g>
	<g class="st1">
	</g>
	<g class="st1">
	</g>
	<g class="st1">
	</g>
	<g class="st1">
	</g>
	<g class="st1">
	</g>
	<g class="st1">
	</g>
	<g class="st1">
	</g>
</g>
<g class="st0">
	<g class="st1">
	</g>
	<g class="st1">
	</g>
	<g class="st1">
	</g>
	<g class="st1">
	</g>
	<g class="st1">
	</g>
	<g class="st1">
	</g>
	<g class="st1">
	</g>
	<g class="st1">
	</g>
	<g class="st1">
	</g>
	<g class="st1">
	</g>
	<g class="st1">
	</g>
	<g class="st1">
	</g>
	<g class="st1">
	</g>
	<g class="st1">
	</g>
	<g class="st1">
	</g>
</g>
<g class="st0">
	<g class="st1">
	</g>
	<g class="st1">
	</g>
	<g class="st1">
	</g>
	<g class="st1">
	</g>
	<g class="st1">
	</g>
	<g class="st1">
	</g>
	<g class="st1">
	</g>
	<g class="st1">
	</g>
	<g class="st1">
	</g>
	<g class="st1">
	</g>
	<g class="st1">
	</g>
	<g class="st1">
	</g>
	<g class="st1">
	</g>
	<g class="st1">
	</g>
	<g class="st1">
	</g>
</g>
<g>
	<path class="st2" d="M842.6,1110.6H183.7v-88.6h612.6c-5-14.4-9.2-29.2-12.3-44.3h-24.6v0h-44.3v0h-1v0h-43.3v0h-44.3v0h-1.9v0
		h-42.4v0H538v0h-2.7v0h-41.5v0h-44.3v0h-3.6v0h-40.6v0h-88.6v0h-5v0h-39.3v0H228V756.4h394v-2.2h0v-42.1H436.5L848,300.6l65.5,65.5
		c17.9-2.2,35.6-5.4,53-9.6l-87.1-87.1l72.9-72.9c8.7-8.7,8.7-22.7,0-31.3l-66.4-66.4c-8.7-8.7-22.6-8.7-31.3,0L241,712.1h-35.1
		c-12.2,0-22.1,9.9-22.1,22.1v243.5h-22.1c-12.2,0-22.1,9.9-22.1,22.1v132.8c0,12.2,9.9,22.1,22.1,22.1h23.7l20.7,289.4
		c0.8,11.6,10.5,20.6,22.1,20.6h88.6c11.6,0,21.3-9,22.1-20.6l20.7-289.4h521.3C866.7,1141.2,854,1126.4,842.6,1110.6z M870.1,145.6
		l35.1,35.1L373.8,712.1h-70.2L870.1,145.6z M296,1420.6h-47.3l-3.2-44.3h53.6L296,1420.6z M302.3,1332h-60l-12.6-177.1H315
		L302.3,1332z"/>
	<path class="st3" d="M622,595.4v113.4h0v3.3v42.1h0v2.2v65.9c0,12.5,10.2,22.7,22.7,22.7H777v-45.4H667.4V618.1H777v-45.4H644.7
		C632.2,572.7,622,582.9,622,595.4z"/>
	<path class="st3" d="M266.9,910.7v67.1h5.4h39.3v0v-44.7h89.5v44.7h4.1h40.6v0v-44.7h44.7v44.7h3.2h41.5v0v-44.7H580v44.7h2.3h42.4
		v0v-44.7h44.7v44.7h1.4h43.3v0v-44.7h44.7v44.7h0.5h24.6c-4.6-22.6-7.1-45.8-7.1-69.3v-20.2H289.2
		C276.9,888.3,266.9,898.3,266.9,910.7z"/>
	<path class="st2" d="M1414.3,1332h-60l-1.1-15.4l-42.7,24.4l7.4,103.3c0.8,11.6,10.5,20.6,22.1,20.6h88.6c11.6,0,21.3-9,22.1-20.6
		l13.7-191.2l-46.3,26.4L1414.3,1332z M1408,1420.6h-47.3l-3.2-44.3h53.6L1408,1420.6z"/>
</g>
<g>
	<rect x="2065.1" y="1318.7" class="st2" width="63.8" height="63.8"/>
	<rect x="1960.4" y="1318.7" class="st2" width="63.8" height="63.8"/>
	<rect x="2065.1" y="1208.3" class="st2" width="63.8" height="63.8"/>
	<path class="st3" d="M1498.9,287.7v60.8c16.8,5.2,33.8,9.5,51.2,12.8v-22.4h230.3v255.9H1934V338.8h230.3v511.8h-447.1v51.2h63.2
		v255.9H1934V901.9h230.3v511.8h-614.2V1204c-2.2,1.3-4.4,2.6-6.6,3.9l-44.5,25.5v231.5h716.6V287.7H1498.9z M1882.8,543.6h-51.2
		V338.8h51.2V543.6z M1882.8,1106.6h-51.2V901.9h51.2V1106.6z"/>
	<rect x="2065.1" y="752.9" class="st2" width="63.8" height="63.8"/>
	<rect x="1960.4" y="752.9" class="st2" width="63.8" height="63.8"/>
	<rect x="2065.1" y="642.5" class="st2" width="63.8" height="63.8"/>
</g>
<g>
	<path class="st2" d="M1685.9,369.6h-47.2c-139.9,0-271.6-61.6-361.1-169.1l-6.3-7.6c-11.9-14.3-36.3-14.3-48.2,0l-6.3,7.6
		C1127.1,308,995.5,369.6,855.5,369.6h-47.2c-17.3,0-31.3,14-31.3,31.3v507.6c0,123.4,66.6,238.1,173.7,299.3l280.8,160.5
		c4.8,2.8,10.2,4.1,15.5,4.1c5.4,0,10.7-1.4,15.5-4.1l280.8-160.5c107.2-61.2,173.7-175.9,173.7-299.3V400.9
		C1717.2,383.6,1703.2,369.6,1685.9,369.6z M1654.5,908.5c0,101-54.4,194.8-142.1,244.9l-265.3,151.7l-265.3-151.6
		c-87.7-50.1-142.1-144-142.1-244.9V432.3h15.9c149.6,0,290.8-62.1,391.6-171.5c100.8,109.3,242,171.5,391.6,171.5h15.9V908.5z"/>
	<path class="st3" d="M1247.1,463.6c-190.1,0-344.8,154.7-344.8,344.8s154.7,344.8,344.8,344.8s344.8-154.7,344.8-344.8
		S1437.2,463.6,1247.1,463.6z M1247.1,1090.4c-155.5,0-282.1-126.5-282.1-282.1s126.5-282.1,282.1-282.1s282.1,126.5,282.1,282.1
		S1402.6,1090.4,1247.1,1090.4z"/>
	<path class="st2" d="M1408.3,661.7c-2.7-14.9-15.4-26-30.5-26.6c-7.9-0.3-15.1,2-21.4,6.9c-3.4,2.6-5.9,5.8-8.2,9.3
		c-44,66-88,132.1-132,198.1c-0.3,0.4-0.5,0.7-0.9,1.2c-0.5-0.4-0.8-0.7-1.2-1c-21.7-20.2-43.4-40.3-65.1-60.5
		c-3.1-2.9-6.2-5.8-9.3-8.8c-5.5-5.5-12.3-8.5-20-9.1c-10.4-0.7-19.4,2.7-26.4,10.5c-6.9,7.6-9.5,16.6-8.1,26.7
		c0.7,5,2.6,9.4,5.4,13.6c24.8,37.4,49.7,74.8,74.5,112.2c9.6,14.5,19.2,28.9,28.8,43.4c7.3,11,20.1,16.5,33,13.9
		c10.2-2,17.9-7.7,22.8-16.9c46.1-86.7,92.3-173.4,138.4-260.1c5.6-10.5,11.2-21.1,16.8-31.6
		C1408.4,676.2,1409.7,669.1,1408.3,661.7z"/>
</g>
</svg>
