<?xml version="1.0" encoding="utf-8"?>
<!-- Generator: Adobe Illustrator 21.1.0, SVG Export Plug-In . SVG Version: 6.00 Build 0)  -->
<svg version="1.1" id="Layer_1" xmlns="http://www.w3.org/2000/svg" xmlns:xlink="http://www.w3.org/1999/xlink" x="0px" y="0px"
	 viewBox="0 0 2331 1481" style="enable-background:new 0 0 2331 1481;" xml:space="preserve">
<style type="text/css">
	.st0{display:none;}
	.st1{display:inline;}
	.st2{fill:#FCC192;}
	.st3{fill:#FFFFFF;}
</style>
<g>
	<g>
		<g>
		</g>
		<g>
		</g>
		<g>
		</g>
		<g>
		</g>
		<g>
		</g>
		<g>
		</g>
		<g>
		</g>
		<g>
		</g>
		<g>
		</g>
		<g>
		</g>
		<g>
		</g>
		<g>
		</g>
		<g>
		</g>
		<g>
		</g>
		<g>
		</g>
	</g>
	<g>
		<g>
		</g>
		<g>
		</g>
		<g>
		</g>
		<g>
		</g>
		<g>
		</g>
		<g>
		</g>
		<g>
		</g>
		<g>
		</g>
		<g>
		</g>
		<g>
		</g>
		<g>
		</g>
		<g>
		</g>
		<g>
		</g>
		<g>
		</g>
		<g>
		</g>
	</g>
	<g>
		<g>
		</g>
		<g>
		</g>
		<g>
		</g>
		<g>
		</g>
		<g>
		</g>
		<g>
		</g>
		<g>
		</g>
		<g>
		</g>
		<g>
		</g>
		<g>
		</g>
		<g>
		</g>
		<g>
		</g>
		<g>
		</g>
		<g>
		</g>
		<g>
		</g>
	</g>
</g>
<g>
	<g>
	</g>
	<g>
	</g>
	<g>
	</g>
	<g>
	</g>
	<g>
	</g>
	<g>
	</g>
	<g>
	</g>
	<g>
	</g>
	<g>
	</g>
	<g>
	</g>
	<g>
	</g>
	<g>
	</g>
	<g>
	</g>
	<g>
	</g>
	<g>
	</g>
</g>
<g class="st0">
	<g class="st1">
	</g>
	<g class="st1">
	</g>
	<g class="st1">
	</g>
	<g class="st1">
	</g>
	<g class="st1">
	</g>
	<g class="st1">
	</g>
	<g class="st1">
	</g>
	<g class="st1">
	</g>
	<g class="st1">
	</g>
	<g class="st1">
	</g>
	<g class="st1">
	</g>
	<g class="st1">
	</g>
	<g class="st1">
	</g>
	<g class="st1">
	</g>
	<g class="st1">
	</g>
</g>
<g class="st0">
	<g class="st1">
	</g>
	<g class="st1">
	</g>
	<g class="st1">
	</g>
	<g class="st1">
	</g>
	<g class="st1">
	</g>
	<g class="st1">
	</g>
	<g class="st1">
	</g>
	<g class="st1">
	</g>
	<g class="st1">
	</g>
	<g class="st1">
	</g>
	<g class="st1">
	</g>
	<g class="st1">
	</g>
	<g class="st1">
	</g>
	<g class="st1">
	</g>
	<g class="st1">
	</g>
</g>
<g class="st0">
	<g class="st1">
	</g>
	<g class="st1">
	</g>
	<g class="st1">
	</g>
	<g class="st1">
	</g>
	<g class="st1">
	</g>
	<g class="st1">
	</g>
	<g class="st1">
	</g>
	<g class="st1">
	</g>
	<g class="st1">
	</g>
	<g class="st1">
	</g>
	<g class="st1">
	</g>
	<g class="st1">
	</g>
	<g class="st1">
	</g>
	<g class="st1">
	</g>
	<g class="st1">
	</g>
</g>
<g class="st0">
	<g class="st1">
	</g>
	<g class="st1">
	</g>
	<g class="st1">
	</g>
	<g class="st1">
	</g>
	<g class="st1">
	</g>
	<g class="st1">
	</g>
	<g class="st1">
	</g>
	<g class="st1">
	</g>
	<g class="st1">
	</g>
	<g class="st1">
	</g>
	<g class="st1">
	</g>
	<g class="st1">
	</g>
	<g class="st1">
	</g>
	<g class="st1">
	</g>
	<g class="st1">
	</g>
</g>
<g>
	<path class="st2" d="M2218.4,628.9c-0.1-0.1-0.2-0.2-0.3-0.4l-276.3-276.3c-31.2-31.1-72.6-48.3-116.6-48.3h-258
		c-18.4,0-33.4,14.9-33.4,33.4c0,18.4,14.9,33.4,33.4,33.4h258c26.2,0,50.9,10.2,69.4,28.7l276.1,276c0.1,0.1,0.1,0.1,0.2,0.2
		c38.4,38.4,38.4,100.5,0,138.9l-276.3,276.2c-18.5,18.5-43.2,28.8-69.4,28.8H272.9c-67.1,0-121.7-54.6-121.7-121.7V492.5
		c0-67.1,54.6-121.7,121.7-121.7h1138.5c18.4,0,33.4-14.9,33.4-33.4s-14.9-33.4-33.4-33.4h-202.6V180.5c0-48.7-39.6-88.2-88.2-88.2
		H1036c-48.7,0-88.2,39.6-88.2,88.2v123.5H272.9c-103.9,0-188.5,84.5-188.5,188.5V998c0,103.9,84.5,188.5,188.5,188.5h469.6v0h205.3
		v98c0,48.7,39.6,88.2,88.2,88.2h84.5c48.7,0,88.2-39.6,88.2-88.2v-98h343v0h273.3c44.1,0,85.5-17.2,116.6-48.3L2218,861.9
		C2282.4,797.6,2282.5,693.5,2218.4,628.9z M1014.6,180.5c0-11.9,9.6-21.5,21.5-21.5h84.5c11.9,0,21.5,9.6,21.5,21.5v123.5h-127.5
		V180.5z M1142,1284.4c0,11.9-9.6,21.5-21.5,21.5H1036c-11.9,0-21.5-9.6-21.5-21.5v-98H1142V1284.4z"/>
	<path class="st3" d="M398.9,729.9h191.3c10.6,0,19.1-8.6,19.1-19.1v-153c0-10.6-8.6-19.1-19.1-19.1H398.9
		c-10.6,0-19.1,8.6-19.1,19.1v153C379.8,721.4,388.4,729.9,398.9,729.9z M569.2,579.7v111.9H420V579.7H569.2z"/>
	<path class="st3" d="M828.7,578.7l-76.3-38.3c-9.5-4.7-25-1.1-29.8,8.3c-5.4,9.4-6.5,22.8,3.4,27.6l31.7,15.5
		c-0.7,2-1.7,4.1-1.7,6.3c0,24.3,18.2,44.8,36.9,52.5v227.2c0,10.3-8.4,18.6-18.6,18.6c-2.7,0-5.3-0.6-7.6-1.6
		c-2.7-3.3-4.4-7.5-4.4-12.2v-153c0-46.2-38.3-84.8-76.5-93.7V519.3c0-42.2-33.4-76.2-75.6-76.2H380.7c-42.2,0-77.4,34-77.4,76.2
		v424l-22.2,11.1c-6.3,3.2-16.1,13.7-16.1,20.8v3.1v49.8v7.6c0,10.6,9.5,19.4,20,19.4h420.8c10.6,0,18.2-8.8,18.2-19.4v-5.4l0-53.4
		c0-1.4-0.4-3.1-1.1-4.9c-0.6-1.7-1.4-3.2-2.4-4.7c-3.4-5.5-8.6-11-12.6-12.9l-22.2-11.1V678.4c16.9,9,32.5,28,32.5,50.2v149.2
		c0,17.4,8,33,20.5,43.3c10.5,11.6,25.7,19,42.6,19c31.6,0,57.4-25.7,57.4-57.4V595.8C838.8,588.5,835.2,581.9,828.7,578.7z
		 M336.3,973.7c6.3-3.2,9.1-14.3,9.1-21.3V523.5c0-20.6,17.6-37,38.2-37h223.8c20.6,0,36.4,16.5,36.4,37v428.9
		c0,7.1,6.7,20.4,13,23.6l24.2,14.2l0.1,18.4h-373v-20.9L336.3,973.7z"/>
	<g>
		<path class="st3" d="M1632.3,644c29.1,0,56.6,10.1,77.4,28.4l24.1,21.3l54.4-54.4l-27.5-24.1c-35.5-31-81.1-48.1-128.3-48.1
			c-106.1,0-192.5,84.4-192.5,188.1c0,103.9,86.4,188.5,192.5,188.5c47.2,0,93-17.3,128.8-48.6l28.6-25l-56.7-52.7l-23.3,20.5
			c-21.1,18.6-48.6,28.9-77.4,28.9c-63.8,0-115.6-50.1-115.6-111.6C1516.6,693.9,1568.5,644,1632.3,644z"/>
		<g>
		</g>
		<g>
		</g>
		<g>
		</g>
		<g>
		</g>
		<g>
		</g>
		<g>
		</g>
		<g>
		</g>
		<g>
		</g>
		<g>
		</g>
		<g>
		</g>
		<g>
		</g>
		<g>
		</g>
		<g>
		</g>
		<g>
		</g>
		<g>
		</g>
		<g>
			<path class="st3" d="M1619.8,1060.1c-82.8,0-160.7-32.3-219.2-90.8c-58.6-58.6-90.8-136.4-90.8-219.2s32.3-160.7,90.8-219.2
				c58.6-58.6,136.4-90.8,219.2-90.8s160.7,32.3,219.2,90.8c58.6,58.6,90.8,136.4,90.8,219.2s-32.3,160.7-90.8,219.2
				C1780.5,1027.8,1702.6,1060.1,1619.8,1060.1z M1619.8,490c-69.5,0-134.8,27.1-183.9,76.2c-49.1,49.1-76.2,114.4-76.2,183.9
				s27.1,134.8,76.2,183.9c49.1,49.1,114.4,76.2,183.9,76.2s134.8-27.1,183.9-76.2c49.1-49.1,76.2-114.4,76.2-183.9
				s-27.1-134.8-76.2-183.9C1754.6,517,1689.3,490,1619.8,490z"/>
		</g>
	</g>
	<g>
		<path class="st2" d="M1184.4,730.4v58.9h-74.3v81h-66.3v-81h-74.3v-58.9h74.3v-81h66.3v81H1184.4z"/>
	</g>
</g>
</svg>
