<?xml version="1.0" encoding="utf-8"?>
<!-- Generator: Adobe Illustrator 21.1.0, SVG Export Plug-In . SVG Version: 6.00 Build 0)  -->
<svg version="1.1" id="Layer_1" xmlns="http://www.w3.org/2000/svg" xmlns:xlink="http://www.w3.org/1999/xlink" x="0px" y="0px"
	 viewBox="0 0 129 129" style="enable-background:new 0 0 129 129;" xml:space="preserve">
<style type="text/css">
	.st0{fill:#B81E49;}
	.st1{fill:#EC517D;}
</style>
<g>
	<g>
		<path class="st0" d="M64.5,6.4C39,6.4,18.2,27.2,18.2,52.8c0,3.1,0.3,6.2,0.9,9.2c0,0.2,0.1,0.4,0.1,0.7
			c5.1,22.9,41,57.3,42.5,58.7c0.8,0.8,1.8,1.1,2.8,1.1s2-0.4,2.8-1.1c1.5-1.5,37.2-35.8,42.3-58.2c0-0.2,0.1-0.4,0.1-0.6
			c0.7-3.2,1-6.5,1-9.8C110.8,27.2,90,6.4,64.5,6.4z M101.7,61.1c0,0.2,0,0.1,0,0.3C97.9,78,73,104.2,64.5,112.7
			C56,104.2,31,78,27.2,61c0-0.2,0-0.3-0.1-0.5c-0.5-2.6-0.8-5.2-0.8-7.8c0-21,17.1-38.2,38.1-38.2s38.2,17.1,38.2,38.2
			C102.6,55.6,102.3,58.4,101.7,61.1z"/>
	</g>
</g>
<g>
	<path class="st1" d="M79.4,77.3l-5.5-13.4H55.4l-5.8,13.4H39.1l21.6-51.9h7.6L90,77.3H79.4z M64.5,39l-5.5,15.7H70L64.5,39z"/>
</g>
</svg>
