<?xml version="1.0" encoding="utf-8"?>
<!-- Generator: Adobe Illustrator 21.1.0, SVG Export Plug-In . SVG Version: 6.00 Build 0)  -->
<svg version="1.1" id="Layer_1" xmlns="http://www.w3.org/2000/svg" xmlns:xlink="http://www.w3.org/1999/xlink" x="0px" y="0px"
	 viewBox="0 0 304 293" style="enable-background:new 0 0 304 293;" xml:space="preserve">
<style type="text/css">
	.st0{fill:#FDD2AF;}
</style>
<path class="st0" d="M41,182h4.3H120h48l-46.2,46.2c-11.7,11.7-11.7,30.8,0,42.4l7.1,7.1c11.7,11.7,30.8,11.7,42.4,0l55.9-55.9
	c0.6-0.6,1.2-1.2,1.7-1.9l56.4-56.3c4.5-4.7,6.7-10.3,6.7-16.6c0-6.4-2.2-11.9-6.7-16.4L229,74.1c-0.6-0.7-1.2-1.3-1.8-2l-55.9-55.9
	c-11.7-11.7-30.8-11.7-42.4,0l-7.1,7.1c-11.7,11.7-11.7,30.8,0,42.4L168,112h-48H45.3H41c-16.5,0-30,13.5-30,30v10
	C11,168.5,24.5,182,41,182z"/>
</svg>
