<?xml version="1.0" encoding="utf-8"?>
<!-- Generator: Adobe Illustrator 21.1.0, SVG Export Plug-In . SVG Version: 6.00 Build 0)  -->
<svg version="1.1" id="Layer_1" xmlns="http://www.w3.org/2000/svg" xmlns:xlink="http://www.w3.org/1999/xlink" x="0px" y="0px"
	 viewBox="0 0 1045.3 876.1" style="enable-background:new 0 0 1045.3 876.1;" xml:space="preserve">
<style type="text/css">
	.st0{fill:#FFFFFF;}
	.st1{fill:#FCC192;}
</style>
<g>
	<g>
		<path class="st0" d="M525.5,48.4c-213.2,0-386.6,173.5-386.6,386.6s173.4,386.6,386.6,386.6S912.1,648.2,912.1,435
			S738.7,48.4,525.5,48.4z M525.5,751.4c-174.5,0-316.4-142-316.4-316.4S351,118.7,525.5,118.7S841.8,260.6,841.8,435
			S699.9,751.4,525.5,751.4z"/>
		<path class="st1" d="M525.5,212.4c-25.8,0-46.9,21-46.9,46.9c0,25.8,21,46.8,46.9,46.8c25.8,0,46.9-21,46.9-46.8
			C572.3,233.4,551.3,212.4,525.5,212.4z"/>
		<path class="st1" d="M525.5,376.4c-19.4,0-35.1,15.7-35.1,35.1v210.9c0,19.4,15.7,35.1,35.1,35.1c19.4,0,35.1-15.7,35.1-35.1
			V411.6C560.6,392.2,544.9,376.4,525.5,376.4z"/>
	</g>
</g>
</svg>
