<?xml version="1.0" encoding="utf-8"?>
<!-- Generator: Adobe Illustrator 21.1.0, SVG Export Plug-In . SVG Version: 6.00 Build 0)  -->
<svg version="1.1" id="Layer_1" xmlns="http://www.w3.org/2000/svg" xmlns:xlink="http://www.w3.org/1999/xlink" x="0px" y="0px"
	 viewBox="0 0 667 553.7" style="enable-background:new 0 0 667 553.7;" xml:space="preserve">
<style type="text/css">
	.st0{fill:#FFFFFF;}
</style>
<g>
	<g>
		<path class="st0" d="M414.2,116.7H262.9c-51.4,0-93.2,41.8-93.2,93.2v151.3c0,51.4,41.8,93.2,93.2,93.2h151.3
			c51.4,0,93.2-41.8,93.2-93.2V209.9C507.3,158.5,465.5,116.7,414.2,116.7z M477.4,361.1c0,34.9-28.4,63.2-63.2,63.2H262.9
			c-34.8,0-63.2-28.4-63.2-63.2V209.9c0-34.8,28.4-63.2,63.2-63.2h151.3c34.9,0,63.2,28.4,63.2,63.2L477.4,361.1L477.4,361.1z"/>
		<path class="st0" d="M338.5,198.5c-48,0-87,39-87,87c0,48,39,87,87,87s87-39,87-87C425.5,237.6,386.5,198.5,338.5,198.5z
			 M338.5,342.5c-31.4,0-57-25.6-57-57c0-31.4,25.6-57,57-57s57,25.6,57,57C395.6,317,370,342.5,338.5,342.5z"/>
		<path class="st0" d="M429.2,173.1c-5.8,0-11.4,2.3-15.5,6.4c-4.1,4.1-6.4,9.7-6.4,15.5c0,5.8,2.4,11.4,6.4,15.5
			c4.1,4.1,9.7,6.4,15.5,6.4c5.8,0,11.4-2.4,15.5-6.4c4.1-4.1,6.4-9.8,6.4-15.5c0-5.8-2.3-11.5-6.4-15.5
			C440.6,175.5,435,173.1,429.2,173.1z"/>
	</g>
	<g>
	</g>
	<g>
	</g>
	<g>
	</g>
	<g>
	</g>
	<g>
	</g>
	<g>
	</g>
	<g>
	</g>
	<g>
	</g>
	<g>
	</g>
	<g>
	</g>
	<g>
	</g>
	<g>
	</g>
	<g>
	</g>
	<g>
	</g>
	<g>
	</g>
</g>
</svg>
