<?xml version="1.0" encoding="utf-8"?>
<!-- Generator: Adobe Illustrator 21.1.0, SVG Export Plug-In . SVG Version: 6.00 Build 0)  -->
<svg version="1.1" id="Layer_1" xmlns="http://www.w3.org/2000/svg" xmlns:xlink="http://www.w3.org/1999/xlink" x="0px" y="0px"
	 viewBox="0 0 667 553.7" style="enable-background:new 0 0 667 553.7;" xml:space="preserve">
<style type="text/css">
	.st0{fill:#FFFFFF;}
</style>
<g>
	<g>
		<rect x="175.3" y="227.1" class="st0" width="71.5" height="221.7"/>
		<path class="st0" d="M481.5,247.3c-15-16.9-34.9-25.4-59.6-25.4c-9.1,0-17.4,1.2-24.8,3.5s-13.7,5.6-18.9,9.7
			c-5.1,4.2-9.2,8.1-12.2,11.6c-2.9,3.4-5.7,7.4-8.5,11.8V227h-71.3l0.2,10.7c0.1,7.2,0.2,29.2,0.2,66.2s-0.1,85.2-0.4,144.8h71.3
			V325.1c0-7.6,0.8-13.6,2.4-18.1c3-7.6,7.6-14,13.8-19.1c6.1-5.1,13.8-7.7,22.9-7.7c12.4,0,21.6,4.4,27.4,13.3
			c5.9,8.9,8.8,21.1,8.8,36.8v118.6h71.3V321.7C504.1,289,496.5,264.2,481.5,247.3z"/>
		<path class="st0" d="M211.5,120.3c-12,0-21.7,3.6-29.2,10.9c-7.4,7.2-11.2,16.4-11.2,27.4c0,10.9,3.6,20,10.8,27.3
			s16.8,11,28.6,11h0.4c12.1,0,21.9-3.7,29.4-11c7.4-7.3,11.1-16.4,10.9-27.3c-0.1-11-3.8-20.2-11.1-27.4
			C233.1,124,223.4,120.3,211.5,120.3z"/>
	</g>
</g>
</svg>
