<?xml version="1.0" encoding="utf-8"?>
<!-- Generator: Adobe Illustrator 23.0.3, SVG Export Plug-In . SVG Version: 6.00 Build 0)  -->
<svg version="1.1" id="Capa_1" xmlns="http://www.w3.org/2000/svg" xmlns:xlink="http://www.w3.org/1999/xlink" x="0px" y="0px"
	 viewBox="0 0 254.8 289.3" style="enable-background:new 0 0 254.8 289.3;" xml:space="preserve">
<style type="text/css">
	.st0{fill:#FDD2AF;}
</style>
<g>
	<path class="st0" d="M243,128.4c-0.2-0.3-0.5-0.6-0.7-0.9l-0.2-0.2c-0.3-0.3-0.5-0.6-0.8-0.8c0,0,0,0,0,0l-14.7-14.7v-1.6v-2.7
		V96.2v-0.3V18.2c0-5-4.1-9.1-9.1-9.1H38.3c-5,0-9.1,4.1-9.1,9.1v78l0,0v0.2v11.1l0,0v3.7l-16,16c0,0,0,0,0,0c0,0,0,0,0,0l0,0
		c0,0,0,0,0,0c-3.8,4-6.1,9.4-6.1,15.4v119c0,12.4,10.1,22.5,22.5,22.5h196.1c12.4,0,22.5-10.1,22.5-22.5v-119
		C248.1,137.2,246.2,132.3,243,128.4z M38.3,17.9h179.1c0.2,0,0.3,0.1,0.3,0.3V103l0,0v16.3v3.4v21.9l-20.1,20.1h-60.4
		c-2.4,0-4.4,2-4.4,4.4c0,2.4,2,4.4,4.4,4.4h51.6l-10,10h-33.3l-12.9-11.4c-1.5-1.3-3.2-1.9-5-1.9c-1.8,0-3.6,0.7-5,1.9l-12.9,11.4
		H79.1l-10-10h49.4c2.4,0,4.4-2,4.4-4.4c0-2.4-2-4.4-4.4-4.4H60.2L38,142.4c0-25.2,0-124.2,0-124.2C38,18,38.1,17.9,38.3,17.9z
		 M155.6,192.3H170l-6.8,6.8L155.6,192.3z M93.4,197.8l-5.5-5.5h11.8L93.4,197.8z M225.6,269.1H29.5c-4.1,0-7.5-3.4-7.5-7.5V146.1
		l61,61l-43.4,38.2c-3.1,2.8-3.4,7.5-0.7,10.6c2.8,3.1,7.5,3.4,10.6,0.7l78-68.8l78.1,68.8c3.1,2.7,7.8,2.4,10.7-0.7
		c2.7-3.1,2.4-7.9-0.7-10.6l-41.9-37l59.4-59.4v112.7C233.1,265.7,229.7,269.1,225.6,269.1z"/>
	<path class="st0" d="M116.9,74.4c2.4,0,4.4-2,4.4-4.4c0-2.4-2-4.4-4.4-4.4H95.5c-0.4,0-0.9,0.1-1.3,0.2c-1.4,0.4-2.5,1.5-2.9,2.9
		c-0.1,0.4-0.2,0.8-0.2,1.3v37.7c0,2.4,2,4.4,4.4,4.4h21.4c2.4,0,4.4-2,4.4-4.4c0-2.4-2-4.4-4.4-4.4h-17v-10h14.3
		c2.4,0,4.4-2,4.4-4.4c0-2.4-2-4.4-4.4-4.4H99.9v-10H116.9z"/>
	<path class="st0" d="M57.2,112.2c2.4,0,4.4-2,4.4-4.4v-9.3V86.7l4.2,7.5l8.9,15.7c0.8,1.4,2.3,2.2,3.8,2.2c0.4,0,0.8,0,1.1-0.1
		c1.9-0.5,3.3-2.3,3.3-4.3V77.1v-7c0-2.4-2-4.4-4.4-4.4s-4.4,2-4.4,4.4v15.9V91l-1.9-3.3l-7.1-12.6L61,67.9c-1-1.7-3-2.6-5-2.1
		c-1.9,0.5-3.3,2.3-3.3,4.3v17.6v19.7v0.5C52.8,110.2,54.7,112.2,57.2,112.2z"/>
	<path class="st0" d="M161.3,66.2c-1.1,0.6-1.9,1.6-2.2,2.9l-3.7,17.4l-3.7-17.4c-0.4-2-2.2-3.5-4.3-3.5c-2.1,0-3.9,1.5-4.3,3.5
		l-3.7,17.4l-3.7-17.4c-0.5-2.4-2.8-3.9-5.2-3.4c-2.4,0.5-3.9,2.8-3.4,5.2l8,37.7c0.4,2,2.2,3.5,4.3,3.5c2.1,0,3.9-1.5,4.3-3.5
		l3.7-17.4l3.7,17.4c0.4,2,2.2,3.5,4.3,3.5c2.1,0,3.9-1.5,4.3-3.5l7.7-36.3l0.3-1.4c0.5-2.4-1-4.7-3.4-5.2
		C163.3,65.5,162.2,65.7,161.3,66.2z"/>
	<path class="st0" d="M187.9,74.4c0.5,0,1,0,1.5,0.1c2.8,0.5,4.8,2.2,4.8,3.7c0,0.5,0.1,0.9,0.2,1.3c0.4,1.3,1.5,2.4,2.8,2.8
		c0.4,0.1,0.9,0.2,1.3,0.2c2.4,0,4.4-2,4.4-4.4c0-7-6.8-12.7-15.1-12.7c-2.3,0-4.4,0.4-6.3,1.2c-5,1.9-8.5,6.1-8.8,10.9
		c0,0.2,0,0.4,0,0.6c0,9.8,8.5,12.9,13.6,14.7c1.1,0.4,2.1,0.8,2.9,1.2c3.8,1.7,4.8,3,4.9,4.9c0,0.1,0,0.3,0,0.4
		c0,1.8-2.7,3.8-6.3,3.8c-3.6,0-6.3-2-6.3-3.8c0-2.4-2-4.4-4.4-4.4c-2.4,0-4.4,2-4.4,4.4c0,7,6.8,12.7,15.1,12.7
		c5.6,0,10.4-2.5,13.1-6.3c1.3-1.9,2.1-4,2.1-6.3c0-9.8-8.5-12.9-13.6-14.7c-6.7-2.5-7.8-3.9-7.8-6.5
		C181.6,76.5,184.3,74.4,187.9,74.4z"/>
	<path class="st0" d="M57.2,50.9h32.5h7.8h65.8h2.4h32.9c2.4,0,4.4-2,4.4-4.4s-2-4.4-4.4-4.4H57.2c-2.4,0-4.4,2-4.4,4.4
		S54.7,50.9,57.2,50.9z"/>
	<path class="st0" d="M57.2,135.7h141.4c2.4,0,4.4-2,4.4-4.4c0-2.4-2-4.4-4.4-4.4H57.2c-2.4,0-4.4,2-4.4,4.4
		C52.8,133.8,54.7,135.7,57.2,135.7z"/>
	<path class="st0" d="M57.2,154.6h61.3c2.4,0,4.4-2,4.4-4.4c0-2.4-2-4.4-4.4-4.4H57.2c-2.4,0-4.4,2-4.4,4.4
		C52.8,152.6,54.7,154.6,57.2,154.6z"/>
	<path class="st0" d="M198.6,145.8h-61.3c-2.4,0-4.4,2-4.4,4.4c0,2.4,2,4.4,4.4,4.4h61.3c2.4,0,4.4-2,4.4-4.4
		C203,147.7,201,145.8,198.6,145.8z"/>
</g>
</svg>
