<?xml version="1.0" encoding="utf-8"?>
<!-- Generator: Adobe Illustrator 21.1.0, SVG Export Plug-In . SVG Version: 6.00 Build 0)  -->
<svg version="1.1" id="Layer_1" xmlns="http://www.w3.org/2000/svg" xmlns:xlink="http://www.w3.org/1999/xlink" x="0px" y="0px"
	 viewBox="0 0 1045.3 876.1" style="enable-background:new 0 0 1045.3 876.1;" xml:space="preserve">
<style type="text/css">
	.st0{fill:#FBC9A1;}
	.st1{fill:#FFFFFF;}
</style>
<g>
	<g>
		<path class="st0" d="M607.8,329.6h33.6c10.1,0,16.8-6.7,16.8-16.8c0-1.7,0-1.7,0-3.4c-10.1-55.4-57-97.3-115.8-97.3
			c-65.4,0-117.4,52-117.4,117.4c0,10.1,1.7,26.8,5,38.6c1.7,6.7,3.4,11.7,5,18.5c1.7,5-3.4,10.1-8.4,10.1h-35.2
			c-10.1,0-16.8,6.7-16.8,16.8V447c0,10.1,6.7,16.8,16.8,16.8h55.4c3.4,0,8.4,3.4,8.4,6.7c1.7,11.7,3.4,20.1,3.4,26.8
			c0,35.2-40.3,67.1-80.5,94c-1.7,1.7-3.4,5-3.4,6.7s0,3.4,1.7,5l28.5,41.9c1.7,1.7,5,3.4,6.7,3.4c1.7,0,3.4,0,5-1.7
			c20.1-13.4,47-15.1,94-15.1c28.5,0,45.3,5,60.4,10.1c11.7,3.4,25.2,6.7,40.3,6.7c30.2,0,47-10.1,58.7-15.1l3.4-1.7
			c3.4-1.7,5-5,5-6.7s0-3.4-1.7-3.4l-23.5-45.3c-1.7-3.4-6.7-5-11.7-3.4l-5,3.4c-8.4,5-13.4,6.7-26.8,6.7c-5,0-11.7-1.7-21.8-5
			c-16.8-5-36.9-10.1-68.8-11.7c-6.7,0-10.1-5-6.7-11.7c8.4-16.8,13.4-35.2,13.4-55.4c0-6.7,0-15.1-1.7-23.5c0-5,3.4-10.1,8.4-10.1
			h94c10.1,0,16.8-6.7,16.8-16.8v-33.6c0-10.1-6.7-16.8-16.8-16.8H513.8c-3.4,0-6.7-3.4-8.4-6.7c-3.4-15.1-8.4-30.2-11.7-41.9
			c-1.7-3.4-1.7-13.4-1.7-18.5c0-28.5,21.8-50.3,50.3-50.3c23.5,0,41.9,15.1,48.7,36.9C592.7,322.9,599.4,329.6,607.8,329.6z"/>
	</g>
</g>
<g>
	<g>
		<path class="st1" d="M525.5,48.4c-213.2,0-386.6,173.5-386.6,386.6s173.4,386.6,386.6,386.6S912.1,648.2,912.1,435
			S738.7,48.4,525.5,48.4z M525.5,751.4C351,751.4,209.1,609.4,209.1,435S351,118.7,525.5,118.7S841.8,260.6,841.8,435
			S699.9,751.4,525.5,751.4z"/>
	</g>
	<g>
	</g>
	<g>
	</g>
	<g>
	</g>
	<g>
	</g>
	<g>
	</g>
	<g>
	</g>
	<g>
	</g>
	<g>
	</g>
	<g>
	</g>
	<g>
	</g>
	<g>
	</g>
	<g>
	</g>
	<g>
	</g>
	<g>
	</g>
	<g>
	</g>
</g>
</svg>
